<?xml version="1.0" encoding="utf-8"?>
<!-- Generator: Adobe Illustrator 21.0.0, SVG Export Plug-In . SVG Version: 6.00 Build 0)  -->
<svg version="1.1" id="Layer_1" xmlns="http://www.w3.org/2000/svg" xmlns:xlink="http://www.w3.org/1999/xlink" x="0px" y="0px"
	 viewBox="0 0 12.5 7.1" style="enable-background:new 0 0 12.5 7.1;" xml:space="preserve">
<title>arrow-down</title>
<g id="Layer_2">
	<g id="Layer_1-2">
		<path d="M12.3,6.8c0.3-0.3,0.3-0.8,0-1.1c0,0,0,0,0,0l0,0L6.8,0.2C6.5-0.1,6-0.1,5.7,0.2c0,0,0,0,0,0l0,0L0.2,5.7
			c-0.3,0.3-0.3,0.8,0,1.1c0.3,0.3,0.8,0.3,1.1,0l0,0l4.9-4.9l4.9,4.9C11.5,7.1,12,7.1,12.3,6.8z"/>
	</g>
</g>
</svg>
