<svg xmlns="http://www.w3.org/2000/svg" viewBox="0 0 208.48 205.78"><defs><style>.cls-1{fill:#424242;}.cls-2{fill:#fff;}</style></defs><title>audio-icn</title><g id="Layer_2" data-name="Layer 2"><g id="Layer_1-2" data-name="Layer 1"><rect class="cls-1" width="208.48" height="205.78" rx="14.51" ry="14.51"/><path class="cls-2" d="M111.3,129.86a8.62,8.62,0,0,1-3.94-1l-13.08-6.71a2,2,0,0,1,.89-3.71,1.94,1.94,0,0,1,.88.21l13.2,6.72a4.55,4.55,0,0,0,6.83-4V84.56a4.7,4.7,0,0,0-6.83-4.19l-19.37,10a8.71,8.71,0,0,1-3.92.93H73.61a4.7,4.7,0,0,0-4.7,4.7v13.85a4.7,4.7,0,0,0,4.7,4.7H85.84a2,2,0,0,1,0,3.93H73.61A8.63,8.63,0,0,1,65,109.82V96a8.63,8.63,0,0,1,8.62-8.62H85.84a4.75,4.75,0,0,0,2.15-.5l19.37-10a8.59,8.59,0,0,1,11.58,3.7,8.63,8.63,0,0,1,1,4v36.71a8.61,8.61,0,0,1-8.58,8.62Zm24.31-10.68a2,2,0,0,1-1.38-3.33,18.37,18.37,0,0,0,0-25.87,2.41,2.41,0,0,1-.25-.25,2,2,0,1,1,3-2.55l1.23,1.44v-.13a22.27,22.27,0,0,1-1.2,30.13A2,2,0,0,1,135.61,119.19Zm-7.94-8.5a2,2,0,0,1-1.38-3.36,6.25,6.25,0,0,0,0-8.83,2,2,0,0,1,0-2.79l.2-.2a2,2,0,0,1,2.57.19,10.25,10.25,0,0,1,0,14.41,2,2,0,0,1-1.38.57Z"/></g></g></svg>