<svg xmlns="http://www.w3.org/2000/svg" viewBox="0 0 208.48 205.78"><defs><style>.cls-1{fill:#424242;}.cls-2{fill:#fff;}</style></defs><title>csv-icn</title><g id="Layer_2" data-name="Layer 2"><g id="Layer_1-2" data-name="Layer 1"><rect class="cls-1" width="208.48" height="205.78" rx="14.51" ry="14.51"/><path class="cls-2" d="M128.54,85.78a1.39,1.39,0,0,0-.09-.42,1.33,1.33,0,0,0-.29-.43L115.38,72.09a1.33,1.33,0,0,0-.94-.39H83.85a3.93,3.93,0,0,0-3.92,3.92v54.53a3.93,3.93,0,0,0,3.92,3.92h41.08a3.93,3.93,0,0,0,3.62-3.91V85.87Zm-12.76-1.25V76.27L124,84.53ZM82.6,117.3V97.61h43.28V117.3Zm31.84-30.1h11.44V95H82.6V75.62a1.25,1.25,0,0,1,1.25-1.25h29.25v11.5A1.34,1.34,0,0,0,114.44,87.2Zm11.44,42.95a1.25,1.25,0,0,1-1.25,1.25H83.85a1.26,1.26,0,0,1-1.25-1.25V120h43.28Z"/><path class="cls-2" d="M97.73,108.54a2.27,2.27,0,0,1-.62,1.22h0a1.42,1.42,0,0,1-1,.36,1.6,1.6,0,0,1-1.29-.58,3.34,3.34,0,0,1-.51-2.12,3.08,3.08,0,0,1,.52-2,1.65,1.65,0,0,1,1.32-.58,1.47,1.47,0,0,1,1.51,1.2l.07.3,2.31-.55-.09-.3a3.68,3.68,0,0,0-1-1.71,3.85,3.85,0,0,0-2.75-1A4.09,4.09,0,0,0,93.14,104,5,5,0,0,0,92,107.55a4.76,4.76,0,0,0,1.18,3.39,4.33,4.33,0,0,0,5.47.52,4.07,4.07,0,0,0,1.39-2.24l.08-.28-2.26-.72Z"/><path class="cls-2" d="M106.55,106.76a8.55,8.55,0,0,0-1.93-.64,4.1,4.1,0,0,1-1.46-.51.36.36,0,0,1-.15-.29.32.32,0,0,1,.15-.29,1.7,1.7,0,0,1,1-.25,1.45,1.45,0,0,1,.9.22,1.21,1.21,0,0,1,.37.76l0,.26,2.29-.1v-.3a2.8,2.8,0,0,0-1-2.1,3.9,3.9,0,0,0-2.62-.78,4.57,4.57,0,0,0-1.8.32,2.62,2.62,0,0,0-1.2,1,2.55,2.55,0,0,0,.47,3.33,4.93,4.93,0,0,0,2.08.91c.71.18,1.17.3,1.35.36a1.15,1.15,0,0,1,.49.28.48.48,0,0,1,.11.32.75.75,0,0,1-.31.6,1.65,1.65,0,0,1-1.06.28,1.58,1.58,0,0,1-1.06-.32,1.77,1.77,0,0,1-.52-1.07l0-.27-2.26.22,0,.3a3.57,3.57,0,0,0,1.14,2.38,4,4,0,0,0,2.69.82,5.06,5.06,0,0,0,2-.34,2.75,2.75,0,0,0,1.29-1.07,3,3,0,0,0,.07-3.06A2.78,2.78,0,0,0,106.55,106.76Z"/><polygon class="cls-2" points="112.3 108.58 110.36 102.9 107.85 102.9 111.11 112.05 113.38 112.05 116.66 102.9 114.18 102.9 112.3 108.58"/></g></g></svg>