<svg xmlns="http://www.w3.org/2000/svg" viewBox="0 0 78 78"><defs><style>.cls-1{fill:#ffe0b2;}.cls-2{fill:#ff9800;}.cls-3{fill:#fff;stroke:#fff;stroke-miterlimit:10;}</style></defs><title>current</title><g id="Layer_2" data-name="Layer 2"><g id="Layer_1-2" data-name="Layer 1"><circle class="cls-1" cx="39" cy="39" r="39"/><circle class="cls-2" cx="39" cy="39" r="29.82"/><path class="cls-3" d="M39,26.89a.42.42,0,0,0-.39.24l-3.33,6.74a1.57,1.57,0,0,1-1.18.86l-7.44,1.08a.44.44,0,0,0-.24.74l5.38,5.25a1.57,1.57,0,0,1,.45,1.39L31,50.6a.44.44,0,0,0,.63.46l6.65-3.5a1.57,1.57,0,0,1,1.46,0l6.65,3.5A.44.44,0,0,0,47,50.6l-1.27-7.41a1.57,1.57,0,0,1,.45-1.39l5.38-5.25a.44.44,0,0,0-.24-.74L43.9,34.73a1.57,1.57,0,0,1-1.18-.86l-3.33-6.74A.42.42,0,0,0,39,26.89Z"/></g></g></svg>