<svg xmlns="http://www.w3.org/2000/svg" viewBox="0 0 18.63 20.15"><defs><style>.cls-1{fill:#fff;}</style></defs><title>delete-icn</title><g id="Layer_2" data-name="Layer 2"><g id="Layer_1-2" data-name="Layer 1"><path class="cls-1" d="M17.8,2.88H14.64V2.41a4.07,4.07,0,0,0,0-.76,1.35,1.35,0,0,0-.08-.27A2.14,2.14,0,0,0,14.3,1a2.27,2.27,0,0,0-.65-.64A2.42,2.42,0,0,0,12.28,0H6.55a5.5,5.5,0,0,0-.87,0A2.09,2.09,0,0,0,4.32,1,2.12,2.12,0,0,0,4,2.15v.72H.83a.83.83,0,0,0,0,1.66h.9V16.71a8.58,8.58,0,0,0,0,.89A2.74,2.74,0,0,0,3.1,19.78a2.86,2.86,0,0,0,1.45.37H14.1a2.75,2.75,0,0,0,2.8-2.64c0-.1,0-.2,0-.29V4.54h.9a.83.83,0,0,0,0-1.66ZM6.69,1.66h5.1c.26,0,.54,0,.8,0l.11,0,.1.06.07.07.06.1L13,2c0,.26,0,.53,0,.8v0H5.65v0c0-.26,0-.53,0-.8l0-.11.06-.1.07-.07.1-.06.11,0C6.25,1.66,6.48,1.66,6.69,1.66Zm6.57,16.83H4.37l-.31-.08-.24-.14-.21-.2a2,2,0,0,1-.14-.24,2,2,0,0,1-.08-.29c0-.15,0-.29,0-.44V5.51c0-.33,0-.65,0-1H15.24V15.82c0,.52,0,1,0,1.56,0,0,0,.08,0,.12a1.94,1.94,0,0,1-.08.31,1.94,1.94,0,0,1-.14.24l-.2.2-.24.14-.29.08C13.94,18.51,13.59,18.49,13.26,18.49Z"/><path class="cls-1" d="M5.8,6.22A.84.84,0,0,0,5,7.05V15c0,.37,0,.73,0,1.09v0a.83.83,0,0,0,1.66,0V8.16c0-.37,0-.73,0-1.09v0A.84.84,0,0,0,5.8,6.22Z"/><path class="cls-1" d="M9.32,6.22a.85.85,0,0,0-.83.83V15c0,.37,0,.73,0,1.09v0a.83.83,0,0,0,1.66,0V8.16c0-.37,0-.73,0-1.09v0A.84.84,0,0,0,9.32,6.22Z"/><path class="cls-1" d="M12.83,6.22a.85.85,0,0,0-.83.83V15c0,.37,0,.73,0,1.09v0a.83.83,0,0,0,1.66,0V8.16c0-.37,0-.73,0-1.09v0A.84.84,0,0,0,12.83,6.22Z"/></g></g></svg>