<svg xmlns="http://www.w3.org/2000/svg" viewBox="0 0 18.63 18.63"><defs><style>.cls-1{fill:#fff;}</style></defs><title>Asset 4</title><g id="Layer_2" data-name="Layer 2"><g id="Layer_1-2" data-name="Layer 1"><path class="cls-1" d="M.85,11.86A.85.85,0,0,0,0,12.7v2.54a3.39,3.39,0,0,0,3.39,3.39H15.24a3.39,3.39,0,0,0,3.39-3.39V12.7a.85.85,0,0,0-1.69,0v2.54a1.69,1.69,0,0,1-1.69,1.69H3.39a1.69,1.69,0,0,1-1.69-1.69V12.7A.85.85,0,0,0,.85,11.86Z"/><path class="cls-1" d="M9.32,0a.85.85,0,0,0-.85.85V11.43l-2-1.87a.85.85,0,0,0-1.17,1.22L8.73,14A.85.85,0,0,0,9.9,14l3.39-3.24a.85.85,0,1,0-1.17-1.22l-2,1.87V.85A.85.85,0,0,0,9.32,0Z"/></g></g></svg>