<svg xmlns="http://www.w3.org/2000/svg" viewBox="0 0 208.48 205.78"><defs><style>.cls-1{fill:#424242;}.cls-2{fill:#fff;}</style></defs><title>img-icn</title><g id="Layer_2" data-name="Layer 2"><g id="Layer_1-2" data-name="Layer 1"><rect class="cls-1" width="208.48" height="205.78" rx="14.51" ry="14.51"/><path class="cls-2" d="M110.1,100.63a8,8,0,1,1,8-8,8,8,0,0,1-8,8Zm0-13.17A5.19,5.19,0,1,0,113.77,89a5.2,5.2,0,0,0-3.67-1.52Z"/><path class="cls-2" d="M83.74,131.36a8,8,0,0,1-8-8l0-41a8,8,0,0,1,8-8l41,0a8,8,0,0,1,8,8l0,41a8,8,0,0,1-8,8Zm32.19-20.87a3,3,0,0,0-2.1.85l-5.44,5.42,11.82,11.83h4.52a5.17,5.17,0,0,0,5.19-5v-.35l-11.88-11.87A3,3,0,0,0,115.93,110.49ZM89.6,103.17a3,3,0,0,0-2.1.85L78.56,113v10.42a5.19,5.19,0,0,0,5.19,5.19h32.51L91.72,104A3,3,0,0,0,89.6,103.17Zm26.33,4.44a5.73,5.73,0,0,1,4.09,1.7l9.9,10V82.41a5.19,5.19,0,0,0-5.19-5.19l-41,0a5.2,5.2,0,0,0-5.19,5.19V109l7-7a5.77,5.77,0,0,1,8.17,0l12.72,12.72,5.43-5.41A5.75,5.75,0,0,1,115.93,107.62Z"/></g></g></svg>