<svg xmlns="http://www.w3.org/2000/svg" viewBox="0 0 78 78"><defs><style>.cls-1{fill:#e0e0e0;}.cls-2{fill:#9e9e9e;}.cls-3{fill:#fff;}</style></defs><title>loack</title><g id="Layer_2" data-name="Layer 2"><g id="Layer_1-2" data-name="Layer 1"><circle class="cls-1" cx="39" cy="39" r="39"/><circle class="cls-2" cx="39" cy="39" r="29.82"/><path class="cls-3" d="M43.95,31.54V27.61a5,5,0,0,0-5-5,5,5,0,0,0-3.5,1.46,4.92,4.92,0,0,0-1.44,3.5v3.93a13.53,13.53,0,0,1,9.89,0Zm-6.19,10.8a1.23,1.23,0,0,1,2.47,0V46a1.23,1.23,0,1,1-2.47,0ZM31.59,32.8V27.61a7.39,7.39,0,0,1,2.17-5.25,7.41,7.41,0,0,1,12.66,5.25V32.8a13.84,13.84,0,0,1,2.19,1.78,13.59,13.59,0,1,1-19.23,0A15.14,15.14,0,0,1,31.59,32.8Zm15.28,3.54a11.17,11.17,0,1,0,3.24,7.86A11.12,11.12,0,0,0,46.87,36.34Z"/></g></g></svg>