<svg xmlns="http://www.w3.org/2000/svg" viewBox="0 0 25.83 25.83"><defs><style>.cls-1{opacity:0.3;}</style></defs><title>Asset 1</title><g id="Layer_2" data-name="Layer 2"><g id="Layer_1-2" data-name="Layer 1"><g class="cls-1"><path d="M12.91,0A12.91,12.91,0,1,0,25.83,12.91,12.92,12.92,0,0,0,12.91,0Zm-.63,1.29c0,1.57,0,3.25,0,4.85H8.35C9.22,3.52,10.6,1.65,12.28,1.29Zm1.25,0c1.65.39,3,2.24,3.87,4.83H13.53Zm-4,.41A12.18,12.18,0,0,0,7.16,6.14H3.39A11.7,11.7,0,0,1,9.55,1.72Zm6.73,0a11.7,11.7,0,0,1,6.16,4.42H18.67A12.18,12.18,0,0,0,16.28,1.72ZM2.62,7.37H6.81a22.7,22.7,0,0,0-.65,4.92H1.25A11.62,11.62,0,0,1,2.62,7.37ZM8,7.37h4.3v4.92H7.36A22.76,22.76,0,0,1,8,7.37Zm5.53,0h4.23a22.76,22.76,0,0,1,.63,4.92H13.53Zm5.49,0H23.2a11.62,11.62,0,0,1,1.37,4.92H19.67A22.7,22.7,0,0,0,19,7.37ZM1.25,13.52H6.16a22.74,22.74,0,0,0,.64,4.92H2.61A11.66,11.66,0,0,1,1.25,13.52Zm6.11,0H12.3v4.92H8A22.76,22.76,0,0,1,7.36,13.52Zm6.17,0h4.86a22.76,22.76,0,0,1-.63,4.92H13.53Zm6.14,0h4.91a11.66,11.66,0,0,1-1.36,4.92H19A22.74,22.74,0,0,0,19.67,13.52ZM3.37,19.67H7.15A12.18,12.18,0,0,0,9.54,24.1,11.69,11.69,0,0,1,3.37,19.67Zm5,0H12.3v4.86C10.61,24.18,9.22,22.3,8.35,19.67Zm5.18,0H17.4c-.86,2.6-2.22,4.45-3.87,4.84Zm5.15,0h3.78a11.69,11.69,0,0,1-6.17,4.43A12.18,12.18,0,0,0,18.68,19.67Z"/></g></g></g></svg>