<?xml version="1.0" encoding="utf-8"?>
<!-- Generator: Adobe Illustrator 21.0.0, SVG Export Plug-In . SVG Version: 6.00 Build 0)  -->
<svg version="1.1" id="Layer_1" xmlns="http://www.w3.org/2000/svg" xmlns:xlink="http://www.w3.org/1999/xlink" x="0px" y="0px"
	 viewBox="0 0 500 500" style="enable-background:new 0 0 500 500;" xml:space="preserve">
<style type="text/css">
	.st0{fill:#BF360C;stroke:#BF360C;stroke-width:0.5;stroke-miterlimit:10;}
	.st1{fill:#546E7A;}
	.st2{fill:#FFC107;}
	.st3{fill:#90A4AE;}
	.st4{fill:none;stroke:#FF9028;stroke-width:1.5;stroke-miterlimit:10;}
	.st5{fill:#FFFFFF;}
	.st6{fill:#FFFFFF;stroke:#FFFFFF;stroke-width:0.3;stroke-miterlimit:10;}
	.st7{fill:#00B2F0;}
	.st8{fill:#4CAF50;}
	.st9{opacity:0.4;}
	.st10{stroke:#000000;stroke-width:0.5;stroke-miterlimit:10;}
	.st11{fill:#FF9028;stroke:#F78F2E;stroke-miterlimit:10;}
	.st12{fill:#FF9028;}
	.st13{fill:none;stroke:#00B2F0;stroke-miterlimit:10;}
	.st14{fill:#B3E5FC;}
	.st15{fill:#FF9028;stroke:#FF9028;stroke-width:1.5;stroke-miterlimit:10;}
</style>
<g>
	<g>
		<path class="st0" d="M24.3,6.3c-0.1-0.1-0.2-0.2-0.4-0.2H12.1l0,0l0,0l0,0c-0.1,0-0.3,0.1-0.4,0.2l-3,4.4c-0.1,0.1-0.1,0.4,0,0.5
			l5.8,8.3c-3.4,1.4-5.7,4.7-5.7,8.5c0,5.1,4.1,9.2,9.2,9.2s9.1-4.1,9.1-9.2c0-3.8-2.4-7.1-5.7-8.5l5.8-8.3c0.1-0.1,0.1-0.4,0-0.5
			L24.3,6.3z M18.1,14.6l-2-3H20L18.1,14.6z M20.7,10.7h-5.2L13,7.1h10L20.7,10.7z M12.1,7.5l5.4,8l-2.2,3.4L9.7,11L12.1,7.5z
			 M26.2,27.6h-0.9c-0.3,0-0.5,0.2-0.5,0.5s0.2,0.5,0.5,0.5h0.9c-0.2,4.1-3.5,7.4-7.7,7.7v-0.9c0-0.3-0.2-0.5-0.5-0.5
			s-0.5,0.2-0.5,0.5v0.9c-4.1-0.2-7.4-3.5-7.7-7.7h0.9c0.3,0,0.5-0.2,0.5-0.5s-0.2-0.5-0.5-0.5H9.9c0.2-4.1,3.5-7.4,7.7-7.7v0.9
			c0,0.3,0.2,0.5,0.5,0.5s0.5-0.2,0.5-0.5v-0.9C22.6,20.1,26,23.4,26.2,27.6z M20.5,19.2c-0.8-0.2-1.6-0.3-2.5-0.3
			c-0.6,0-1.1,0-1.7,0.1l7.5-11.5l2.4,3.5L20.5,19.2z"/>
	</g>
	<g>
		<path class="st0" d="M18.5,23.2c-0.1-0.4-0.8-0.4-0.9,0l-1.1,3.3H13c-0.5,0-0.7,0.6-0.3,0.9l2.8,2l-1,3.3
			c-0.1,0.4,0.4,0.8,0.7,0.5l2.8-2l2.8,2c0.4,0.3,0.9-0.1,0.7-0.5l-1.1-3.3l2.8-2c0.4-0.3,0.2-0.9-0.3-0.9h-3.4L18.5,23.2z
			 M19.6,28.8c-0.2,0.1-0.2,0.3-0.2,0.5l0.7,2.2l-1.8-1.4c-0.1-0.1-0.4-0.1-0.6,0l-1.8,1.4l0.7-2.2c0-0.2,0-0.4-0.2-0.5l-1.8-1.4
			h2.3c0.2,0,0.4-0.1,0.5-0.3l0.7-2.2l0.7,2.2c0,0.2,0.2,0.3,0.5,0.3h2.3L19.6,28.8z"/>
	</g>
</g>
<g>
	<path class="st1" d="M63.6,11.6c1.4,0.8,1.4,2.2,1.4,3.9c0,0.1,0,0.2,0,0.3c0.4,0.1,0.7,0.6,0.6,1.2c-0.1,0.8-0.5,1.3-1.1,1.3
		c0,0-0.1,0-0.1-0.1c-0.8,2.2-2.5,4-4.4,4c-2,0-3.7-1.7-4.4-4c-0.1,0.1-0.1,0.1-0.1,0.1c-0.5,0-1-0.6-1-1.3
		c-0.1-0.6,0.2-1.1,0.6-1.2c0-0.1,0-0.2,0-0.3C54.2,8.7,63.7,9.3,63.6,11.6z M52.8,25c4.6-2.2,9.8-2.2,14.5,0
		c1.9,0.9,2.1,2.4,2.1,4.3H50.6C50.6,27.4,50.8,25.9,52.8,25z"/>
</g>
<g>
	<path class="st2" d="M93.4,27.5c-0.2,0-0.4,0.2-0.4,0.4s0.2,0.4,0.4,0.4h8.3c0.2-0.3,0.4-0.6,0.5-0.9h-8.8V27.5z"/>
	<path class="st2" d="M118.6,28.4c0.2,0,0.4-0.2,0.4-0.4s-0.2-0.4-0.4-0.4H110c0.1,0.3,0.3,0.6,0.5,0.9h8.1V28.4z"/>
	<circle class="st2" cx="95.5" cy="10.5" r="0.4"/>
	<circle class="st2" cx="96.8" cy="10.5" r="0.4"/>
	<circle class="st2" cx="98" cy="10.5" r="0.4"/>
	<path class="st2" d="M99.7,13.3h-4.1c-0.2,0-0.4,0.2-0.4,0.4s0.2,0.4,0.4,0.4h4.1c0.2,0,0.4-0.2,0.4-0.4S99.9,13.3,99.7,13.3z"/>
	<path class="st2" d="M95.5,15.9h3.8c0.2,0,0.4-0.2,0.4-0.4s-0.2-0.4-0.4-0.4h-3.8c-0.2,0-0.4,0.2-0.4,0.4S95.3,15.9,95.5,15.9z"/>
	<path class="st2" d="M95.5,17.7H98c0.2,0,0.4-0.2,0.4-0.4s-0.2-0.4-0.4-0.4h-2.5c-0.2,0-0.4,0.2-0.4,0.4S95.3,17.7,95.5,17.7z"/>
	<path class="st2" d="M102,13.3c-0.2,0-0.4,0.2-0.4,0.4V22c0,0.2,0.2,0.4,0.4,0.4c0.2,0,0.4-0.2,0.4-0.4v-8.3
		C102.4,13.5,102.2,13.3,102,13.3z"/>
	<path class="st2" d="M116.7,15.9l-5.7-2.7c-0.2-0.1-0.4-0.1-0.5,0l-5.7,2.7c-0.2,0.1-0.4,0.3-0.4,0.6s0.1,0.5,0.4,0.6l2.3,1.1v3.9
		c0,0.3,0.3,0.6,0.6,0.6l0,0c0.3,0,0.6-0.3,0.6-0.6v-3.9l2.7-1.3c0.3-0.1,0.4-0.5,0.3-0.8c-0.1-0.3-0.5-0.4-0.8-0.3l-2.8,1.3
		l-1.2-0.6l4.3-2l4.3,2l-1.5,0.7l0,0l-2.8,1.3l-0.9-0.4l-0.9,0.4V19l1.5,0.7c0.1,0,0.2,0.1,0.3,0.1c0.1,0,0.2,0,0.3-0.1l2.1-1v0.8
		l-2.4,1.1l-1.8-0.8v1.4l1.5,0.7c0.1,0,0.2,0.1,0.3,0.1s0.2,0,0.3-0.1l3-1.4c0.2-0.1,0.4-0.3,0.4-0.6v-1.8l2.3-1.1
		c0.2-0.1,0.4-0.3,0.4-0.6S117,16,116.7,15.9z"/>
	<path class="st2" d="M98.9,20.1h-2.6c-0.6,0-1.2,0.5-1.2,1.2s0.5,1.2,1.2,1.2h2.6c0.6,0,1.2-0.5,1.2-1.2S99.6,20.1,98.9,20.1z
		 M98.9,21.6h-2.6c-0.2,0-0.3-0.1-0.3-0.3s0.1-0.3,0.3-0.3h2.6c0.2,0,0.3,0.1,0.3,0.3S99.1,21.6,98.9,21.6z"/>
	<path class="st2" d="M117.3,7.6H94.6c-1,0-1.9,0.8-1.9,1.9V24c0,1,0.8,1.9,1.9,1.9h8.7c-0.1,1.1-0.5,2.2-1.2,3.1l-0.3,0.4
		c-0.1,0.2-0.2,0.4-0.1,0.6s0.3,0.3,0.6,0.3h7.7c0.2,0,0.4-0.1,0.6-0.3c0.1-0.2,0.1-0.5-0.1-0.6l-0.3-0.4c-0.7-0.9-1.1-2-1.2-3.1
		h8.4c1,0,1.9-0.8,1.9-1.9V9.5C119.2,8.5,118.4,7.6,117.3,7.6z M108.8,29.1h-5.3c0.6-1,1-2.1,1.1-3.3h3.2
		C107.8,27,108.2,28.1,108.8,29.1z M118,24c0,0.4-0.3,0.6-0.6,0.6H94.6c-0.4,0-0.6-0.3-0.6-0.6V9.5c0-0.4,0.3-0.6,0.6-0.6h22.7
		c0.4,0,0.6,0.3,0.6,0.6L118,24L118,24z"/>
</g>
<path class="st3" d="M28.7,67.3L26,66.1c-0.1-0.5-0.3-1-0.6-1.4l1.1-2.7c0.1-0.2,0-0.3-0.1-0.5l-1.3-1.3C25,60,24.8,60,24.6,60.1
	l-2.7,1.1c-0.5-0.2-0.9-0.4-1.4-0.6l-1.2-2.7c-0.1-0.2-0.2-0.3-0.4-0.3H17c-0.2,0-0.3,0.1-0.4,0.3l-1.2,2.7c-0.5,0.1-1,0.3-1.4,0.6
	l-2.7-1.1c-0.2-0.1-0.3,0-0.5,0.1l-1.3,1.3c-0.1,0.1-0.2,0.3-0.1,0.5l1.1,2.8c-0.2,0.5-0.4,0.9-0.6,1.4l-2.7,1.2
	c-0.2,0.1-0.3,0.2-0.3,0.4v1.8c0,0.2,0.1,0.3,0.3,0.4l2.7,1.2c0.2,0.5,0.3,1,0.6,1.4l-1.1,2.7c-0.1,0.2,0,0.4,0.1,0.5l1.3,1.3
	c0.1,0.1,0.3,0.2,0.5,0.1l2.7-1.1c0.5,0.2,0.9,0.4,1.4,0.6l1.2,2.7c0.1,0.2,0.2,0.3,0.4,0.3h1.8c0.2,0,0.3-0.1,0.4-0.3l1.2-2.7
	c0.5-0.1,1-0.3,1.4-0.6l2.7,1.1c0.2,0.1,0.3,0,0.5-0.1l1.3-1.3c0.1-0.1,0.2-0.3,0.1-0.5l-1.1-2.7c0.2-0.5,0.4-0.9,0.6-1.4l2.7-1.2
	c0.2-0.1,0.3-0.2,0.3-0.4v-1.8C29,67.5,28.9,67.4,28.7,67.3z M18,73.1c-2.5,0-4.5-2-4.5-4.5s2-4.5,4.5-4.5s4.5,2,4.5,4.5
	C22.4,71.1,20.4,73.1,18,73.1z"/>
<g>
	<g>
		<g>
			<path class="st4" d="M60,73.7l-5.6,2.9c-0.9,0.5-1.5,0-1.3-1l1.1-6.2L49.6,65c-0.7-0.7-0.5-1.4,0.5-1.6l6.2-0.9l2.8-5.7
				c0.5-0.9,1.2-0.9,1.7,0l2.8,5.7l6.2,0.9c1,0.1,1.3,0.9,0.5,1.6l-4.5,4.4l1.1,6.2c0.2,1-0.4,1.5-1.3,1L60,73.7z"/>
		</g>
	</g>
</g>
<g>
	<path class="st5" d="M169,9.7h-5.7c-0.4-1-1.6-1.5-2.6-1.1c-0.5,0.2-0.9,0.6-1.1,1.1h-5.7V27H169V9.7z M160.3,10.5l0.1-0.3
		c0.1-0.6,0.8-1,1.4-0.9c0.5,0.1,0.8,0.5,0.9,0.9l0.1,0.3h1.3v1.6h-5v-1.6H160.3z M168.2,26.1h-13.4V10.5h3.4V13h6.7v-2.5h3.4
		L168.2,26.1L168.2,26.1z"/>
	<rect x="161.9" y="16.6" class="st5" width="4.6" height="0.8"/>
	<polygon class="st5" points="158.1,17.3 157.3,16.6 156.7,17.2 158.2,18.4 160.5,15.8 159.9,15.3 	"/>
	<rect x="161.8" y="21.6" class="st5" width="4.6" height="0.8"/>
	<polygon class="st5" points="159.4,20.4 158.3,21.5 157.3,20.4 156.7,21 157.7,22.1 156.7,23.1 157.3,23.7 158.3,22.7 159.4,23.7 
		160,23.1 158.9,22.1 160,21 	"/>
</g>
<g>
	<g>
		<path class="st6" d="M195.6,19.1c-0.2,0-0.4-0.2-0.4-0.4s0.2-0.4,0.4-0.4h8.1c0.2,0,0.4,0.2,0.4,0.4s-0.2,0.4-0.4,0.4H195.6z
			 M195.6,22.3c-0.2,0-0.4-0.2-0.4-0.4c0-0.2,0.2-0.4,0.4-0.4h8.1c0.2,0,0.4,0.2,0.4,0.4c0,0.2-0.2,0.4-0.4,0.4H195.6z M195.6,15.8
			c-0.2,0-0.4-0.2-0.4-0.4s0.2-0.4,0.4-0.4h8.1c0.2,0,0.4,0.2,0.4,0.4s-0.2,0.4-0.4,0.4H195.6z M192.9,18.7c0-0.4,0.3-0.7,0.7-0.7
			s0.7,0.3,0.7,0.7c0,0.4-0.3,0.7-0.7,0.7C193.2,19.3,192.9,19,192.9,18.7z M192.9,21.9c0-0.4,0.3-0.7,0.7-0.7s0.7,0.3,0.7,0.7
			c0,0.4-0.3,0.7-0.7,0.7S192.9,22.3,192.9,21.9z M192.9,15.4c0-0.4,0.3-0.7,0.7-0.7s0.7,0.3,0.7,0.7s-0.3,0.7-0.7,0.7
			S192.9,15.8,192.9,15.4z"/>
		<path class="st6" d="M190.9,10.9c-0.1,0-0.2,0.1-0.2,0.2v15.2c0,0.1,0.1,0.2,0.2,0.2h15.2c0.1,0,0.2-0.1,0.2-0.2V11.1
			c0-0.1-0.1-0.2-0.2-0.2C206.1,10.9,190.9,10.9,190.9,10.9z M190.7,10.1h15.6c0.4,0,0.8,0.4,0.8,0.8v15.6c0,0.4-0.4,0.8-0.8,0.8
			h-15.6c-0.4,0-0.8-0.4-0.8-0.8V10.9C189.9,10.4,190.3,10.1,190.7,10.1z"/>
	</g>
</g>
<g>
	<path class="st5" d="M241.3,12c1.2,0.6,1.2,1.9,1.2,3.2c0,0.1,0,0.2,0,0.3c0.4,0.1,0.6,0.5,0.5,1c-0.1,0.6-0.4,1.1-0.9,1.1
		c0,0-0.1,0-0.1-0.1c-0.7,1.9-2.1,3.3-3.6,3.3c-1.6,0-3-1.4-3.6-3.3c-0.1,0.1-0.1,0.1-0.1,0.1c-0.4,0-0.8-0.5-0.8-1.1
		c-0.1-0.5,0.2-0.9,0.5-1c0-0.1,0-0.2,0-0.3C233.6,9.6,241.5,10.1,241.3,12z M232.4,23c3.8-1.8,8.1-1.8,11.9,0
		c1.6,0.7,1.7,2,1.7,3.5h-15.4C230.7,25.1,230.8,23.8,232.4,23z"/>
</g>
<path class="st7" d="M123.9,57.6l7.4,7.4H94.7v2.7h36.6l-7.6,7.6l-0.3,11.5L141,69.2l1.4-1.4l1.4-1.4l-20.3-20.3L123.9,57.6z
	 M138.6,67.7L126.3,80l0.1-3.5l8.7-8.7L138.6,67.7L138.6,67.7z M135.2,65l-8.6-8.6l-0.1-3.5L138.6,65H135.2z"/>
<g>
	<path class="st5" d="M21.8,133.7h-1.6v-2.9c0-1.1-0.9-1.9-1.9-1.9h-8.1c-1.1,0-2,0.9-2,1.9l0,0v6.6c0,1.1,0.9,1.9,2,1.9l0,0h1v2.2
		c0,0.2,0.2,0.4,0.4,0.4c0.1,0,0.2,0,0.3-0.1l2.5-2.5h0.5v1c0,0.9,0.8,1.7,1.7,1.7h2l2.1,2.1c0.2,0.2,0.4,0.2,0.6,0
		c0.1-0.1,0.1-0.2,0.1-0.3V142H22c0.9,0,1.7-0.8,1.7-1.7v-5C23.5,134.4,22.8,133.7,21.8,133.7z M14.1,138.5c-0.1,0-0.2,0-0.3,0.1
		l-1.9,1.9v-1.7c0-0.2-0.2-0.4-0.4-0.4h-1.4c-0.6,0-1.2-0.5-1.2-1.1l0,0v-6.6c0-0.6,0.5-1.2,1.2-1.2l0,0h8.1c0.6,0,1.2,0.5,1.2,1.2
		v6.6c0,0.6-0.5,1.1-1.2,1.1L14.1,138.5L14.1,138.5z M22.7,140.4c0,0.5-0.4,0.9-0.9,0.9l0,0h-1c-0.2,0-0.4,0.2-0.4,0.4v1.3l-1.6-1.6
		c-0.1-0.1-0.2-0.1-0.3-0.1h-2.1c-0.5,0-0.9-0.4-0.9-0.9l0,0v-1h2.7c1.1,0,1.9-0.9,1.9-1.9v-2.9h1.6c0.5,0,0.9,0.4,0.9,0.9
		L22.7,140.4L22.7,140.4z"/>
	<path class="st5" d="M14.2,130.9c-1,0-1.8,0.7-1.8,1.7l0,0c0,0.2,0.2,0.4,0.4,0.4s0.4-0.2,0.4-0.4c0-0.3,0.1-0.5,0.3-0.7
		s0.4-0.3,0.7-0.3c0.5,0,0.9,0.5,0.9,1c0,0.3-0.2,0.7-0.5,0.8c-0.5,0.2-0.8,0.7-0.8,1.3l0,0v0.2c0,0.2,0.2,0.4,0.4,0.4
		s0.4-0.2,0.4-0.4v-0.2c0-0.3,0.1-0.5,0.4-0.6c0.9-0.4,1.2-1.5,0.8-2.4C15.4,131.3,14.9,130.9,14.2,130.9L14.2,130.9z"/>
	<path class="st5" d="M14.2,136.3c-0.2,0-0.4,0.2-0.4,0.4v0.1c0,0.2,0.2,0.4,0.4,0.4s0.4-0.2,0.4-0.4v-0.1
		C14.6,136.4,14.4,136.3,14.2,136.3z"/>
</g>
<g>
	<g>
		<path class="st8" d="M283.1,5.8c-7.3,0-13.2,5.9-13.2,13.2s5.9,13.2,13.2,13.2c7.3,0,13.2-5.9,13.2-13.2S290.4,5.8,283.1,5.8z
			 M283.1,29.7c-6,0-10.8-4.8-10.8-10.8s4.8-10.8,10.8-10.8s10.8,4.8,10.8,10.8S289.1,29.7,283.1,29.7z"/>
		<path class="st8" d="M288.6,13.9l-7.6,7.6l-3.4-3.4c-0.5-0.5-1.2-0.5-1.7,0s-0.5,1.2,0,1.7l4.3,4.2c0.2,0.2,0.5,0.4,0.8,0.4
			s0.6-0.1,0.8-0.4l8.5-8.5c0.5-0.5,0.5-1.2,0-1.7C289.9,13.4,289.1,13.4,288.6,13.9z"/>
	</g>
</g>
<g class="st9">
	<rect x="318.7" y="27.8" class="st10" width="19.1" height="1.2"/>
	<path class="st10" d="M338.3,8.4L337,7.1c-1-1-2.8-1-3.8,0l-11.4,11.4c-0.1,0.1-0.1,0.2-0.2,0.3l-1.7,5.9c-0.1,0.2,0,0.4,0.2,0.6
		c0.1,0.1,0.3,0.2,0.4,0.2s0.1,0,0.2,0l5.9-1.7c0.1,0,0.2-0.1,0.3-0.2l11.4-11.4c0.5-0.5,0.8-1.2,0.8-1.9
		C339.1,9.5,338.8,8.9,338.3,8.4z M326.1,22.6l-4.7,1.4l1.4-4.7l9.2-9.2l3.4,3.4L326.1,22.6z M337.4,11.3l-1.3,1.3l-3.4-3.4l1.3-1.3
		c0.6-0.6,1.5-0.6,2.1,0l1.3,1.3c0.3,0.3,0.4,0.7,0.4,1.1C337.9,10.7,337.7,11,337.4,11.3z"/>
</g>
<g class="st9">
	<g>
		<g>
			<path d="M380.4,30.9h-11.6c-1.3,0-2.4-1-2.4-2.3l-0.7-18.2c0-0.5,0.4-0.9,0.9-0.9s0.9,0.4,0.9,0.9l0.7,18.2
				c0,0.3,0.3,0.6,0.6,0.6h11.6c0.3,0,0.6-0.3,0.6-0.6l0.7-18.2c0-0.5,0.4-0.9,0.9-0.9l0,0c0.5,0,0.9,0.4,0.9,0.9l-0.7,18.2
				C382.8,29.9,381.7,30.9,380.4,30.9z"/>
		</g>
		<g>
			<path d="M374.6,27.1c-0.4,0-0.7-0.3-0.7-0.7V14c0-0.4,0.3-0.7,0.7-0.7s0.7,0.3,0.7,0.7v12.3C375.4,26.8,375,27.1,374.6,27.1z"/>
		</g>
		<g>
			<path d="M371,27.1c-0.4,0-0.7-0.3-0.7-0.7l-0.4-12.3c0-0.4,0.3-0.7,0.7-0.7c0.4,0,0.7,0.3,0.7,0.7l0.4,12.3
				C371.7,26.8,371.4,27.1,371,27.1L371,27.1z"/>
		</g>
		<g>
			<path d="M378.3,27.1C378.3,27.1,378.2,27.1,378.3,27.1c-0.4,0-0.7-0.3-0.7-0.7l0.4-12.3c0-0.4,0.4-0.7,0.7-0.7
				c0.4,0,0.7,0.3,0.7,0.7L379,26.4C379,26.8,378.7,27.1,378.3,27.1z"/>
		</g>
		<g>
			<path d="M383.7,10.8h-18.1c-0.5,0-0.9-0.4-0.9-0.9s0.4-0.9,0.9-0.9h18.1c0.5,0,0.9,0.4,0.9,0.9C384.6,10.4,384.2,10.8,383.7,10.8
				z"/>
		</g>
		<g>
			<path d="M377.4,9.6L377,8.3c-0.1-0.3-0.4-0.6-0.7-0.6H373c-0.3,0-0.7,0.3-0.7,0.6l-0.4,1.3l-1.7-0.5l0.4-1.3
				c0.3-1.1,1.4-1.9,2.5-1.9h3.3c1.1,0,2.2,0.8,2.5,1.9l0.4,1.3L377.4,9.6z"/>
		</g>
	</g>
</g>
<g>
	<g>
		<path class="st11" d="M196.6,64.6c1.8,0,3.2-1.4,3.2-3.2s-1.4-3.2-3.2-3.2s-3.2,1.4-3.2,3.2C193.4,63.2,194.8,64.6,196.6,64.6z
			 M196.6,59.1c1.3,0,2.3,1,2.3,2.3s-1,2.3-2.3,2.3s-2.3-1-2.3-2.3C194.3,60.2,195.3,59.1,196.6,59.1z"/>
		<path class="st11" d="M196.5,77.7l7-10.1c2.6-3.5,2.2-9.3-0.8-12.3c-1.7-1.7-3.9-2.6-6.2-2.6s-4.5,0.9-6.2,2.6
			c-3.1,3.1-3.4,8.8-0.8,12.3L196.5,77.7z M191,56c1.5-1.5,3.4-2.3,5.5-2.3s4.1,0.8,5.5,2.3c2.8,2.8,3.1,8,0.7,11.1l-6.3,9l-6.3-9.1
			C187.9,63.9,188.2,58.7,191,56z"/>
		<path class="st11" d="M202.1,72.4c-0.3,0-0.5,0.1-0.5,0.4s0.1,0.5,0.4,0.5c4.8,0.6,7.4,2.1,7.4,3c0,1.2-4.9,3-12.8,3
			s-12.8-1.7-12.8-3c0-0.9,2.6-2.4,7.4-3c0.3,0,0.4-0.3,0.4-0.5c0-0.3-0.3-0.4-0.5-0.4c-4.8,0.6-8.2,2.2-8.2,3.9
			c0,1.9,4.7,3.9,13.7,3.9s13.7-2,13.7-3.9C210.3,74.5,206.9,73,202.1,72.4z"/>
	</g>
</g>
<g>
	<g>
		<path class="st11" d="M257.1,74.6c-0.1-0.7-0.5-1.3-1.1-1.6l-7-4c-0.9-0.5-1.9-0.3-2.6,0.3l-1.4,1.4c-0.4,0.4-0.9,0.4-1.3,0.1
			c-1.1-0.9-2.2-1.8-3.2-2.9c-1-1-2-2.1-2.9-3.2c-0.3-0.4-0.3-1,0.1-1.3l1.4-1.4c0.7-0.7,0.8-1.8,0.3-2.6l-4-7
			c-0.3-0.6-0.9-1-1.6-1.1c-0.7-0.1-1.3,0.1-1.8,0.6l-2.1,2.1c-1.4,1.4-1.5,4.1-0.1,7.5c1.4,3.2,3.9,6.8,7.1,10
			c3.2,3.2,6.8,5.7,10,7.1c1.7,0.7,3.1,1,4.4,1c1.3,0,2.3-0.4,3.1-1.1l2.1-2.1C257,76,257.2,75.3,257.1,74.6L257.1,74.6z
			 M248.6,69.8l7,4c0.3,0.2,0.6,0.5,0.6,0.9c0,0.3,0,0.7-0.2,0.9l-9.3-5.3l0.4-0.4C247.5,69.6,248.1,69.5,248.6,69.8L248.6,69.8z
			 M233.7,52.2c0.4,0.1,0.7,0.3,0.9,0.6l4,7c0.3,0.5,0.2,1.1-0.2,1.5l-0.3,0.3l-5.3-9.3c0.2-0.2,0.5-0.2,0.7-0.2
			C233.6,52.2,233.7,52.2,233.7,52.2L233.7,52.2z M253.8,77.9c-1.1,1.1-3.5,1.1-6.5-0.1c-3.1-1.3-6.6-3.8-9.7-6.9
			c-3.1-3.1-5.6-6.6-6.9-9.7c-1.2-3-1.3-5.3-0.1-6.5l1.5-1.5l5.3,9.3l-0.4,0.4c-0.7,0.7-0.8,1.8-0.1,2.6c0.9,1.1,1.9,2.2,2.9,3.2
			s2.1,2,3.2,2.9c0.8,0.6,1.9,0.6,2.6-0.1L246,71l9.3,5.3L253.8,77.9L253.8,77.9z"/>
	</g>
</g>
<g>
	<g>
		<g>
			<path class="st12" d="M310.4,56.6c0-1-0.7-1.8-1.6-1.8l0,0h-27.7c-0.4,0-0.8,0.2-1.1,0.5c-0.3,0.3-0.5,0.8-0.5,1.3v18.1
				c0,0.5,0.2,1,0.5,1.3s0.7,0.5,1.1,0.5l0,0h27.7c0.9,0,1.6-0.8,1.6-1.8V56.6z M307.1,56.6L295,66.3l-12.1-9.7L307.1,56.6z
				 M300.2,68.2l7.2,6.5h-24.6l7.2-6.5c0.3-0.3,0.4-0.9,0.1-1.3s-0.8-0.5-1.1-0.2l-7.8,7V57.4l13.4,10.7c0.1,0.1,0.3,0.2,0.4,0.2
				c0.2,0,0.3-0.1,0.5-0.2l13.4-10.8v16.3l-7.8-7c-0.3-0.3-0.8-0.2-1.1,0.2C299.8,67.3,299.8,67.9,300.2,68.2z"/>
		</g>
	</g>
</g>
<g>
	<path class="st7" d="M118.9,130.3c0-0.1,0-0.3,0-0.4c0.6-0.4,1.1-1,1.5-1.7c-0.6,0.2-1.1,0.4-1.8,0.5c0.6-0.4,1.1-1,1.4-1.8
		c-0.6,0.4-1.3,0.6-2,0.8c-0.6-0.6-1.4-1-2.3-1.1c-1.7,0-3.1,1.4-3.1,3.2c0,0.3,0,0.5,0.1,0.7c-2.6-0.2-4.8-1.5-6.4-3.5
		c-0.3,0.5-0.4,1-0.4,1.6c0,1.1,0.5,2.2,1.4,2.8c-0.5,0-1-0.2-1.4-0.4l0,0c0,1.6,1.1,2.9,2.5,3.2c-0.3,0.1-0.5,0.1-0.8,0.1
		c-0.2,0-0.4,0-0.6-0.1c0.4,1.3,1.5,2.3,2.9,2.3c-1.1,0.9-2.4,1.4-3.8,1.4c-0.2,0-0.5,0-0.7,0c1.4,0.9,3,1.5,4.7,1.5
		C115.8,139.5,118.9,134.6,118.9,130.3z"/>
	<path class="st7" d="M129.3,133.1c0-9-7.3-16.4-16.4-16.4c-9,0-16.4,7.3-16.4,16.4c0,9,7.3,16.4,16.4,16.4S129.3,142.1,129.3,133.1
		z M98.1,133.1c0-8.2,6.7-14.9,14.9-14.9s14.9,6.7,14.9,14.9S121.2,148,113,148S98.1,141.3,98.1,133.1z"/>
	<path class="st7" d="M221,133.1c0-9-7.3-16.4-16.4-16.4c-9,0-16.4,7.3-16.4,16.4c0,9,7.3,16.4,16.4,16.4S221,142.1,221,133.1z
		 M189.7,133.1c0-8.2,6.7-14.9,14.9-14.9s14.9,6.7,14.9,14.9s-6.7,14.9-14.9,14.9S189.7,141.3,189.7,133.1z"/>
	<g>
		<g>
			<path class="st7" d="M175.3,133.1c0-9-7.3-16.4-16.4-16.4c-9,0-16.4,7.3-16.4,16.4c0,9,7.3,16.4,16.4,16.4
				S175.3,142.1,175.3,133.1z M144,133.1c0-8.2,6.7-14.9,14.9-14.9s14.9,6.7,14.9,14.9s-6.7,14.9-14.9,14.9S144,141.3,144,133.1z"/>
		</g>
	</g>
	<path class="st7" d="M83.3,133.1c0-9-7.3-16.4-16.4-16.4c-9,0-16.4,7.3-16.4,16.4c0,9,7.3,16.4,16.4,16.4S83.3,142.1,83.3,133.1z
		 M52.1,133.1c0-8.2,6.7-14.9,14.9-14.9s14.9,6.7,14.9,14.9S75.2,148,67,148C58.7,148,52.1,141.3,52.1,133.1z"/>
	<path class="st7" d="M67.4,139.8v-6.7h2.2l0.3-2.2h-2.6v-1.1c0-0.6,0.2-1.1,1-1.1H70v-2.2h-2.4c-2,0-2.5,1.3-2.5,3.1v1.3h-1.4v2.2
		h1.4v6.7H67.4L67.4,139.8z"/>
	<path class="st7" d="M155.4,130.3H153c-0.2,0-0.3,0.1-0.3,0.3v8.4c0,0.2,0.1,0.3,0.3,0.3h2.4c0.2,0,0.3-0.1,0.3-0.3v-8.4
		C155.7,130.5,155.5,130.3,155.4,130.3z"/>
	<rect x="153.3" y="130.9" class="st7" width="1.8" height="7.8"/>
	<path class="st7" d="M162.1,130.2c-1.2,0-1.9,0.5-2.4,0.9l-0.1-0.6c0-0.2-0.1-0.3-0.3-0.3l0,0h-2.2c-0.1,0-0.2,0-0.2,0.1
		c-0.1,0.1-0.1,0.1-0.1,0.2c0,0.6,0,1.3,0,2.2v6.2c0,0.2,0.1,0.3,0.3,0.3h2.4c0.2,0,0.3-0.1,0.3-0.3v-4.8c0-0.2,0-0.4,0.1-0.5
		c0.1-0.4,0.6-0.8,1.2-0.8c0.7,0,1.2,0.6,1.2,1.5v4.7c0,0.2,0.1,0.3,0.3,0.3h2.4c0.2,0,0.3-0.1,0.3-0.3v-5
		C165.3,131.7,164.1,130.2,162.1,130.2z"/>
	<path class="st7" d="M164.7,138.8h-1.8v-4.4c0-1.3-0.7-2.1-1.8-2.1c-0.9,0-1.5,0.6-1.8,1.2c-0.1,0.2-0.1,0.4-0.1,0.8v4.6h-1.8V133
		c0-0.7,0-1.3,0-1.9h1.6l0.1,1c0,0.2,0.1,0.3,0.3,0.3h0.1c0.1,0,0.2-0.1,0.3-0.1c0.2-0.3,0.9-1.2,2.3-1.2c1.7,0,2.6,1.2,2.6,3.3
		L164.7,138.8L164.7,138.8L164.7,138.8z"/>
	<path class="st7" d="M154.3,126.8c-1,0-1.7,0.7-1.7,1.6c0,0.9,0.7,1.6,1.6,1.6c1,0,1.7-0.7,1.7-1.6
		C155.9,127.5,155.2,126.8,154.3,126.8z"/>
	<path class="st7" d="M154.2,129.4c-0.6,0-1-0.4-1-1c0-0.6,0.4-1,1.1-1c0.6,0,1,0.4,1.1,1C155.3,129,154.9,129.4,154.2,129.4z"/>
	<path class="st13" d="M209.9,139h-10.6c-1.7,0-3.1-1.4-3.1-3.1v-5.6c0-1.7,1.4-3.1,3.1-3.1h10.6c1.7,0,3.1,1.4,3.1,3.1v5.6
		C213,137.6,211.6,139,209.9,139z"/>
	<path class="st7" d="M202.9,135.9c-0.1,0-0.1,0-0.2-0.1c-0.1-0.1-0.2-0.2-0.2-0.3v-4.9c0-0.1,0.1-0.2,0.2-0.3
		c0.1-0.1,0.2-0.1,0.4,0l4.8,2.5c0.1,0.1,0.2,0.2,0.2,0.3s-0.1,0.3-0.2,0.3l-4.8,2.5C203,135.9,203,135.9,202.9,135.9z"/>
</g>
<path class="st11" d="M358.6,76.8c-3.2,0-6.2-0.4-8.5-1.1c-1.2-0.4-2-0.8-2.7-1.3c-0.5-0.4-1.1-1-1.1-1.9v-7.1l-6.5-2.6v11.1
	l0.4,0.3c0.4,0.3,0.6,0.7,0.6,1.1c0,0.8-0.6,1.4-1.4,1.4s-1.4-0.6-1.4-1.4c0-0.4,0.2-0.9,0.6-1.1l0.4-0.3V62.2
	c0-0.2,0.1-0.4,0.3-0.5l19.3-7.5h0.1l0,0c0.1,0,0.2,0,0.2,0l19.3,7.5c0.1,0.1,0.2,0.2,0.3,0.3c0,0.1,0,0.3,0,0.4
	c-0.1,0.1-0.2,0.2-0.3,0.3l-7.2,2.8v7.1c0,0.8-0.6,1.5-1.1,1.9c-0.7,0.5-1.5,0.9-2.7,1.3C364.8,76.4,361.8,76.8,358.6,76.8z
	 M347.3,72.8l0.1,0.2c0.1,0.2,0.3,0.4,0.6,0.6c0.5,0.4,1.4,0.8,2.4,1.1c2.2,0.7,5.1,1.1,8.2,1.1c3,0,6-0.4,8.2-1.1
	c1-0.3,1.9-0.7,2.4-1.1c0.4-0.3,0.5-0.5,0.6-0.6l0.1-0.2v-0.3v-6.7l-11.1,4.3c-0.1,0-0.1,0-0.2,0s-0.1,0-0.2,0l-11.1-4.3V72.8z
	 M340.6,62.2l17.9,7l17.9-7l-17.9-7L340.6,62.2z"/>
<g>
	<circle class="st14" cx="36.3" cy="210.6" r="31.3"/>
	<circle class="st7" cx="36.3" cy="210.6" r="26.4"/>
	<path class="st5" d="M47.7,210.5c0.2-0.3,0.2-0.6,0.2-1v-0.6c0-1.2-0.9-2.1-2.1-2.1h-5.2l0,0c0.7-0.8,1.5-1.7,1.8-2.9
		c0.1-0.5,0.1-0.9,0.1-1.4c-0.1-0.6-0.2-1.1-0.5-1.6c-0.1-0.3-0.2-0.5-0.5-0.8l0,0c-0.3-0.4-0.7-0.6-1.2-0.7c-0.5-0.1-1.1,0-1.5,0.2
		l0,0l-0.1,0.1l0,0l0,0c-0.7,0.5-0.9,1.2-1,1.8c-0.1,0.3-0.2,0.7-0.3,0.9c-0.1,0.1-0.2,0.2-0.2,0.3l0,0l0,0
		c-0.1,0.1-0.2,0.2-0.3,0.2c-0.1,0.1-0.3,0.2-0.4,0.3c-0.1,0-0.2,0.1-0.2,0.1l0,0c-0.3,0.2-0.7,0.4-1,0.7l0,0c0,0,0,0-0.1,0.1
		c-0.4,0.3-0.7,0.5-1.1,0.8c-0.2,0.1-0.3,0.3-0.5,0.4c-0.6,0.5-1.2,1.1-1.8,1.6c-0.4,0.4-0.8,0.7-1.1,1.1h-6.6v12h6.3
		c0.8,1.1,2.1,1.7,3.4,1.7l0,0h6.6h0.1h0.3h0.1h4.3c1.2,0,2.1-0.9,2.1-2.1V219c0-0.4-0.1-0.7-0.2-1c0.6-0.4,1-1,1-1.8v-0.6
		c0-0.4-0.1-0.7-0.2-1c0.6-0.4,1-1,1-1.8v-0.6C48.7,211.5,48.3,210.8,47.7,210.5z M46.6,211.6c0.4,0,0.7,0.3,0.7,0.7v0.6
		c0,0.4-0.3,0.7-0.7,0.7h-0.8H40h-0.7c-0.4,0-0.7-0.3-0.7-0.7v-0.6c0-0.4,0.3-0.7,0.7-0.7H40h5.8H46.6z M46.5,215.7v0.6
		c0,0.4-0.3,0.7-0.7,0.7h-0.7h-4.3H40c-0.4,0-0.7-0.3-0.7-0.7v-0.6c0-0.4,0.3-0.7,0.7-0.7h5.8C46.2,215,46.5,215.3,46.5,215.7z
		 M33.6,220.3L33.6,220.3c-1,0-1.8-0.5-2.4-1.3v-9.8c0.2-0.2,0.5-0.5,0.7-0.7c0,0,0,0,0.1-0.1c0.1-0.1,0.2-0.2,0.3-0.3
		s0.1-0.1,0.2-0.2c0.1-0.1,0.1-0.1,0.2-0.2c0.1-0.1,0.2-0.2,0.3-0.3c0,0,0,0,0.1-0.1c0.4-0.4,0.8-0.7,1.2-1.1l0,0
		c0.1-0.1,0.3-0.2,0.4-0.4c0.3-0.3,0.7-0.5,1-0.8c0,0,0,0,0.1,0l0,0c0.3-0.2,0.6-0.4,0.9-0.6c0.1,0,0.2-0.1,0.2-0.1
		c0.2-0.1,0.3-0.2,0.5-0.3s0.5-0.3,0.7-0.5c0.2-0.1,0.3-0.3,0.4-0.5c0.3-0.4,0.4-0.9,0.5-1.3c0.1-0.4,0.2-0.8,0.5-1c0,0,0,0,0.1,0
		c0.2-0.1,0.6,0,0.9,0.2c0.1,0.1,0.2,0.3,0.2,0.4c0,0.2,0.1,0.4,0.1,0.7c0,0.1,0,0.3,0,0.4l0,0c0,0.3,0,0.6,0,1
		c-0.2,0.8-0.7,1.5-1.3,2.2c-0.7,0.8-1.4,1.7-1.6,2.9c-0.1,0.3-0.1,0.7-0.1,1c0,0.2,0,0.3,0,0.5c-0.2,1.6-1.3,2.9-2.9,3.4
		c-0.4,0.1-0.6,0.5-0.5,0.9c0.1,0.3,0.4,0.5,0.7,0.5c0.1,0,0.1,0,0.2,0c0.8-0.2,1.5-0.7,2.2-1.2c0.2,0.4,0.5,0.7,0.8,1
		c-0.2,0.3-0.2,0.6-0.2,1v0.6c0,0.7,0.4,1.4,1,1.8c-0.2,0.3-0.2,0.6-0.2,1v0.6c0,0.2,0,0.5,0.1,0.7L33.6,220.3L33.6,220.3
		L33.6,220.3z M46.5,208.9v0.6c0,0.4-0.3,0.7-0.7,0.7H40c-0.4,0-0.7-0.3-0.7-0.7v-0.6c0-0.4,0.3-0.7,0.7-0.7h5.8
		C46.2,208.2,46.5,208.5,46.5,208.9z M29.7,218.6h-4.4v-9.1h4.4V218.6L29.7,218.6z M45.7,219.7c0,0.4-0.3,0.7-0.7,0.7h-3.2h-0.1
		h-1.1c-0.3,0-0.6-0.3-0.6-0.7v-0.6c0-0.4,0.3-0.7,0.7-0.7H45c0.4,0,0.7,0.3,0.7,0.7L45.7,219.7L45.7,219.7z"/>
</g>
<g>
	<g>
		<g>
			<path class="st15" d="M429,73.7l-5.6,2.9c-0.9,0.5-1.5,0-1.3-1l1.1-6.2l-4.6-4.4c-0.7-0.7-0.5-1.4,0.5-1.6l6.2-0.9l2.8-5.7
				c0.5-0.9,1.2-0.9,1.7,0l2.8,5.7l6.2,0.9c1,0.1,1.3,0.9,0.5,1.6l-4.5,4.4l1.1,6.2c0.2,1-0.4,1.5-1.3,1L429,73.7z"/>
		</g>
	</g>
</g>
</svg>
