<?xml version="1.0" encoding="utf-8"?>
<!-- Generator: Adobe Illustrator 21.0.0, SVG Export Plug-In . SVG Version: 6.00 Build 0)  -->
<svg version="1.1" id="Layer_1" xmlns="http://www.w3.org/2000/svg" xmlns:xlink="http://www.w3.org/1999/xlink" x="0px" y="0px"
	 viewBox="0 0 600 600" style="enable-background:new 0 0 600 600;" xml:space="preserve">
<style type="text/css">
	.st0{display:none;fill:#E58339;}
	.st1{display:none;fill:#E21E1E;}
	.st2{fill:#FFFFFF;}
	.st3{fill:none;stroke:#FFFFFF;stroke-width:1.5;stroke-miterlimit:10;}
	.st4{fill:#FFFFFF;stroke:#FFFFFF;stroke-miterlimit:10;}
	.st5{fill:#FFFFFF;stroke:#FFFFFF;stroke-width:0.3;stroke-miterlimit:10;}
	.st6{fill:#212121;stroke:#212121;stroke-width:0.5;stroke-miterlimit:10;}
	.st7{fill:#212121;}
	.st8{fill:#FF9028;stroke:#FF9028;stroke-width:0.5;stroke-miterlimit:10;}
	.st9{fill:#FF9028;}
	.st10{fill:#00B2F0;}
	.st11{fill:#BF360C;stroke:#BF360C;stroke-width:0.5;stroke-miterlimit:10;}
	.st12{fill:#546E7A;}
	.st13{fill:#FFC107;}
	.st14{fill:#FFFFFF;stroke:#FFFFFF;stroke-width:0.5;stroke-miterlimit:10;}
	.st15{fill:#4CAF50;}
	.st16{fill:#FF9800;}
	.st17{fill:#2196F3;}
	.st18{fill:none;}
	.st19{opacity:0.3;}
	.st20{fill:#8BC34A;stroke:#8BC34A;stroke-width:0.5;stroke-miterlimit:10;}
	.st21{fill:#00B2F0;stroke:#00B2F0;stroke-miterlimit:10;}
	.st22{fill:#F44336;}
	.st23{stroke:#000000;stroke-width:0.6;stroke-miterlimit:10;}
	.st24{opacity:0.4;}
	.st25{stroke:#000000;stroke-width:0.5;stroke-miterlimit:10;}
	.st26{stroke:#000000;stroke-width:0.3;stroke-miterlimit:10;}
</style>
<rect class="st0" width="600" height="600"/>
<rect y="1" class="st1" width="598" height="599"/>
<g>
	<path class="st2" d="M19.7,16.6h-7.5c-0.6,0-1,0.4-1,1v15.1c0,0.6,0.4,1,1,1h7.5c0.6,0,1-0.4,1-1v-15
		C20.7,17.2,20.2,16.6,19.7,16.6z M12.1,17.3h7.5c0.3,0,0.4,0.2,0.4,0.4v1.1h-8.4v-1.1C11.7,17.5,11.9,17.3,12.1,17.3z M20.1,19.4
		v11h-8.4v-11H20.1z M19.7,33.2h-7.5c-0.3,0-0.4-0.2-0.4-0.4v-1.7h8.4v1.7C20.1,33,19.9,33.2,19.7,33.2z"/>
	<circle class="st2" cx="15.9" cy="32.2" r="0.9"/>
	<circle class="st2" cx="15.9" cy="18.1" r="0.3"/>
	<circle class="st2" cx="15.2" cy="18.1" r="0.3"/>
	<circle class="st2" cx="16.6" cy="18.1" r="0.3"/>
</g>
<path class="st2" d="M79.6,16.2c-0.1-0.2-0.3-0.4-0.5-0.6c-0.3-0.2-0.7-0.4-1.1-0.4H64c-0.4,0-0.8,0.1-1.1,0.4
	c-0.2,0.1-0.4,0.4-0.5,0.6c-0.1,0.3-0.2,0.6-0.2,0.9v8.1c0,0.4,0.1,0.7,0.3,1c0.1,0.2,0.3,0.4,0.5,0.6c0.3,0.2,0.7,0.4,1.1,0.4h14
	c0.4,0,0.8-0.1,1.1-0.4c0.2-0.1,0.4-0.4,0.5-0.6c0.1-0.3,0.3-0.6,0.3-1v-8C79.9,16.8,79.8,16.5,79.6,16.2z M64,16.1h14
	c0.1,0,0.4,0,0.5,0.1l-7.1,5.5c-0.1,0.1-0.3,0.1-0.4,0.1s-0.3-0.1-0.4-0.1l-7.1-5.5C63.6,16.1,63.7,16.1,64,16.1z M62.8,25.3v-8.1
	c0-0.1,0-0.3,0.1-0.4l5.3,4.1l-5.3,4.8C62.8,25.6,62.8,25.4,62.8,25.3z M77.9,26.4H64c-0.1,0-0.4,0-0.5-0.1l5.3-5l1.2,0.9
	c0.3,0.2,0.6,0.3,1,0.3s0.7-0.1,1-0.3l1.2-0.9l5.3,4.9C78.3,26.3,78.1,26.4,77.9,26.4z M73.7,20.8l5.3-4.1c0,0.2,0,0.3,0,0.5v8.1
	c0,0.1,0,0.3-0.1,0.4L73.7,20.8z"/>
<g>
	<path class="st2" d="M155.1,24c0-7.1-5.8-13-13-13c-7.1,0-13,5.8-13,13c0,7.1,5.8,13,13,13S155.1,31.1,155.1,24z M130.4,24
		c0-6.5,5.3-11.8,11.8-11.8S154,17.5,154,24s-5.3,11.8-11.8,11.8S130.4,30.5,130.4,24z"/>
	<path class="st2" d="M142.5,29.3V24h1.7l0.2-1.7h-2.1v-0.9c0-0.5,0.2-0.9,0.8-0.9h1.3v-1.7h-1.9c-1.6,0-2,1-2,2.5v1h-1.1V24h1.1
		v5.3H142.5L142.5,29.3z"/>
</g>
<g>
	<path class="st2" d="M239.9,22.4c0-0.1,0-0.2,0-0.3c0.5-0.3,0.9-0.8,1.2-1.3c-0.5,0.2-0.9,0.3-1.4,0.4c0.5-0.3,0.9-0.8,1.1-1.4
		c-0.5,0.3-1,0.5-1.6,0.6c-0.5-0.5-1.1-0.8-1.8-0.9c-1.3,0-2.5,1.1-2.5,2.5c0,0.2,0,0.4,0.1,0.6c-2.1-0.2-3.8-1.2-5.1-2.8
		c-0.2,0.4-0.3,0.8-0.3,1.3c0,0.9,0.4,1.7,1.1,2.2c-0.4,0-0.8-0.2-1.1-0.3l0,0c0,1.3,0.9,2.3,2,2.5c-0.2,0.1-0.4,0.1-0.6,0.1
		c-0.2,0-0.3,0-0.5-0.1c0.3,1,1.2,1.8,2.3,1.8c-0.9,0.7-1.9,1.1-3,1.1c-0.2,0-0.4,0-0.6,0c1.1,0.7,2.4,1.2,3.7,1.2
		C237.4,29.7,239.9,25.8,239.9,22.4z"/>
	<path class="st2" d="M248.1,24.6c0-7.1-5.8-13-13-13c-7.1,0-13,5.8-13,13c0,7.1,5.8,13,13,13S248.1,31.7,248.1,24.6z M223.3,24.6
		c0-6.5,5.3-11.8,11.8-11.8s11.8,5.3,11.8,11.8s-5.3,11.8-11.8,11.8S223.3,31.1,223.3,24.6z"/>
</g>
<g>
	<path class="st2" d="M427.2,24.6c0-7.1-5.8-13-13-13c-7.1,0-13,5.8-13,13c0,7.1,5.8,13,13,13S427.2,31.7,427.2,24.6z M402.4,24.6
		c0-6.5,5.3-11.8,11.8-11.8S426,18.1,426,24.6s-5.3,11.8-11.8,11.8C407.7,36.4,402.4,31.1,402.4,24.6z"/>
	<path class="st3" d="M418.4,29.3H410c-1.3,0-2.5-1.1-2.5-2.5v-4.4c0-1.3,1.1-2.5,2.5-2.5h8.4c1.3,0,2.5,1.1,2.5,2.5v4.4
		C420.9,28.2,419.7,29.3,418.4,29.3z"/>
	<path class="st2" d="M412.9,26.8c-0.1,0-0.1,0-0.2-0.1s-0.2-0.2-0.2-0.2v-3.9c0-0.1,0.1-0.2,0.2-0.2c0.1-0.1,0.2-0.1,0.3,0l3.8,2
		c0.1,0.1,0.2,0.2,0.2,0.2c0,0.1-0.1,0.2-0.2,0.2L412.9,26.8C412.9,26.8,412.9,26.8,412.9,26.8z"/>
</g>
<g>
	<g>
		<g>
			<path class="st2" d="M337.6,24.6c0-7.1-5.8-13-13-13c-7.1,0-13,5.8-13,13c0,7.1,5.8,13,13,13S337.6,31.7,337.6,24.6z M312.9,24.6
				c0-6.5,5.3-11.8,11.8-11.8s11.8,5.3,11.8,11.8s-5.3,11.8-11.8,11.8C318.2,36.4,312.9,31.1,312.9,24.6z"/>
		</g>
	</g>
	<rect x="320.2" y="22.9" class="st2" width="1.4" height="6.2"/>
	<path class="st2" d="M329.2,29.1h-1.4v-3.5c0-1-0.6-1.7-1.4-1.7c-0.7,0-1.2,0.5-1.4,1c-0.1,0.2-0.1,0.3-0.1,0.6v3.6h-1.4v-4.7
		c0-0.6,0-1,0-1.5h1.3l0.1,0.8c0,0.2,0.1,0.2,0.2,0.2h0.1c0.1,0,0.2-0.1,0.2-0.1c0.2-0.2,0.7-1,1.8-1c1.3,0,2.1,1,2.1,2.6v3.7H329.2
		L329.2,29.1z"/>
	<path class="st2" d="M321,21.7c-0.5,0-0.8-0.3-0.8-0.8s0.3-0.8,0.9-0.8c0.5,0,0.8,0.3,0.9,0.8C321.8,21.4,321.4,21.7,321,21.7z"/>
</g>
<g transform="translate(0,-952.36218)">
	<path class="st4" d="M464.7,973.9c0,0.2,0.1,0.5,0.3,0.6l7.5,8c0.3,0.4,0.9,0.4,1.3,0c0.4-0.3,0.4-1,0-1.3l-6-6.4h24
		c0.5,0,0.9-0.4,0.9-0.9s-0.4-0.9-0.9-0.9h-24l6-6.4c0.3-0.4,0.3-1,0-1.3c-0.4-0.4-1-0.3-1.3,0l-7.5,8
		C464.8,973.4,464.7,973.6,464.7,973.9z"/>
</g>
<g transform="translate(0,-952.36218)">
	<path class="st4" d="M558.8,973.9c0-0.2-0.1-0.5-0.3-0.6l-7.5-8c-0.3-0.4-0.9-0.4-1.3,0c-0.4,0.3-0.4,1,0,1.3l6,6.4h-24
		c-0.5,0-0.9,0.4-0.9,0.9s0.4,0.9,0.9,0.9h24l-6,6.4c-0.3,0.4-0.3,1,0,1.3c0.4,0.4,1,0.3,1.3,0l7.5-8
		C558.7,974.3,558.8,974.1,558.8,973.9z"/>
</g>
<g transform="translate(0,-952.36218)">
	<path class="st4" d="M16.3,1055.9c0.2,0,0.5-0.1,0.6-0.3l8-7.5c0.4-0.3,0.4-0.9,0-1.3c-0.3-0.4-1-0.4-1.3,0l-6.4,6v-24
		c0-0.5-0.4-0.9-0.9-0.9s-0.9,0.4-0.9,0.9v24l-6.4-6c-0.4-0.3-1-0.3-1.3,0c-0.4,0.4-0.3,1,0,1.3l8,7.5
		C15.8,1055.8,16,1055.9,16.3,1055.9z"/>
</g>
<g transform="translate(0,-952.36218)">
	<path class="st4" d="M128.7,1026.2c-0.2,0-0.5,0.1-0.6,0.3l-8,7.5c-0.4,0.3-0.4,0.9,0,1.3c0.3,0.4,1,0.4,1.3,0l6.4-6v24
		c0,0.5,0.4,0.9,0.9,0.9s0.9-0.4,0.9-0.9v-24l6.4,6c0.4,0.3,1,0.3,1.3,0c0.4-0.4,0.3-1,0-1.3l-8-7.5
		C129.1,1026.2,128.9,1026.2,128.7,1026.2z"/>
</g>
<g>
	<path class="st5" d="M239.1,101H223c-0.4,0-0.7-0.3-0.7-0.7s0.3-0.7,0.7-0.7h15.5V73.5H223c-0.4,0-0.7-0.3-0.7-0.7s0.3-0.7,0.7-0.7
		h16.2c0.4,0,0.7,0.3,0.7,0.7v27.6C239.8,100.7,239.5,101,239.1,101z M227.1,93.9c-0.2,0-0.4-0.1-0.6-0.3c-0.2-0.3-0.2-0.8,0.2-1
		l7.5-5.4h-24.9c-0.9,0-0.9-1.4,0-1.4h24.9l-7.5-5.4c-0.3-0.2-0.4-0.7-0.2-1s0.7-0.4,1-0.2l9.3,6.7c0.2,0.1,0.3,0.4,0.3,0.6
		s-0.1,0.4-0.3,0.6l-9.3,6.7C227.3,93.8,227.2,93.9,227.1,93.9z"/>
</g>
<g transform="translate(0,-952.36218)">
	<path class="st2" d="M274.2,1021.4v35h20.6c2-2.1,4.1-4.2,5.9-5.9v-29.1H274.2L274.2,1021.4z M275.7,1023H299v26.4h-5.4v5.4h-17.9
		V1023L275.7,1023z M279.6,1027.2v1.6h15.6v-1.6H279.6z M279.6,1034.2v1.6h15.6v-1.6H279.6z M279.6,1041.2v1.6h15.6v-1.6H279.6z
		 M279.6,1048.2v1.6h10.1v-1.6H279.6z M295.2,1051h2.8l-2.8,2.8V1051z"/>
</g>
<g>
	<path class="st2" d="M364.6,68h-33.4c-0.4,0-0.8,0.3-0.8,0.8v33.4c0,0.4,0.3,0.8,0.8,0.8h33.4c0.4,0,0.8-0.3,0.8-0.8V68.8
		C365.3,68.4,365,68,364.6,68z M331.9,69.6h19.4v3.1h-19.4V69.6z M363.8,101.5h-31.9V74.3h31.9V101.5z M363.8,72.7h-10.9v-3.1h10.9
		V72.7z M362.2,71.1c0,0.2-0.1,0.4-0.2,0.5s-0.4,0.2-0.5,0.2c0,0-0.1,0-0.2,0s-0.1,0-0.2,0s-0.1,0-0.1-0.1c0,0-0.1,0-0.1-0.1
		s-0.1-0.1-0.1-0.1s0-0.1-0.1-0.1c0,0,0-0.1,0-0.2c0,0,0-0.1,0-0.2c0-0.2,0.1-0.4,0.2-0.5l0.1-0.1c0,0,0.1,0,0.1-0.1
		c0,0,0.1,0,0.2,0c0.3,0,0.5,0,0.7,0.2C362.1,70.8,362.2,71,362.2,71.1z M359.1,71.1c0,0.2-0.1,0.4-0.2,0.5l-0.1,0.1
		c0,0-0.1,0-0.1,0.1c0,0-0.1,0-0.2,0c0,0-0.1,0-0.2,0c-0.2,0-0.4-0.1-0.5-0.2c-0.2-0.1-0.2-0.3-0.2-0.5s0.1-0.4,0.2-0.5
		c0.2-0.2,0.4-0.3,0.7-0.2c0,0,0.1,0,0.2,0c0,0,0.1,0,0.1,0.1l0.1,0.1C359,70.8,359.1,71,359.1,71.1z M356,71.1
		c0,0.2-0.1,0.4-0.2,0.5l-0.1,0.1c0,0-0.1,0-0.1,0.1c0,0-0.1,0-0.2,0c0,0-0.1,0-0.2,0c-0.2,0-0.4-0.1-0.5-0.2
		c-0.2-0.1-0.2-0.3-0.2-0.5c0,0,0-0.1,0-0.2c0,0,0-0.1,0-0.2c0,0,0-0.1,0.1-0.1c0,0,0-0.1,0.1-0.1s0.1-0.1,0.1-0.1s0.1,0,0.1-0.1
		c0,0,0.1,0,0.2,0s0.2,0,0.3,0c0,0,0.1,0,0.2,0c0,0,0.1,0,0.1,0.1l0.1,0.1C355.9,70.8,356,71,356,71.1z M359.5,78.5
		c-0.7-0.7-1.8-1.1-2.8-1.1c-0.9,0-1.7,0.3-2.3,0.8h-18.7c-0.4,0-0.8,0.3-0.8,0.8c0,0.4,0.4,0.8,0.8,0.8h17l-1,1l-6.8,6.8h-9.3
		c-0.4,0-0.8,0.3-0.8,0.8s0.4,0.8,0.8,0.8h7.7l-2.8,2.8c-0.1,0.1-0.2,0.3-0.2,0.4l-0.7,4.6h-4c-0.4,0-0.8,0.3-0.8,0.8
		c0,0.4,0.4,0.8,0.8,0.8h4.7h0.1l0,0l0,0l5.2-0.8c0.2,0,0.3-0.1,0.4-0.2l11.1-11.1l2.2-2.2C361.1,82.5,361.1,80.1,359.5,78.5z
		 M345.3,96l-4,0.6l0.6-4l10.9-10.9l3.3,3.3L345.3,96z M358.4,82.9l-1.1,1.1l-3.3-3.3l1-1l0.1-0.1c0.3-0.3,0.5-0.4,0.9-0.5
		c0.2-0.1,0.5-0.1,0.8-0.1c0.6,0,1.2,0.2,1.7,0.7C359.3,80.5,359.3,82,358.4,82.9z"/>
</g>
<g>
	<g>
		<g>
			<path class="st2" d="M423,81.4c0,0.9,0,1.7,0,2.6c0,1.4,0,2.7,0,4.1c0,0.3,0,0.6,0,1s0.4,0.8,0.8,0.8s0.8-0.4,0.8-0.8
				c0-0.9,0-1.7,0-2.6c0-1.4,0-2.7,0-4.1c0-0.3,0-0.6,0-1s-0.4-0.8-0.8-0.8S423,81,423,81.4L423,81.4z"/>
		</g>
	</g>
	<g>
		<g>
			<path class="st2" d="M419.8,86c0.9,0,1.7,0,2.6,0c1.4,0,2.7,0,4.1,0c0.3,0,0.6,0,1,0s0.8-0.4,0.8-0.8s-0.4-0.8-0.8-0.8
				c-0.9,0-1.7,0-2.6,0c-1.4,0-2.7,0-4.1,0c-0.3,0-0.6,0-1,0s-0.8,0.4-0.8,0.8C419,85.7,419.3,86,419.8,86L419.8,86z"/>
		</g>
	</g>
	<g>
		<g>
			<path class="st2" d="M416.7,77.7c0,0.2,0,0.4,0,0.6c0,0.1,0,0.2,0,0.3c0,0,0,0,0,0.1s0,0.1,0,0c0,0,0,0.1,0,0.2
				c-0.1,0.4-0.2,0.8-0.3,1.2c-0.1,0.2-0.1,0.4-0.2,0.5c-0.1,0.2,0.1-0.2,0,0v0.1c0,0.1-0.1,0.2-0.1,0.3c-0.2,0.4-0.4,0.7-0.6,1
				c0,0.1-0.1,0.2-0.2,0.2c0.1-0.1,0.1-0.1,0,0l-0.1,0.1c-0.1,0.2-0.3,0.3-0.4,0.5c-0.1,0.1-0.2,0.2-0.4,0.4
				c-0.1,0.1-0.1,0.1-0.2,0.2l-0.1,0.1c0,0-0.1,0-0.1,0.1c0.1-0.1,0.1-0.1,0,0c-0.3,0.2-0.6,0.4-1,0.6c-0.2,0.1-0.3,0.2-0.5,0.2
				c0,0-0.1,0-0.1,0.1c-0.2,0.1,0.2-0.1,0,0c-0.1,0-0.2,0.1-0.3,0.1c-0.4,0.1-0.8,0.2-1.1,0.3c-0.1,0-0.2,0-0.3,0c0,0-0.1,0-0.2,0
				c0.1,0,0.1,0,0,0c-0.2,0-0.4,0-0.7,0.1c-0.4,0-0.8,0-1.2-0.1c-0.2,0,0.2,0,0,0h-0.1c-0.1,0-0.2,0-0.3-0.1c-0.2,0-0.4-0.1-0.6-0.1
				c-0.2-0.1-0.4-0.1-0.5-0.2c-0.1,0-0.2-0.1-0.3-0.1c-0.2-0.1,0.1,0.1,0,0c-0.1,0-0.1,0-0.2-0.1c-0.4-0.2-0.7-0.4-1-0.6
				c-0.1-0.1-0.4-0.2-0.5-0.3c0,0,0.1,0.1,0,0l-0.1-0.1c-0.1-0.1-0.2-0.1-0.2-0.2c-0.3-0.3-0.6-0.5-0.8-0.8l-0.1-0.1
				c-0.1-0.1,0.1,0.1,0,0s-0.1-0.2-0.2-0.2c-0.1-0.2-0.2-0.3-0.3-0.5s-0.2-0.3-0.3-0.5c0-0.1-0.1-0.2-0.1-0.2s0-0.1-0.1-0.1
				c-0.1-0.2,0.1,0.2,0,0c-0.1-0.4-0.3-0.7-0.4-1.1c0-0.2-0.1-0.4-0.1-0.6v-0.1c0-0.1,0,0.2,0,0c0-0.1,0-0.2,0-0.3
				c0-0.4,0-0.8,0-1.2c0-0.1,0-0.2,0-0.3c0-0.1,0,0,0,0s0-0.1,0-0.2c0-0.2,0.1-0.4,0.1-0.6c0.1-0.4,0.2-0.7,0.4-1.1
				c0-0.1-0.1,0.2,0,0c0,0,0-0.1,0.1-0.1c0-0.1,0.1-0.2,0.1-0.2c0.1-0.2,0.2-0.4,0.3-0.5c0.1-0.2,0.2-0.3,0.3-0.5
				c0.1-0.1,0.1-0.1,0.2-0.2s-0.1,0.1,0,0c0-0.1,0.1-0.1,0.1-0.2c0.2-0.3,0.5-0.6,0.8-0.8c0.1-0.1,0.1-0.1,0.2-0.2l0.1-0.1
				c0,0,0.1-0.1,0,0c0.1-0.1,0.4-0.3,0.5-0.4c0.3-0.2,0.7-0.4,1-0.6h0.1c0.2-0.1-0.2,0.1,0,0c0.1,0,0.2-0.1,0.2-0.1
				c0.2-0.1,0.4-0.1,0.6-0.2c0.2,0,0.3-0.1,0.5-0.1c0.1,0,0.2,0,0.3-0.1h0.1c0.1,0,0.1,0,0,0h0.1c0.4,0,0.8-0.1,1.2,0
				c0.2,0,0.4,0,0.6,0c0.1,0,0.1,0,0,0c0,0,0.1,0,0.2,0s0.2,0,0.3,0.1c0.4,0.1,0.8,0.2,1.1,0.3c0.1,0,0.2,0.1,0.2,0.1
				c0.2,0.1-0.2-0.1,0,0c0,0,0.1,0,0.1,0.1c0.2,0.1,0.3,0.2,0.5,0.3c0.2,0.1,0.3,0.2,0.5,0.3c0.1,0.1,0.4,0.2,0.5,0.3
				c-0.1-0.1-0.1,0,0,0c0,0,0.1,0,0.1,0.1c0.1,0.1,0.2,0.1,0.2,0.2c0.1,0.1,0.3,0.3,0.4,0.4s0.3,0.3,0.4,0.4c0,0,0,0.1,0.1,0.1
				c0,0.1,0.2,0.1,0,0c0.1,0.1,0.1,0.2,0.2,0.3c0.2,0.3,0.4,0.6,0.6,1c0,0.1,0.1,0.2,0.1,0.3c0,0,0,0.1,0.1,0.1c0.1,0.2-0.1-0.2,0,0
				s0.1,0.4,0.2,0.6c0.1,0.4,0.2,0.8,0.3,1.2c0,0,0,0.1,0,0.2v-0.1v0.1c0,0.1,0,0.2,0,0.3C416.7,77.3,416.7,77.5,416.7,77.7
				c0,0.4,0.4,0.8,0.8,0.8s0.8-0.4,0.8-0.8c0-1.8-0.5-3.5-1.6-5c-1-1.5-2.5-2.6-4.2-3.2c-3.4-1.2-7.3-0.2-9.6,2.6
				c-1.2,1.4-1.9,3.1-2,4.9s0.3,3.6,1.2,5.1c0.9,1.5,2.2,2.7,3.8,3.4c1.7,0.8,3.5,1,5.4,0.6c3.5-0.7,6.3-3.6,6.8-7.1
				c0.1-0.5,0.1-0.9,0.1-1.4c0-0.4-0.4-0.8-0.8-0.8C417,76.9,416.7,77.3,416.7,77.7z"/>
		</g>
	</g>
	<g>
		<g>
			<path class="st2" d="M423,93.7c0,1.6,0,3.2,0,4.8c0,0.6,0,1.2,0,1.7c0,0.1,0,0.1,0,0.2v0.1c0,0.2,0-0.1,0,0
				c0,0.2-0.1,0.4-0.1,0.5v0.1V101v0.1c0,0.1-0.1,0.2-0.1,0.2c0,0.1-0.1,0.1-0.1,0.2c-0.1,0.1,0,0.1,0,0l-0.1,0.1
				c-0.1,0.1-0.2,0.2-0.4,0.4c-0.1,0.1,0,0,0,0l-0.1,0.1c-0.1,0-0.1,0.1-0.2,0.1l-0.2,0.1h0.1h-0.1h-0.1c-0.1,0-0.2,0-0.3,0.1h-0.1
				h-0.1c0.1,0,0.1,0,0.1,0c-0.8,0-1.6,0-2.3,0c-1.7,0-3.4,0-5.2,0c-2.1,0-4.2,0-6.4,0c-1.9,0-3.8,0-5.6,0c-1,0-2,0-3,0
				c-0.1,0-0.3,0-0.4,0c-0.2,0,0.2,0,0,0h-0.1c-0.1,0-0.2,0-0.3-0.1c0,0-0.2-0.1-0.3-0.1c0,0,0.2,0.1,0,0c0,0-0.1,0-0.1-0.1
				c-0.1,0-0.2-0.1-0.2-0.1l-0.1-0.1c-0.1-0.1,0,0,0,0c-0.1,0-0.2-0.1-0.2-0.2c-0.1-0.1-0.1-0.1-0.2-0.2c0,0,0-0.1-0.1-0.1
				c-0.1-0.1,0.1,0.1,0,0c0-0.1-0.1-0.1-0.1-0.2s-0.1-0.2-0.1-0.2s0-0.1-0.1-0.1c0-0.1,0,0,0,0.1v-0.1c-0.1-0.2-0.1-0.3-0.1-0.5
				c0-0.1,0-0.1,0,0v-0.1c0-0.1,0-0.1,0-0.2c0-0.2,0-0.3,0-0.5c0-1.8,0-3.7,0-5.5c0-0.2,0-0.3,0-0.5c0-0.4,0-0.8,0.1-1.2
				c0,0,0,0.2,0,0c0-0.1,0-0.1,0-0.2s0-0.2,0-0.3c0-0.2,0.1-0.4,0.1-0.6c0.1-0.4,0.2-0.8,0.4-1.1c0,0,0.1-0.2,0-0.1s0-0.1,0-0.1
				c0-0.1,0.1-0.2,0.1-0.3c0.1-0.2,0.2-0.4,0.3-0.5c0.2-0.3,0.4-0.7,0.6-1c0-0.1,0.2-0.3,0.1-0.1c0.1-0.1,0.1-0.2,0.2-0.2
				c0.1-0.2,0.3-0.3,0.4-0.5c0.3-0.3,0.5-0.5,0.8-0.8c0.1-0.1,0.2-0.1,0.2-0.2c0.1-0.1,0,0,0,0l0.1-0.1c0.2-0.1,0.3-0.2,0.5-0.3
				c0.4-0.2,0.5-0.7,0.3-1.1s-0.7-0.5-1.1-0.3c-2.9,1.9-4.8,5.2-4.8,8.7c0,1.7,0,3.3,0,5c0,0.6,0,1.2,0,1.7c0,1.7,1.2,3.3,2.9,3.7
				c0.4,0.1,0.9,0.1,1.3,0.1c0.5,0,1,0,1.5,0c1.7,0,3.5,0,5.2,0c2.2,0,4.3,0,6.5,0c1.9,0,3.8,0,5.7,0c1,0,2,0,2.9,0
				c1.1,0,2.3-0.5,3-1.4c0.6-0.7,0.9-1.5,0.9-2.4c0-0.2,0-0.3,0-0.5c0-1.9,0-3.7,0-5.6c0-0.2,0-0.3,0-0.5c0-0.4-0.4-0.8-0.8-0.8
				C423.4,92.9,423,93.2,423,93.7L423,93.7z"/>
		</g>
	</g>
</g>
<g>
	<g>
		<g>
			<path class="st2" d="M472.1,75.4c0,0.1,0,0.3,0,0.4c0,0.3,0-0.1,0,0.1V76c0,0.2-0.1,0.4-0.2,0.6c0,0,0,0.1-0.1,0.1
				c0.1-0.1,0.1-0.1,0,0c0,0.1-0.1,0.2-0.1,0.3c0,0.1-0.1,0.2-0.1,0.2s0,0.1-0.1,0.1s0,0.1-0.1,0.1c-0.1,0.1,0,0.1,0,0
				c0,0.1-0.1,0.2-0.2,0.2c-0.1,0.1-0.1,0.1-0.2,0.2s-0.1,0.1-0.2,0.2l-0.1,0.1c0.1-0.1,0.1-0.1,0,0c0,0-0.1,0-0.1,0.1
				c-0.2,0.1-0.3,0.2-0.5,0.3c0,0-0.1,0-0.1,0.1c-0.1,0-0.1,0.1,0,0c-0.1,0.1-0.2,0.1-0.3,0.1c-0.2,0.1-0.4,0.1-0.6,0.1
				c0,0,0,0-0.1,0s-0.1,0,0.1,0H469c-0.1,0-0.2,0-0.4,0c-0.1,0-0.2,0-0.3,0h-0.2c0,0,0.2,0,0.1,0c-0.2,0-0.4-0.1-0.6-0.1
				c-0.1,0-0.2-0.1-0.3-0.1c-0.2-0.1,0.2,0.1,0,0c0,0-0.1,0-0.1-0.1c-0.2-0.1-0.4-0.2-0.5-0.3l-0.1-0.1c0.1,0.1,0.1,0.1,0,0
				s-0.1-0.1-0.2-0.2s-0.1-0.1-0.2-0.2l-0.1-0.1c0,0-0.2-0.2-0.1-0.1s0,0,0-0.1l-0.1-0.1c-0.1-0.1-0.1-0.2-0.1-0.2
				c0-0.1-0.1-0.2-0.1-0.3v-0.1c0,0.1,0.1,0.1,0,0v-0.1c-0.1-0.2-0.1-0.4-0.2-0.6c0-0.1-0.1-0.4,0-0.1c0-0.2,0-0.3,0-0.5
				c0-0.1,0-0.2,0-0.3V75c0-0.2,0,0,0,0s0-0.3,0.1-0.3c0-0.1,0.1-0.2,0.1-0.3c0-0.1,0.1-0.2,0.1-0.3c0.1-0.2-0.1,0.2,0,0V74
				c0.1-0.2,0.2-0.4,0.3-0.5l0.1-0.1c0.1-0.1,0,0,0,0s0.1-0.2,0.2-0.2c0.1-0.1,0.3-0.3,0.4-0.4s-0.2,0.1,0,0c0,0,0.1,0,0.1-0.1
				c0.1-0.1,0.2-0.1,0.3-0.2c0.1,0,0.2-0.1,0.2-0.1s0.1,0,0.1-0.1h0.1c-0.1,0-0.1,0.1-0.1,0c0.2-0.1,0.4-0.1,0.6-0.2
				c0.1,0,0.2,0,0.3-0.1c0.1,0,0,0-0.1,0h0.2c0.2,0,0.4,0,0.6,0h0.1c0.1,0,0.2,0.1,0,0c0.1,0,0.2,0,0.3,0.1c0.1,0,0.2,0.1,0.3,0.1
				h0.1h0.1c0.1,0,0.1,0,0,0c0.1,0,0.2,0.1,0.3,0.1c0.1,0.1,0.2,0.1,0.3,0.2c0.1,0.1,0.2,0.1,0.3,0.2c0.2,0.1-0.1-0.1,0,0l0.1,0.1
				c0.2,0.1,0.3,0.3,0.5,0.5c0.1,0.1-0.1-0.2,0,0l0.1,0.1c0.1,0.1,0.1,0.2,0.2,0.3c0.1,0.1,0.1,0.2,0.2,0.3c0,0,0.1,0.2,0,0.1
				c0-0.1,0,0.1,0,0.1c0.1,0.2,0.1,0.4,0.2,0.7V75c-0.1-0.2,0,0,0,0.1C472,75.2,472.1,75.3,472.1,75.4c0,0.4,0.4,0.9,0.8,0.8
				c0.5,0,0.9-0.4,0.8-0.8c0-2.1-1.3-3.9-3.3-4.7c-1.9-0.8-4.1-0.2-5.5,1.3c-1.5,1.6-1.8,4-0.7,5.9c0.5,0.9,1.2,1.6,2.1,2
				c1,0.5,2.1,0.6,3.2,0.5c1.1-0.2,2.1-0.8,2.9-1.6c0.8-0.9,1.3-2.1,1.3-3.4c0-0.4-0.4-0.9-0.8-0.8
				C472.4,74.6,472.1,74.9,472.1,75.4z"/>
		</g>
	</g>
	<g>
		<g>
			<path class="st2" d="M484.5,87.8c0,0.1,0,0.2,0,0.3v0.1c0,0.2,0-0.1,0,0c0,0.2-0.1,0.4-0.1,0.6l-0.1,0.3c0,0,0.1-0.2,0,0
				c0,0.1,0,0.1-0.1,0.2c-0.1,0.2-0.2,0.4-0.3,0.5c0,0,0,0.1-0.1,0.1c-0.1,0.2,0.1-0.1,0,0s-0.1,0.1-0.2,0.2s-0.1,0.1-0.2,0.2
				c0,0-0.2,0.2-0.3,0.2c0,0,0.1-0.1,0,0l-0.1,0.1c-0.1,0.1-0.2,0.1-0.2,0.1c-0.1,0-0.2,0.1-0.2,0.1c-0.1,0-0.1,0-0.2,0.1
				c-0.2,0.1,0.2-0.1,0,0s-0.4,0.1-0.5,0.2c-0.1,0-0.2,0-0.3,0.1c-0.2,0,0.2,0,0,0c-0.1,0-0.1,0-0.2,0c-0.2,0-0.5,0-0.7,0
				c-0.1,0,0.2,0,0,0c-0.1,0-0.1,0-0.2,0s-0.2,0-0.3-0.1c-0.1,0-0.2-0.1-0.3-0.1h-0.1c-0.2-0.1,0.2,0.1,0,0s-0.4-0.2-0.5-0.3
				c-0.1,0-0.2-0.1-0.2-0.2c0,0.1,0.1,0.1,0,0l-0.1-0.1c-0.2-0.1-0.3-0.3-0.4-0.4c0,0-0.1-0.2,0,0c0.1,0.1,0,0,0-0.1
				c-0.1-0.1-0.1-0.2-0.2-0.2c-0.1-0.1-0.1-0.2-0.1-0.2c0-0.1-0.1-0.1-0.1-0.2v-0.1c0-0.1,0,0,0,0.1c-0.1-0.1-0.1-0.2-0.1-0.3
				c0-0.1-0.1-0.2-0.1-0.3c0-0.1,0-0.2-0.1-0.3c0-0.1,0-0.1,0-0.2c0,0.2,0,0.1,0,0c0-0.2,0-0.4,0-0.6c0-0.1,0-0.1,0-0.1
				c0-0.2,0,0.2,0,0c0-0.1,0-0.2,0.1-0.3s0.1-0.2,0.1-0.3c0-0.1,0-0.2,0.1-0.3c0,0-0.1,0.2,0,0c0-0.1,0-0.1,0.1-0.2s0.1-0.2,0.2-0.3
				c0.1-0.1,0.1-0.2,0.2-0.2l0.1-0.1c0,0,0,0.1-0.1,0.1c0,0,0-0.1,0.1-0.1c0.1-0.2,0.3-0.3,0.4-0.4l0.1-0.1c0.1,0,0.1-0.1,0,0
				c0.1-0.1,0.2-0.1,0.2-0.2c0.2-0.1,0.4-0.2,0.5-0.3c0.2-0.1-0.2,0.1,0,0h0.1c0.1,0,0.2-0.1,0.3-0.1c0.1,0,0.2-0.1,0.3-0.1
				c0.1,0,0.1,0,0.2,0s0.2,0,0,0c0.2,0,0.5,0,0.7,0h0.1c0,0,0,0,0.1,0s0.1,0-0.1,0l0.3,0.1c0.1,0,0.2,0.1,0.3,0.1l0.3,0.1h-0.1h0.1
				c0.1,0,0.1,0,0.1,0.1c0.1,0.1,0.2,0.1,0.3,0.2c0.1,0.1,0.2,0.1,0.3,0.2c0.2,0.1-0.1-0.1,0,0l0.1,0.1c0.2,0.1,0.3,0.3,0.5,0.5
				c0.1,0.1-0.1-0.1,0,0c0,0.1,0.1,0.1,0.1,0.2c0.1,0.1,0.1,0.2,0.2,0.3c0.1,0.1,0.1,0.2,0.2,0.3c0,0,0.1,0.1,0,0.1
				c0-0.1-0.1-0.1,0,0V87c0.1,0.2,0.1,0.4,0.2,0.7L484.5,87.8C484.5,87.6,484.6,87.8,484.5,87.8C484.5,87.6,484.5,87.7,484.5,87.8
				c0,0.4,0.4,0.9,0.8,0.8c0.5,0,0.9-0.4,0.8-0.8c0-2.1-1.3-4-3.3-4.7c-1.9-0.8-4.3-0.1-5.6,1.5c-0.7,0.8-1.1,1.8-1.2,2.9
				c-0.1,1,0.2,2.1,0.7,2.9c1.1,1.8,3.3,2.8,5.5,2.3c2.3-0.5,3.9-2.6,3.9-4.9c0-0.4-0.4-0.9-0.8-0.8C484.9,87,484.5,87.3,484.5,87.8
				z"/>
		</g>
	</g>
	<g>
		<g>
			<path class="st2" d="M472.1,100.3c0,0.1,0,0.2,0,0.3c0,0.1,0,0.1,0,0.2c0,0.2,0-0.1,0,0c0,0.2-0.1,0.4-0.1,0.6
				c0,0.1-0.1,0.2-0.1,0.3c0,0.1,0.1-0.2,0,0c0,0.1,0,0.1-0.1,0.2c-0.1,0.2-0.2,0.4-0.3,0.5c0,0,0,0.1-0.1,0.1c-0.1,0.2,0.1-0.1,0,0
				s-0.1,0.1-0.2,0.2s-0.1,0.1-0.2,0.2c0,0-0.2,0.2-0.3,0.2c0,0,0.1-0.1,0,0l-0.1,0.1c-0.1,0.1-0.2,0.1-0.2,0.1
				c-0.1,0-0.2,0.1-0.2,0.1s-0.1,0-0.1,0.1c-0.2,0.1,0.1,0,0,0c-0.2,0.1-0.4,0.1-0.5,0.2c-0.1,0-0.2,0-0.3,0.1c-0.2,0,0.2,0,0,0
				c-0.1,0-0.1,0-0.2,0c-0.2,0-0.4,0-0.6,0c-0.1,0-0.1,0-0.2,0c-0.2,0,0.1,0,0.1,0l-0.3-0.1c-0.2,0-0.4-0.1-0.5-0.2
				c-0.2-0.1,0.2,0.1,0,0c0,0-0.1,0-0.1-0.1c-0.1,0-0.2-0.1-0.3-0.1c-0.1-0.1-0.2-0.1-0.3-0.2l-0.1-0.1c-0.2-0.1,0.1,0.1,0,0
				s-0.3-0.3-0.4-0.4l-0.2-0.2c0,0,0.1,0.2,0,0l-0.1-0.1c-0.1-0.2-0.2-0.3-0.3-0.5v-0.1c-0.1-0.2,0.1,0.2,0,0c0-0.1-0.1-0.2-0.1-0.3
				c0-0.1-0.1-0.2-0.1-0.3l-0.1-0.3c0,0,0,0.2,0,0.1s0-0.1,0-0.2s0-0.2,0-0.3c0-0.1,0-0.3,0-0.4c0-0.2,0,0.1,0-0.1
				c0-0.1,0-0.1,0-0.2c0-0.2,0.1-0.4,0.2-0.6c0,0,0-0.1,0.1-0.2c0,0-0.1,0.2,0,0c0.1-0.1,0.1-0.2,0.2-0.3c0-0.1,0.1-0.2,0.1-0.2
				c0-0.1,0.1-0.2,0.2-0.2c0,0,0,0.1-0.1,0.1c0,0,0-0.1,0.1-0.1c0,0,0-0.1,0.1-0.1c0.1-0.1,0.2-0.2,0.2-0.2c0.1-0.1,0.1-0.1,0.2-0.2
				c0.1,0,0.1-0.2,0,0l0.1-0.1c0.2-0.1,0.3-0.2,0.5-0.3c0,0,0.1,0,0.1-0.1c0.2-0.1-0.1,0.1,0,0c0.1,0,0.2-0.1,0.3-0.1
				c0.2-0.1,0.4-0.1,0.6-0.1c0.1,0,0,0-0.1,0c0,0,0.1,0,0.2,0s0.2,0,0.3,0s0.2,0,0.3,0h0.1c0.1,0,0.1,0,0,0h0.1
				c0.2,0,0.5,0.1,0.7,0.2h0.1h0.1c-0.1,0-0.1-0.1-0.1,0c0.1,0.1,0.2,0.1,0.3,0.2c0.1,0.1,0.2,0.1,0.3,0.2l0.1,0.1
				c0,0,0.1,0,0.1,0.1c0,0-0.1,0-0.1-0.1c0.1,0,0.2,0.2,0.3,0.2c0.1,0.1,0.2,0.2,0.2,0.2l0.1,0.1l0,0c0.1,0.1,0,0.1,0,0
				c0.1,0,0.2,0.2,0.2,0.3c0.1,0.1,0.1,0.2,0.2,0.3c0,0,0,0.1,0.1,0.1c0,0.1,0.1,0.2,0,0c0,0.2,0.2,0.4,0.2,0.7v0.1c0,0,0,0.3,0,0.1
				C472,100,472.1,100.1,472.1,100.3c0,0.4,0.4,0.9,0.8,0.8c0.5,0,0.9-0.4,0.8-0.8c0-2.2-1.4-4.1-3.5-4.8c-2-0.7-4.2,0-5.5,1.7
				c-0.7,0.9-1.1,1.9-1.1,3.1c0,1,0.3,2,0.8,2.9c1.2,1.7,3.3,2.6,5.4,2.1c2.3-0.5,3.9-2.6,3.9-4.9c0-0.4-0.4-0.9-0.8-0.8
				C472.4,99.5,472.1,99.8,472.1,100.3z"/>
		</g>
	</g>
	<g>
		<g>
			<path class="st2" d="M459.6,87.8c0,0.1,0,0.2,0,0.3v0.1v-0.1v0.1c0,0.2-0.1,0.4-0.1,0.6c0,0.1-0.1,0.2-0.1,0.3c0,0,0.1-0.2,0,0
				c0,0.1,0,0.1-0.1,0.2c-0.1,0.2-0.2,0.4-0.3,0.5c0,0,0,0.1-0.1,0.1c0,0,0-0.1,0.1-0.1c0,0,0,0.1-0.1,0.1c-0.1,0.1-0.1,0.1-0.2,0.2
				s-0.1,0.1-0.2,0.2l-0.1,0.1c0,0,0,0-0.1,0.1s-0.1,0,0,0c0,0.1-0.2,0.1-0.2,0.2c-0.1,0.1-0.2,0.1-0.2,0.1c-0.1,0-0.2,0.1-0.3,0.1
				c-0.1,0-0.2,0.1,0,0c-0.1,0-0.1,0-0.2,0.1c-0.2,0.1-0.4,0.1-0.6,0.2c-0.1,0-0.2,0-0.3,0.1c0.2,0,0,0-0.1,0s-0.1,0-0.2,0
				s-0.2,0-0.3,0h-0.1c0,0-0.2-0.1-0.1,0s0,0-0.1,0s-0.1,0-0.2,0s-0.2-0.1-0.3-0.1c-0.1,0-0.2-0.1-0.3-0.1c-0.1,0,0,0,0,0
				s-0.1-0.1-0.2-0.1c-0.2-0.1-0.4-0.2-0.5-0.3c0,0-0.1,0-0.1-0.1l0,0c-0.1-0.1-0.1,0,0,0l-0.2-0.2c-0.1-0.1-0.3-0.3-0.4-0.4
				s0.1,0.1,0,0l-0.1-0.1c-0.1-0.1-0.1-0.2-0.2-0.2c0-0.1-0.1-0.2-0.1-0.2c0-0.1-0.1-0.1-0.1-0.1v-0.1c0-0.1,0,0,0,0.1
				c0,0-0.1-0.2-0.1-0.3c0-0.1-0.1-0.2-0.1-0.3c0-0.1,0-0.2-0.1-0.3c0,0,0,0,0-0.1s0-0.1,0,0.1c0,0,0-0.1,0-0.2c0-0.2,0-0.4,0-0.6
				v-0.1c0,0,0,0,0-0.1s0-0.1,0,0.1l0.1-0.3c0-0.2,0.1-0.4,0.2-0.6c0-0.1,0,0,0,0s0.1-0.1,0.1-0.2s0.1-0.2,0.2-0.3
				c0-0.1,0.1-0.2,0.1-0.2s0-0.1,0.1-0.1l0,0c0.1-0.1,0-0.1,0,0l0.2-0.2c0.1-0.1,0.2-0.2,0.2-0.2c0.1-0.1,0.1-0.1,0.2-0.2
				s-0.1,0.1,0,0l0.1-0.1c0.2-0.1,0.3-0.2,0.5-0.3c0.1,0,0.1,0,0.2-0.1s0,0,0,0s0.2-0.1,0.3-0.1c0.2-0.1,0.4-0.1,0.6-0.1s-0.2,0,0,0
				h0.1c0.1,0,0.2,0,0.3,0c0.1,0,0.3,0,0.4,0c0,0,0.2,0,0,0c0.1,0,0.1,0,0.2,0c0.2,0,0.4,0.1,0.6,0.2c0.1,0,0.1,0,0.2,0.1
				c-0.2-0.1-0.1,0,0,0c0.1,0.1,0.2,0.1,0.3,0.2c0.1,0.1,0.2,0.1,0.3,0.2l0.1,0.1c-0.1-0.2,0,0,0,0c0.2,0.1,0.3,0.3,0.5,0.5l0.1,0.1
				c0,0.1,0,0,0-0.1c0,0,0,0.1,0.1,0.1c0.1,0.1,0.1,0.2,0.2,0.3c0.1,0.1,0.1,0.2,0.2,0.3v0.1c0,0.1,0,0.1,0,0v0.1
				c0.1,0.2,0.1,0.4,0.2,0.7v0.1c0,0.2,0-0.2,0,0C459.6,87.6,459.6,87.7,459.6,87.8c0,0.4,0.4,0.9,0.8,0.8c0.5,0,0.9-0.4,0.8-0.8
				c0-2.2-1.4-4.1-3.4-4.8c-2-0.7-4.3,0-5.5,1.6c-0.7,0.8-1,1.8-1.1,2.9c-0.1,1,0.2,2,0.7,2.9c1.1,1.8,3.3,2.8,5.4,2.3
				c2.3-0.5,4-2.6,4-4.9c0-0.4-0.4-0.9-0.8-0.8C460,87,459.6,87.3,459.6,87.8z"/>
		</g>
	</g>
	<g>
		<g>
			<path class="st2" d="M479.7,91.8c-0.1,0.2-0.1,0.3-0.2,0.5v0.1c0,0.1,0.1-0.1,0,0c0,0.1-0.1,0.2-0.1,0.3c-0.2,0.3-0.3,0.7-0.5,1
				s-0.4,0.6-0.6,0.9c-0.1,0.1-0.2,0.3-0.3,0.4l-0.1,0.1c0,0,0.1-0.2,0,0c-0.1,0.1-0.1,0.2-0.2,0.2c-0.4,0.5-0.9,1-1.5,1.5
				c-0.1,0.1-0.3,0.2-0.4,0.3l-0.1,0.1c0.2-0.1,0.1,0,0,0c-0.1,0.1-0.2,0.1-0.3,0.2c-0.3,0.2-0.6,0.4-0.9,0.6s-0.7,0.4-1,0.6
				c-0.1,0-0.2,0.1-0.3,0.1c0,0-0.1,0-0.1,0.1c-0.2,0.1,0.2-0.1,0,0s-0.4,0.2-0.6,0.2c-0.4,0.1-0.7,0.6-0.6,1s0.6,0.8,1,0.6
				c3-1.1,5.5-3.1,7.2-5.8c0.5-0.8,0.8-1.6,1.1-2.5c0.1-0.4-0.2-0.9-0.6-1C480.3,91.1,479.9,91.3,479.7,91.8L479.7,91.8z"/>
		</g>
	</g>
	<g>
		<g>
			<path class="st2" d="M472.6,76.8c0.2,0.1,0.3,0.1,0.5,0.2h0.1c0.1,0-0.1-0.1,0,0c0.1,0,0.2,0.1,0.3,0.1c0.3,0.2,0.7,0.3,1,0.5
				s0.6,0.4,0.9,0.6c0.1,0.1,0.3,0.2,0.4,0.3l0.1,0.1c0,0-0.2-0.1,0,0c0.1,0.1,0.2,0.1,0.2,0.2c0.5,0.4,1,0.9,1.5,1.5
				c0.1,0.1,0.2,0.3,0.3,0.4l0.1,0.1c-0.1-0.2,0-0.1,0,0c0.1,0.1,0.1,0.2,0.2,0.3c0.2,0.3,0.4,0.6,0.6,0.9s0.4,0.7,0.6,1
				c0,0.1,0.1,0.2,0.1,0.3c0,0,0,0.1,0.1,0.1c0.1,0.2-0.1-0.2,0,0s0.2,0.4,0.2,0.6c0.1,0.4,0.6,0.7,1,0.6s0.8-0.6,0.6-1
				c-1.1-3-3.1-5.5-5.8-7.2c-0.8-0.5-1.6-0.8-2.4-1.1c-0.4-0.1-0.9,0.2-1,0.6C471.9,76.2,472.2,76.6,472.6,76.8L472.6,76.8z"/>
		</g>
	</g>
	<g>
		<g>
			<path class="st2" d="M457.7,83.9c0.1-0.2,0.1-0.3,0.2-0.5v-0.1c0-0.1-0.1,0.1,0,0c0-0.1,0.1-0.2,0.1-0.3c0.2-0.3,0.3-0.7,0.5-1
				s0.4-0.6,0.6-0.9c0.1-0.1,0.2-0.3,0.3-0.4l0.1-0.1c0,0-0.1,0.2,0,0c0.1-0.1,0.1-0.2,0.2-0.2c0.4-0.5,0.9-1,1.5-1.5
				c0.1-0.1,0.3-0.2,0.4-0.3l0.1-0.1c-0.2,0.1-0.1,0,0,0c0.1-0.1,0.2-0.1,0.3-0.2c0.3-0.2,0.6-0.4,0.9-0.6s0.7-0.4,1-0.6
				c0.1,0,0.2-0.1,0.3-0.1c0,0,0.1,0,0.1-0.1c0.2-0.1-0.2,0.1,0,0s0.4-0.2,0.6-0.2c0.4-0.1,0.7-0.6,0.6-1s-0.6-0.8-1-0.6
				c-3,1.1-5.5,3.1-7.2,5.8c-0.5,0.8-0.8,1.6-1.1,2.4c-0.1,0.4,0.2,0.9,0.6,1C457.1,84.6,457.5,84.3,457.7,83.9L457.7,83.9z"/>
		</g>
	</g>
	<g>
		<g>
			<path class="st2" d="M464.8,98.9c-0.2-0.1-0.3-0.1-0.5-0.2h-0.1c-0.1,0,0.1,0.1,0,0c-0.1,0-0.2-0.1-0.3-0.1
				c-0.3-0.2-0.7-0.3-1-0.5s-0.6-0.4-0.9-0.6c-0.1-0.1-0.3-0.2-0.4-0.3l-0.1-0.1c0,0,0.2,0.1,0,0c-0.1-0.1-0.2-0.1-0.2-0.2
				c-0.5-0.4-1-0.9-1.5-1.5c-0.1-0.1-0.2-0.3-0.3-0.4l-0.1-0.1c0.1,0.2,0,0.1,0,0c-0.1-0.1-0.1-0.2-0.2-0.3
				c-0.2-0.3-0.4-0.6-0.6-0.9s-0.4-0.7-0.6-1c0-0.1-0.1-0.2-0.1-0.3c0,0,0-0.1-0.1-0.1c-0.1-0.2,0.1,0.2,0,0s-0.2-0.4-0.2-0.6
				c-0.1-0.4-0.6-0.7-1-0.6s-0.8,0.6-0.6,1c1.1,3,3.1,5.5,5.8,7.2c0.8,0.5,1.6,0.8,2.5,1.1c0.4,0.1,0.9-0.2,1-0.6
				C465.5,99.4,465.2,99,464.8,98.9L464.8,98.9z"/>
		</g>
	</g>
</g>
<g>
	<path class="st2" d="M17.1,133.9h-2.2c-2.5,0-4.2,1.7-4.2,4.3v2H8.4c-0.2,0-0.4,0.2-0.4,0.4v2.8c0,0.2,0.2,0.4,0.4,0.4h2.3v7.2
		c0,0.2,0.2,0.4,0.4,0.4H14c0.2,0,0.4-0.2,0.4-0.4v-7.2H17c0.2,0,0.4-0.2,0.4-0.4v-2.8c0-0.1,0-0.2-0.1-0.2
		c-0.1-0.1-0.2-0.1-0.2-0.1h-2.6v-1.7c0-0.8,0.2-1.2,1.2-1.2h1.5c0.2,0,0.4-0.2,0.4-0.4v-2.6C17.4,134.1,17.3,133.9,17.1,133.9z"/>
</g>
<g>
	<path class="st2" d="M86.2,145h3.4c-0.6,1.7-2.2,2.9-4.1,2.9c-2.3,0-4.2-1.8-4.3-4.1c-0.1-2.4,1.9-4.5,4.3-4.5
		c1.1,0,2.1,0.4,2.9,1.1c0.2,0.2,0.5,0.2,0.6,0l1.2-1.2c0.2-0.2,0.2-0.5,0-0.7c-1.2-1.1-2.8-1.9-4.6-1.9c-3.8-0.1-7,3.1-7.1,6.9
		c0,3.9,3.1,7,6.9,7c3.7,0,6.7-2.9,6.9-6.5v-1.6H86c-0.3,0-0.5,0.2-0.5,0.5v1.7C85.7,144.8,85.9,145,86.2,145z"/>
	<path class="st2" d="M98.2,142.6v-1.7c0-0.2-0.2-0.4-0.4-0.4h-1.4c-0.2,0-0.4,0.2-0.4,0.4v1.7h-1.7c-0.2,0-0.4,0.2-0.4,0.4v1.4
		c0,0.2,0.2,0.4,0.4,0.4H96v1.7c0,0.2,0.2,0.4,0.4,0.4h1.4c0.2,0,0.4-0.2,0.4-0.4v-1.7h1.7c0.2,0,0.4-0.2,0.4-0.4V143
		c0-0.2-0.2-0.4-0.4-0.4H98.2L98.2,142.6z"/>
</g>
<g>
	<path class="st6" d="M24.5,335.8h-1.9c-0.3,0-0.6-0.2-0.7-0.4c-0.1-0.3-0.1-0.6,0.2-0.8l1.3-1.3c0.2-0.2,0.3-0.5,0.3-0.7
		c0-0.3-0.1-0.5-0.3-0.7l-1.7-1.7c-0.4-0.4-1.1-0.4-1.5,0l-1.3,1.3c-0.2,0.2-0.5,0.3-0.8,0.2c-0.3-0.1-0.4-0.4-0.4-0.7v-2
		c0-0.6-0.5-1-1-1h-2.4c-0.6,0-1,0.5-1,1v1.9c0,0.3-0.2,0.6-0.4,0.7c-0.3,0.1-0.6,0.1-0.8-0.2l-1.3-1.3c-0.4-0.4-1.1-0.4-1.5,0
		l-1.7,1.7c-0.2,0.2-0.3,0.5-0.3,0.7c0,0.3,0.1,0.5,0.3,0.7l1.3,1.3c0.2,0.2,0.3,0.5,0.2,0.8s-0.4,0.4-0.7,0.4H6.5c-0.6,0-1,0.5-1,1
		v2.4c0,0.6,0.5,1,1,1h1.9c0.3,0,0.6,0.2,0.7,0.4c0.1,0.3,0.1,0.6-0.2,0.8l-1.3,1.3c-0.2,0.2-0.3,0.5-0.3,0.7c0,0.3,0.1,0.5,0.3,0.7
		l1.7,1.7c0.4,0.4,1.1,0.4,1.5,0l1.3-1.3c0.2-0.2,0.5-0.3,0.8-0.2c0.3,0.1,0.4,0.4,0.4,0.7v1.9c0,0.6,0.5,1,1,1h2.4c0.6,0,1-0.5,1-1
		v-1.9c0-0.3,0.2-0.6,0.4-0.7c0.3-0.1,0.6-0.1,0.8,0.2l1.3,1.3c0.4,0.4,1.1,0.4,1.5,0l1.7-1.7c0.2-0.2,0.3-0.5,0.3-0.7
		c0-0.3-0.1-0.5-0.3-0.7l-1.3-1.3c-0.2-0.2-0.3-0.5-0.2-0.8c0.1-0.3,0.4-0.4,0.7-0.4h1.9c0.6,0,1-0.5,1-1v-2.4
		C25.6,336.2,25.1,335.8,24.5,335.8z M24.8,339.2c0,0.2-0.1,0.3-0.3,0.3h-1.9c-0.6,0-1.1,0.3-1.4,0.9c-0.2,0.6-0.1,1.2,0.3,1.6
		l1.3,1.3c0.1,0.1,0.1,0.3,0,0.4l-1.7,1.7c-0.1,0.1-0.3,0.1-0.4,0l-1.3-1.3c-0.4-0.4-1-0.5-1.6-0.3s-0.9,0.8-0.9,1.4v1.9
		c0,0.2-0.1,0.3-0.3,0.3h-2.4c-0.2,0-0.3-0.1-0.3-0.3v-1.9c0-0.6-0.3-1.1-0.9-1.4c-0.2-0.1-0.4-0.1-0.6-0.1c-0.4,0-0.7,0.1-1,0.4
		l-1.3,1.3c-0.1,0.1-0.3,0.1-0.4,0L8,343.7c-0.1-0.1-0.1-0.3,0-0.4l1.3-1.3c0.4-0.4,0.6-1,0.3-1.6c-0.2-0.6-0.8-0.9-1.4-0.9H6.5
		c-0.2,0-0.3-0.1-0.3-0.3v-2.4c0-0.2,0.1-0.3,0.3-0.3h1.9c0.6,0,1.1-0.3,1.4-0.9c0.2-0.6,0.1-1.2-0.3-1.6l-1.3-1.3
		c-0.1-0.1-0.1-0.3,0-0.4l1.7-1.7c0.1-0.1,0.3-0.1,0.4,0l1.3,1.3c0.4,0.4,1,0.6,1.6,0.3c0.6-0.2,0.9-0.8,0.9-1.4V329
		c0-0.2,0.1-0.3,0.3-0.3h2.4c0.2,0,0.3,0.1,0.3,0.3v1.9c0,0.6,0.3,1.1,0.9,1.4c0.6,0.2,1.2,0.1,1.6-0.3l1.3-1.3
		c0.1-0.1,0.3-0.1,0.4,0l1.7,1.7c0.1,0.1,0.1,0.3,0,0.4l-1.3,1.3c-0.4,0.4-0.6,1-0.3,1.6c0.2,0.6,0.8,0.9,1.4,0.9h1.9
		c0.2,0,0.3,0.1,0.3,0.3v2.3L24.8,339.2L24.8,339.2z"/>
	<path class="st6" d="M15.5,334.6c-1.9,0-3.4,1.5-3.4,3.4s1.5,3.4,3.4,3.4s3.4-1.5,3.4-3.4S17.4,334.6,15.5,334.6z M15.5,340.6
		c-1.4,0-2.6-1.2-2.6-2.6s1.2-2.6,2.6-2.6s2.6,1.2,2.6,2.6S16.9,340.6,15.5,340.6z"/>
</g>
<g>
	<path class="st7" d="M51.5,330.6c1.9,0.5,3.5,1.6,4.7,3.2c1.1,1.6,1.7,3.5,1.5,5.4c-0.2,2.2-1.2,4.2-2.9,5.6s-3.8,2.1-6,1.9
		s-4.2-1.2-5.6-2.9c-1.4-1.7-2.1-3.8-1.9-6c0.1-1.7,0.8-3.3,1.9-4.6c1.1-1.3,2.6-2.2,4.2-2.7c0.3-0.1,0.6,0.1,0.7,0.4
		c0.1,0.3-0.1,0.6-0.4,0.7c-1.4,0.4-2.7,1.2-3.6,2.3s-1.5,2.5-1.6,3.9c-0.2,1.9,0.4,3.7,1.6,5.1c1.2,1.4,2.9,2.3,4.8,2.5
		c1.9,0.2,3.7-0.4,5.1-1.6c1.4-1.2,2.3-2.9,2.5-4.8c0.1-1.7-0.3-3.3-1.3-4.7c-1-1.4-2.4-2.3-4-2.7c-0.1,0-0.3-0.1-0.4-0.3
		c-0.1-0.1-0.1-0.3-0.1-0.4s0.1-0.3,0.3-0.4C51.2,330.6,51.4,330.6,51.5,330.6L51.5,330.6z M50.1,328.5v6.2c0,0.3-0.3,0.6-0.6,0.6
		s-0.6-0.3-0.6-0.6v-6.2c0-0.3,0.3-0.6,0.6-0.6S50.1,328.2,50.1,328.5z"/>
</g>
<g>
	<path class="st8" d="M24.5,367.8h-1.9c-0.3,0-0.6-0.2-0.7-0.4c-0.1-0.3-0.1-0.6,0.2-0.8l1.3-1.3c0.2-0.2,0.3-0.5,0.3-0.7
		c0-0.3-0.1-0.5-0.3-0.7l-1.7-1.7c-0.4-0.4-1.1-0.4-1.5,0l-1.3,1.3c-0.2,0.2-0.5,0.3-0.8,0.2c-0.3-0.1-0.4-0.4-0.4-0.7v-2
		c0-0.6-0.5-1-1-1h-2.4c-0.6,0-1,0.5-1,1v1.9c0,0.3-0.2,0.6-0.4,0.7c-0.3,0.1-0.6,0.1-0.8-0.2l-1.3-1.3c-0.4-0.4-1.1-0.4-1.5,0
		l-1.7,1.7c-0.2,0.2-0.3,0.5-0.3,0.7c0,0.3,0.1,0.5,0.3,0.7l1.3,1.3c0.2,0.2,0.3,0.5,0.2,0.8s-0.4,0.4-0.7,0.4H6.5c-0.6,0-1,0.5-1,1
		v2.4c0,0.6,0.5,1,1,1h1.9c0.3,0,0.6,0.2,0.7,0.4c0.1,0.3,0.1,0.6-0.2,0.8l-1.3,1.3c-0.2,0.2-0.3,0.5-0.3,0.7c0,0.3,0.1,0.5,0.3,0.7
		l1.7,1.7c0.4,0.4,1.1,0.4,1.5,0l1.3-1.3c0.2-0.2,0.5-0.3,0.8-0.2c0.3,0.1,0.4,0.4,0.4,0.7v1.9c0,0.6,0.5,1,1,1h2.4c0.6,0,1-0.5,1-1
		v-1.9c0-0.3,0.2-0.6,0.4-0.7c0.3-0.1,0.6-0.1,0.8,0.2l1.3,1.3c0.4,0.4,1.1,0.4,1.5,0l1.7-1.7c0.2-0.2,0.3-0.5,0.3-0.7
		c0-0.3-0.1-0.5-0.3-0.7l-1.3-1.3c-0.2-0.2-0.3-0.5-0.2-0.8c0.1-0.3,0.4-0.4,0.7-0.4h1.9c0.6,0,1-0.5,1-1v-2.4
		C25.6,368.2,25.1,367.8,24.5,367.8z M24.8,371.2c0,0.2-0.1,0.3-0.3,0.3h-1.9c-0.6,0-1.1,0.3-1.4,0.9c-0.2,0.6-0.1,1.2,0.3,1.6
		l1.3,1.3c0.1,0.1,0.1,0.3,0,0.4l-1.7,1.7c-0.1,0.1-0.3,0.1-0.4,0l-1.3-1.3c-0.4-0.4-1-0.5-1.6-0.3s-0.9,0.8-0.9,1.4v1.9
		c0,0.2-0.1,0.3-0.3,0.3h-2.4c-0.2,0-0.3-0.1-0.3-0.3v-1.9c0-0.6-0.3-1.1-0.9-1.4c-0.2-0.1-0.4-0.1-0.6-0.1c-0.4,0-0.7,0.1-1,0.4
		l-1.3,1.3c-0.1,0.1-0.3,0.1-0.4,0L8,375.7c-0.1-0.1-0.1-0.3,0-0.4l1.3-1.3c0.4-0.4,0.6-1,0.3-1.6c-0.2-0.6-0.8-0.9-1.4-0.9H6.5
		c-0.2,0-0.3-0.1-0.3-0.3v-2.4c0-0.2,0.1-0.3,0.3-0.3h1.9c0.6,0,1.1-0.3,1.4-0.9c0.2-0.6,0.1-1.2-0.3-1.6l-1.3-1.3
		c-0.1-0.1-0.1-0.3,0-0.4l1.7-1.7c0.1-0.1,0.3-0.1,0.4,0l1.3,1.3c0.4,0.4,1,0.6,1.6,0.3c0.6-0.2,0.9-0.8,0.9-1.4V361
		c0-0.2,0.1-0.3,0.3-0.3h2.4c0.2,0,0.3,0.1,0.3,0.3v1.9c0,0.6,0.3,1.1,0.9,1.4c0.6,0.2,1.2,0.1,1.6-0.3l1.3-1.3
		c0.1-0.1,0.3-0.1,0.4,0l1.7,1.7c0.1,0.1,0.1,0.3,0,0.4l-1.3,1.3c-0.4,0.4-0.6,1-0.3,1.6c0.2,0.6,0.8,0.9,1.4,0.9h1.9
		c0.2,0,0.3,0.1,0.3,0.3v2.3L24.8,371.2L24.8,371.2z"/>
	<path class="st8" d="M15.5,366.6c-1.9,0-3.4,1.5-3.4,3.4s1.5,3.4,3.4,3.4s3.4-1.5,3.4-3.4S17.4,366.6,15.5,366.6z M15.5,372.6
		c-1.4,0-2.6-1.2-2.6-2.6s1.2-2.6,2.6-2.6s2.6,1.2,2.6,2.6S16.9,372.6,15.5,372.6z"/>
</g>
<g>
	<path class="st9" d="M51.5,362.6c1.9,0.5,3.5,1.6,4.7,3.2c1.1,1.6,1.7,3.5,1.5,5.4c-0.2,2.2-1.2,4.2-2.9,5.6s-3.8,2.1-6,1.9
		s-4.2-1.2-5.6-2.9c-1.4-1.7-2.1-3.8-1.9-6c0.1-1.7,0.8-3.3,1.9-4.6c1.1-1.3,2.6-2.2,4.2-2.7c0.3-0.1,0.6,0.1,0.7,0.4
		c0.1,0.3-0.1,0.6-0.4,0.7c-1.4,0.4-2.7,1.2-3.6,2.3s-1.5,2.5-1.6,3.9c-0.2,1.9,0.4,3.7,1.6,5.1c1.2,1.4,2.9,2.3,4.8,2.5
		c1.9,0.2,3.7-0.4,5.1-1.6c1.4-1.2,2.3-2.9,2.5-4.8c0.1-1.7-0.3-3.3-1.3-4.7c-1-1.4-2.4-2.3-4-2.7c-0.1,0-0.3-0.1-0.4-0.3
		c-0.1-0.1-0.1-0.3-0.1-0.4s0.1-0.3,0.3-0.4C51.2,362.6,51.4,362.6,51.5,362.6L51.5,362.6z M50.1,360.5v6.2c0,0.3-0.3,0.6-0.6,0.6
		s-0.6-0.3-0.6-0.6v-6.2c0-0.3,0.3-0.6,0.6-0.6S50.1,360.2,50.1,360.5z"/>
</g>
<g>
	<g>
		<path class="st9" d="M19.5,419.6c-0.1,2.1-1.9,3.8-4,3.8s-3.9-1.7-4-3.8H5.2c-0.7,0-1.3-0.6-1.3-1.3V417c0-1.5,1.2-2.7,2.7-2.7
			v-5.4c0-3.8,2.4-7.1,5.8-8.4v-0.1c0-1.7,1.4-3.1,3.1-3.1s3.1,1.4,3.1,3.1v0.1c3.5,1.3,5.8,4.6,5.8,8.4v5.4c1.5,0,2.7,1.2,2.7,2.7
			v1.3c0,0.7-0.6,1.3-1.3,1.3L19.5,419.6L19.5,419.6z M17.7,419.6h-4.5c0.1,1.1,1.1,2,2.2,2S17.6,420.7,17.7,419.6z M25.4,417.8
			v-0.9c0-0.5-0.4-0.9-0.9-0.9c-1,0-1.8-0.8-1.8-1.8v-5.4c0-3.2-2.1-6-5.2-6.9l-0.6-0.2v-1.4c0-0.7-0.6-1.3-1.3-1.3
			s-1.3,0.6-1.3,1.3v1.4l-0.6,0.2c-3,0.9-5.2,3.7-5.2,6.9v5.4c0,1-0.8,1.8-1.8,1.8c-0.5,0-0.9,0.4-0.9,0.9v0.9H25.4z"/>
	</g>
</g>
<g>
	<circle class="st2" cx="208.5" cy="150.8" r="16.4"/>
	<g>
		<g>
			<path class="st10" d="M220.3,139c-6.5-6.5-17.1-6.5-23.6,0s-6.5,17.1,0,23.6s17.1,6.5,23.6,0C226.9,156.1,226.9,145.5,220.3,139z
				 M215.1,157.4c-0.5,0.5-1.3,0.5-1.8,0l-4.8-4.8l-5,5c-0.5,0.5-1.3,0.5-1.8,0s-0.5-1.3,0-1.8l5-5l-4.8-4.8c-0.5-0.5-0.5-1.3,0-1.8
				s1.3-0.5,1.8,0l4.8,4.8l4.5-4.5c0.5-0.5,1.3-0.5,1.8,0s0.5,1.3,0,1.8l-4.5,4.5l4.8,4.8C215.6,156.1,215.6,156.9,215.1,157.4z"/>
		</g>
	</g>
</g>
<g>
	<g>
		<g>
			<path class="st7" d="M266.2,143.4c0-0.2,0.1-0.6,0.3-0.8l4.4-5.7c0.1-0.2,0.1-0.3-0.2-0.3h-11.3c-0.2,0-0.3,0.2-0.2,0.3l4.4,5.7
				c0.1,0.2,0.3,0.5,0.3,0.8v6.6c0,0.2,0.2,0.4,0.4,0.3l1.4-0.5c0.2-0.1,0.4-0.4,0.4-0.6v-5.8H266.2z M268,149.1
				c0,1-0.6,1.9-1.5,2.2l-1.4,0.5c-1.4,0.5-2.8-0.4-2.8-1.9v-6.4L258,138c-1-1.3-0.2-3.1,1.5-3.1h11.3c1.7,0,2.6,1.8,1.5,3.1
				l-4.4,5.6v5.5H268z"/>
		</g>
	</g>
</g>
<g>
	<g>
		<path class="st11" d="M344.8,136.2c-0.1-0.1-0.2-0.2-0.4-0.2h-10.8l0,0l0,0l0,0c-0.1,0-0.3,0.1-0.4,0.2l-2.7,4
			c-0.1,0.1-0.1,0.4,0,0.5l5.3,7.5c-3,1.2-5.1,4.2-5.1,7.7c0,4.6,3.7,8.3,8.3,8.3s8.3-3.7,8.3-8.3c0-3.5-2.2-6.5-5.2-7.7l5.3-7.5
			c0.1-0.1,0.1-0.4,0-0.5L344.8,136.2z M339.2,143.7l-1.8-2.7h3.6L339.2,143.7z M341.5,140.1h-4.7l-2.2-3.3h9.1L341.5,140.1z
			 M333.7,137.2l4.9,7.3l-2,3.1l-5.1-7.1L333.7,137.2z M346.5,155.4h-0.8c-0.3,0-0.4,0.2-0.4,0.4s0.2,0.4,0.4,0.4h0.8
			c-0.2,3.7-3.2,6.7-6.9,6.9v-0.8c0-0.3-0.2-0.4-0.4-0.4s-0.4,0.2-0.4,0.4v0.8c-3.7-0.2-6.7-3.2-6.9-6.9h0.8c0.3,0,0.4-0.2,0.4-0.4
			s-0.2-0.4-0.4-0.4h-0.8c0.2-3.7,3.2-6.7,6.9-6.9v0.8c0,0.3,0.2,0.4,0.4,0.4s0.4-0.2,0.4-0.4v-0.8
			C343.3,148.7,346.3,151.7,346.5,155.4z M341.4,147.8c-0.7-0.2-1.5-0.3-2.2-0.3c-0.5,0-1,0-1.5,0.1l6.8-10.4l2.2,3.2L341.4,147.8z"
			/>
	</g>
	<g>
		<path class="st11" d="M339.5,151.4c-0.1-0.4-0.7-0.4-0.8,0l-1,2.9h-3.1c-0.4,0-0.6,0.5-0.3,0.8l2.5,1.8l-0.9,2.9
			c-0.1,0.4,0.4,0.7,0.7,0.5l2.5-1.8l2.5,1.8c0.4,0.3,0.8-0.1,0.7-0.5l-1-2.9l2.5-1.8c0.4-0.3,0.2-0.8-0.3-0.8h-3.1L339.5,151.4z
			 M340.6,156.5c-0.2,0.1-0.2,0.3-0.2,0.5l0.7,2l-1.7-1.2c-0.1-0.1-0.4-0.1-0.5,0l-1.7,1.2l0.7-2c0-0.2,0-0.4-0.2-0.5l-1.7-1.2h2.1
			c0.2,0,0.4-0.1,0.4-0.3l0.7-2l0.7,2c0,0.2,0.2,0.3,0.4,0.3h2.1L340.6,156.5z"/>
	</g>
</g>
<g>
	<path class="st12" d="M405.3,136.8c1.3,0.7,1.3,2,1.3,3.5c0,0.1,0,0.2,0,0.3c0.4,0.1,0.6,0.6,0.6,1.1c-0.1,0.7-0.5,1.2-1,1.2
		c0,0-0.1,0-0.1-0.1c-0.8,2-2.3,3.6-4,3.6c-1.8,0-3.3-1.6-4-3.6C398,143,398,143,398,143c-0.5,0-0.9-0.5-0.9-1.2
		c-0.1-0.5,0.2-1,0.6-1.1c0-0.1,0-0.2,0-0.3C396.9,134.2,405.5,134.7,405.3,136.8z M395.5,148.9c4.2-2,8.9-2,13.1,0
		c1.7,0.8,1.9,2.2,1.9,3.9h-16.9C393.6,151.1,393.8,149.7,395.5,148.9z"/>
</g>
<g>
	<path class="st13" d="M457.7,153.3c-0.2,0-0.4,0.2-0.4,0.4s0.2,0.4,0.4,0.4h7.5c0.2-0.3,0.3-0.5,0.5-0.8L457.7,153.3L457.7,153.3z"
		/>
	<path class="st13" d="M480.5,154.1c0.2,0,0.4-0.2,0.4-0.4s-0.2-0.4-0.4-0.4h-7.7c0.1,0.3,0.3,0.5,0.5,0.8L480.5,154.1L480.5,154.1z
		"/>
	<circle class="st13" cx="459.6" cy="137.9" r="0.4"/>
	<circle class="st13" cx="460.7" cy="137.9" r="0.4"/>
	<circle class="st13" cx="461.9" cy="137.9" r="0.4"/>
	<path class="st13" d="M463.3,140.4h-3.7c-0.2,0-0.4,0.2-0.4,0.4s0.2,0.4,0.4,0.4h3.7c0.2,0,0.4-0.2,0.4-0.4
		C463.7,140.6,463.6,140.4,463.3,140.4z"/>
	<path class="st13" d="M459.6,142.8h3.4c0.2,0,0.4-0.2,0.4-0.4s-0.2-0.4-0.4-0.4h-3.4c-0.2,0-0.4,0.2-0.4,0.4
		S459.4,142.8,459.6,142.8z"/>
	<path class="st13" d="M459.6,144.4h2.3c0.2,0,0.4-0.2,0.4-0.4s-0.2-0.4-0.4-0.4h-2.3c-0.2,0-0.4,0.2-0.4,0.4
		S459.4,144.4,459.6,144.4z"/>
	<path class="st13" d="M465.5,140.4c-0.2,0-0.4,0.2-0.4,0.4v7.5c0,0.2,0.2,0.4,0.4,0.4s0.4-0.2,0.4-0.4v-7.5
		C465.9,140.6,465.7,140.4,465.5,140.4z"/>
	<path class="st13" d="M478.8,142.8l-5.2-2.4c-0.2-0.1-0.3-0.1-0.5,0l-5.2,2.4c-0.2,0.1-0.3,0.3-0.3,0.5s0.1,0.4,0.3,0.5l2.1,1v3.5
		c0,0.3,0.3,0.6,0.6,0.6l0,0c0.3,0,0.6-0.2,0.6-0.6v-3.5l2.4-1.2c0.3-0.1,0.4-0.5,0.3-0.7c-0.1-0.3-0.5-0.4-0.7-0.3l-2.5,1.2
		l-1.1-0.5l3.9-1.8l3.9,1.8l-1.4,0.6l0,0l-2.5,1.2l-0.8-0.4l-0.8,0.4v0.4l1.4,0.6c0.1,0,0.2,0.1,0.2,0.1c0.1,0,0.2,0,0.2-0.1
		l1.9-0.9v0.7l-2.2,1l-1.6-0.8v1.2l1.4,0.6c0.1,0,0.2,0.1,0.2,0.1s0.2,0,0.2-0.1l2.7-1.3c0.2-0.1,0.3-0.3,0.3-0.5v-1.6l2.1-1
		c0.2-0.1,0.3-0.3,0.3-0.5S479,142.9,478.8,142.8z"/>
	<path class="st13" d="M462.7,146.6h-2.4c-0.6,0-1.1,0.5-1.1,1.1s0.5,1.1,1.1,1.1h2.4c0.6,0,1.1-0.5,1.1-1.1
		S463.3,146.6,462.7,146.6z M462.7,147.9h-2.4c-0.1,0-0.3-0.1-0.3-0.3s0.1-0.3,0.3-0.3h2.4c0.1,0,0.3,0.1,0.3,0.3
		S462.8,147.9,462.7,147.9z"/>
	<path class="st13" d="M479.3,135.3h-20.5c-0.9,0-1.7,0.8-1.7,1.7v13.1c0,0.9,0.8,1.7,1.7,1.7h7.8c-0.1,1-0.5,2-1.1,2.8l-0.3,0.4
		c-0.1,0.2-0.1,0.4-0.1,0.6c0.1,0.2,0.3,0.3,0.5,0.3h7c0.2,0,0.4-0.1,0.5-0.3s0.1-0.4-0.1-0.6l-0.3-0.4c-0.6-0.8-1-1.8-1.1-2.8h7.6
		c0.9,0,1.7-0.8,1.7-1.7V137C481,136.1,480.3,135.3,479.3,135.3z M471.6,154.7h-4.8c0.5-0.9,0.9-1.9,1-3h2.9
		C470.7,152.8,471.1,153.8,471.6,154.7z M479.9,150.1c0,0.3-0.3,0.6-0.6,0.6h-20.5c-0.3,0-0.6-0.3-0.6-0.6V137
		c0-0.3,0.3-0.6,0.6-0.6h20.5c0.3,0,0.6,0.3,0.6,0.6V150.1z"/>
</g>
<path class="st10" d="M555.2,153.3c0.3,0.3,0.9,0.3,1.2,0l0,0l6-6c0.3-0.3,0.3-0.9,0-1.2l0,0l-6-6c-0.3-0.4-0.9-0.4-1.2,0
	s-0.4,0.9,0,1.2l0,0l5.3,5.3l-5.3,5.3C554.8,152.4,554.8,153,555.2,153.3L555.2,153.3z"/>
<path class="st10" d="M16.3,218c-0.3-0.3-0.9-0.3-1.2,0l0,0l-6,6c-0.3,0.3-0.3,0.9,0,1.2l0,0l6,6c0.3,0.4,0.9,0.4,1.2,0
	c0.3-0.4,0.4-0.9,0-1.2l0,0l-5.3-5.3l5.3-5.3C16.7,218.9,16.7,218.3,16.3,218L16.3,218z"/>
<path class="st2" d="M150.7,226.5c-0.7,0-1.4,0.3-1.8,0.8l-3-1.8c0.2-0.5,0.3-1,0.3-1.6s-0.1-1.1-0.3-1.6l3-1.8
	c0.5,0.5,1.1,0.8,1.8,0.8c1.4,0,2.6-1.2,2.6-2.6c0-1.4-1.2-2.6-2.6-2.6c-1.4,0-2.6,1.2-2.6,2.6c0,0.3,0,0.5,0.1,0.7l-3,1.8
	c-0.8-0.9-1.9-1.5-3.3-1.5c-2.3,0-4.2,1.9-4.2,4.2s1.9,4.2,4.2,4.2c1.3,0,2.5-0.6,3.3-1.5l3,1.8c-0.1,0.2-0.1,0.5-0.1,0.7
	c0,1.4,1.2,2.6,2.6,2.6c1.4,0,2.6-1.2,2.6-2.6C153.3,227.7,152.2,226.5,150.7,226.5z M150.7,217.4c0.7,0,1.3,0.6,1.3,1.3
	s-0.6,1.3-1.3,1.3s-1.3-0.6-1.3-1.3S150,217.4,150.7,217.4z M142,226.8c-1.6,0-2.9-1.3-2.9-2.9s1.3-2.9,2.9-2.9
	c1.6,0,2.9,1.3,2.9,2.9S143.6,226.8,142,226.8z M150.7,230.4c-0.7,0-1.3-0.6-1.3-1.3s0.6-1.3,1.3-1.3s1.3,0.6,1.3,1.3
	C152,229.8,151.4,230.4,150.7,230.4z"/>
<g>
	<path class="st14" d="M237.2,216.7c-3.2,0-5.8,2.6-5.8,5.8s2.6,5.8,5.8,5.8s5.8-2.6,5.8-5.8l0,0C243,219.3,240.4,216.7,237.2,216.7
		z M237.2,227.5c-2.8,0-5-2.2-5-5s2.2-5,5-5s5,2.2,5,5l0,0C242.2,225.3,239.9,227.5,237.2,227.5z"/>
	<path class="st14" d="M237.3,222.3V219c0-0.2-0.2-0.4-0.4-0.4s-0.4,0.2-0.4,0.4v3.5c0,0.1,0,0.2,0.1,0.3l1.8,2
		c0.2,0.2,0.4,0.1,0.6,0c0.1-0.1,0.1-0.4,0-0.5L237.3,222.3z"/>
</g>
<g>
	<path class="st10" d="M345,238.6c-1.7,0-3.4-0.7-4.7-1.9c-1.3-1.2-2-2.9-2-4.6c0-1.7,0.6-3.2,1.8-4.3l10.7-10.5
		c0.9-0.9,2.1-1.4,3.5-1.4s2.8,0.5,3.7,1.4c0.9,0.9,1.5,2.3,1.5,3.7c0,1.3-0.5,2.5-1.4,3.4l-9.1,9c-0.7,0.7-1.6,1-2.5,1
		c-1,0-1.9-0.4-2.6-1.1s-1.1-1.6-1.1-2.6c0-0.9,0.4-1.8,1.1-2.5l7.2-7.1l1.1,1.1l-7.2,7.1c-0.4,0.4-0.6,0.9-0.6,1.4
		c0,0.6,0.2,1.1,0.7,1.5c0.4,0.4,1,0.6,1.6,0.6c0.5,0,1.1-0.2,1.4-0.6l9.1-9c0.6-0.6,1-1.4,1-2.3c0-1-0.4-2-1.1-2.6s-1.6-1-2.6-1
		c-0.9,0-1.8,0.4-2.4,1l-10.7,10.5c-0.9,0.9-1.4,2-1.4,3.2c0,1.3,0.5,2.6,1.5,3.5c1,1,2.3,1.5,3.6,1.5c1.3,0,2.4-0.5,3.3-1.4
		l8.8-8.7l1.1,1.1l-0.7,0.7l-8.1,8C348.2,238,346.6,238.6,345,238.6z"/>
</g>
<g>
	<path class="st9" d="M451,220.9c1,0.5,1,1.6,1,2.8c0,0.1,0,0.1,0,0.2c0.3,0.1,0.5,0.5,0.5,0.9c0,0.5-0.4,0.9-0.8,0.9l0,0
		c-0.6,1.6-1.8,2.8-3.1,2.8c-1.4,0-2.6-1.2-3.1-2.8c0,0,0,0-0.1,0c-0.4,0-0.7-0.4-0.7-0.9c0-0.4,0.1-0.8,0.5-0.9c0-0.1,0-0.1,0-0.2
		C444.5,218.9,451.2,219.3,451,220.9z M443.4,230.3c3.2-1.5,6.9-1.5,10.2,0c1.4,0.6,1.5,1.7,1.5,3H442
		C442,232.1,442.1,231,443.4,230.3z"/>
</g>
<g>
	<circle class="st2" cx="543.9" cy="229.6" r="9"/>
	<g>
		<path class="st15" d="M544.4,241.2c2.7,0,5.2-1,7.2-2.6c0.9-0.8,1.7-1.7,2.4-2.8c1-1.7,1.6-3.6,1.6-5.7c0-6.1-4.9-11.1-11.1-11.1
			s-11.1,4.9-11.1,11C533.4,236.3,538.3,241.2,544.4,241.2z M539.3,229.6h4.6V225h1.2v4.6h4.6v1.2H545v4.6h-1.2v-4.6h-4.6
			L539.3,229.6L539.3,229.6z"/>
	</g>
</g>
<path class="st16" d="M16.6,299.2c2.7,0,5.2-1,7.2-2.6c0.9-0.8,1.7-1.7,2.4-2.8c1-1.7,1.6-3.6,1.6-5.7c0-6.1-4.9-11.1-11.1-11.1
	s-11.1,4.9-11.1,11S10.4,299.2,16.6,299.2z"/>
<g>
	<g>
		<polygon class="st14" points="21.8,287.1 21.8,291.8 12.4,291.8 12.4,287.1 11.7,287.1 11.7,292.4 22.4,292.4 22.4,287.1 		"/>
		<polygon class="st14" points="14.9,283.7 14.9,290.6 15.6,290.6 15.6,283.8 16.5,284.8 17,284.3 15.2,282.6 13.4,284.4 
			13.9,284.8 		"/>
		<polygon class="st14" points="20.7,288.6 20.3,288.1 19.2,289.2 19.2,282.4 18.6,282.4 18.6,289.1 17.6,288.2 17.2,288.6 
			19,290.4 		"/>
	</g>
</g>
<circle class="st2" cx="100.8" cy="288.1" r="8.4"/>
<path class="st17" d="M101.4,299.7c2.7,0,5.2-1,7.2-2.6c0.9-0.8,1.7-1.7,2.4-2.8c1-1.7,1.6-3.6,1.6-5.7c0-6.1-4.9-11.1-11.1-11.1
	c-6.1,0-11.1,4.9-11.1,11C90.3,294.8,95.3,299.7,101.4,299.7z"/>
<polygon class="st17" points="96.2,288.1 100.8,288.1 100.8,283.5 102,283.5 102,288.1 106.6,288.1 106.6,289.2 102,289.2 
	102,293.8 100.8,293.8 100.8,289.2 96.2,289.2 "/>
<g>
	<path class="st18" d="M103.5,285.4c0-1.2-1-2.2-2.2-2.2s-2.2,1-2.2,2.2s1,2.2,2.2,2.2S103.5,286.6,103.5,285.4z"/>
	<path class="st18" d="M102.3,288.1c-0.3,0.1-0.6,0.2-1,0.2c-0.3,0-0.7-0.1-1-0.2l1,1.5L102.3,288.1z"/>
	<path class="st18" d="M102.7,288.6l-1.1,1.8c-0.1,0.1-0.2,0.2-0.3,0.2c-0.1,0-0.2-0.1-0.3-0.2l-1.1-1.8c-1.1,0.6-1.9,2-2.1,3.5
		c0,0.1,0,0.1,0.1,0.2l0.1,0.1h6.7c0.1,0,0.1,0,0.1-0.1c0,0,0.1-0.1,0.1-0.2C104.8,290.6,103.9,289.2,102.7,288.6z"/>
	<path class="st2" d="M105.6,292.1c-0.2-1.9-1.3-3.6-2.9-4.2l0,0c0.9-0.5,1.4-1.4,1.4-2.5c0-1.6-1.3-2.8-2.8-2.8
		c-1.6,0-2.8,1.3-2.8,2.8c0,1.1,0.6,2,1.5,2.5c0,0,0,0-0.1,0c-1.5,0.7-2.5,2.2-2.7,4.1c0,0.2,0.1,0.5,0.2,0.7
		c0.2,0.2,0.4,0.3,0.6,0.3h6.7c0.2,0,0.5-0.1,0.6-0.3C105.5,292.6,105.6,292.4,105.6,292.1z M99.1,285.4c0-1.2,1-2.2,2.2-2.2
		s2.2,1,2.2,2.2s-1,2.2-2.2,2.2S99.1,286.6,99.1,285.4z M101.3,288.3c0.3,0,0.7-0.1,1-0.2l-1,1.5l-1-1.5
		C100.7,288.2,101,288.3,101.3,288.3z M104.9,292.3l-0.1,0.1h-6.7c-0.1,0-0.1,0-0.1-0.1c0,0-0.1-0.1-0.1-0.2c0.2-1.5,1-2.9,2.1-3.5
		l1.1,1.8c0.1,0.1,0.2,0.2,0.3,0.2c0.1,0,0.2-0.1,0.3-0.2l1.1-1.8c1.2,0.6,2.1,2,2.2,3.6C104.9,292.3,104.9,292.3,104.9,292.3z"/>
</g>
<g>
	<circle class="st2" cx="208.1" cy="288.3" r="8.4"/>
	<g>
		<g>
			<path class="st10" d="M214.1,282.2c-3.3-3.3-8.7-3.3-12,0s-3.3,8.7,0,12s8.7,3.3,12,0C217.4,290.9,217.4,285.6,214.1,282.2z
				 M211.4,291.6c-0.3,0.3-0.7,0.3-0.9,0l-2.4-2.4l-2.5,2.5c-0.3,0.3-0.7,0.3-0.9,0c-0.3-0.3-0.3-0.7,0-0.9l2.5-2.5l-2.4-2.4
				c-0.3-0.3-0.3-0.7,0-0.9c0.3-0.3,0.7-0.3,0.9,0l2.4,2.4l2.3-2.3c0.3-0.3,0.7-0.3,0.9,0c0.3,0.3,0.3,0.7,0,0.9l-2.3,2.3l2.4,2.4
				C211.7,290.9,211.7,291.3,211.4,291.6z"/>
		</g>
	</g>
</g>
<g transform="translate(0,-952.36218)" class="st19">
	<path d="M299.3,1228.3c-7.1,0-12.9,5.8-12.9,12.9s5.8,12.9,12.9,12.9s12.9-5.8,12.9-12.9C312.2,1234.1,306.4,1228.3,299.3,1228.3z
		 M298.7,1229.6c0,1.6,0,3.2,0,4.9h-3.9C295.6,1231.8,297,1229.9,298.7,1229.6z M299.9,1229.6c1.7,0.4,3,2.2,3.9,4.8h-3.9V1229.6z
		 M296,1230c-1,1.1-1.8,2.6-2.4,4.4h-3.8C291.3,1232.3,293.4,1230.8,296,1230z M302.7,1230c2.5,0.8,4.7,2.3,6.2,4.4h-3.8
		C304.5,1232.6,303.7,1231.1,302.7,1230z M289,1235.7h4.2c-0.4,1.5-0.6,3.2-0.7,4.9h-4.9C287.7,1238.8,288.2,1237.1,289,1235.7z
		 M294.4,1235.7h4.3v4.9h-4.9C293.8,1238.8,294,1237.2,294.4,1235.7z M299.9,1235.7h4.2c0.4,1.5,0.6,3.2,0.6,4.9h-4.9L299.9,1235.7
		L299.9,1235.7z M305.4,1235.7h4.2c0.8,1.5,1.3,3.1,1.4,4.9h-4.9C306,1238.8,305.8,1237.2,305.4,1235.7z M287.7,1241.8h4.9
		c0,1.8,0.3,3.4,0.6,4.9H289C288.2,1245.3,287.7,1243.6,287.7,1241.8z M293.8,1241.8h4.9v4.9h-4.3
		C294,1245.2,293.8,1243.6,293.8,1241.8z M299.9,1241.8h4.9c0,1.7-0.3,3.4-0.6,4.9H300L299.9,1241.8L299.9,1241.8z M306.1,1241.8
		h4.9c-0.1,1.8-0.6,3.4-1.4,4.9h-4.2C305.8,1245.2,306,1243.6,306.1,1241.8z M289.8,1248h3.8c0.6,1.8,1.4,3.4,2.4,4.4
		C293.4,1251.6,291.3,1250.1,289.8,1248z M294.8,1248h3.9v4.9C297,1252.5,295.6,1250.6,294.8,1248z M299.9,1248h3.9
		c-0.9,2.6-2.2,4.5-3.9,4.8V1248z M305.1,1248h3.8c-1.5,2.1-3.6,3.7-6.2,4.4C303.7,1251.3,304.5,1249.8,305.1,1248z"/>
</g>
<g transform="translate(0,-952.36218)">
	<path class="st20" d="M397.8,1232.8c-0.3,0-0.7,0.1-0.9,0.4l-9.5,9.5l-4.8-3.7c-0.6-0.4-1.4-0.3-1.8,0.2s-0.3,1.4,0.2,1.8l5.7,4.4
		c0.5,0.4,1.2,0.4,1.7-0.1l10.3-10.3c0.5-0.5,0.5-1.3,0-1.8C398.5,1233,398.1,1232.8,397.8,1232.8L397.8,1232.8z"/>
</g>
<g>
	<path class="st7" d="M491.5,295.5l-4-4c2-2.6,1.8-6.4-0.6-8.8c-1.3-1.3-3-2-4.7-2s-3.4,0.6-4.7,2c-2.6,2.6-2.6,6.8,0,9.4
		c1.3,1.3,3,2,4.7,2c1.4,0,2.9-0.4,4-1.4l4,4c0.2,0.2,0.4,0.3,0.6,0.3s0.5-0.1,0.6-0.3C491.8,296.5,491.8,295.9,491.5,295.5z
		 M482.2,292.4c-1.3,0-2.5-0.5-3.5-1.4c-1.9-1.9-1.9-5,0-6.9c0.9-0.9,2.1-1.4,3.5-1.4s2.5,0.5,3.5,1.4c0.9,0.9,1.4,2.1,1.4,3.5
		s-0.5,2.5-1.4,3.5C484.7,291.9,483.5,292.4,482.2,292.4z"/>
</g>
<g>
	<g>
		<rect x="547.8" y="300.8" class="st21" width="20.7" height="1.3"/>
		<path class="st21" d="M568.9,279.7l-1.4-1.4c-1.1-1.1-3-1.1-4.1,0L551,290.7c-0.1,0.1-0.1,0.2-0.2,0.3l-1.8,6.4
			c-0.1,0.2,0,0.5,0.2,0.6c0.1,0.1,0.3,0.2,0.5,0.2c0.1,0,0.1,0,0.2,0l6.4-1.8c0.1,0,0.2-0.1,0.3-0.2l12.4-12.4
			c0.6-0.6,0.9-1.3,0.9-2.1C569.8,281,569.5,280.3,568.9,279.7z M555.8,295.2l-5.1,1.5l1.5-5.1l9.9-9.9l3.7,3.7L555.8,295.2z
			 M568,282.9l-1.4,1.4l-3.7-3.7l1.4-1.4c0.6-0.6,1.7-0.6,2.3,0l1.4,1.4c0.3,0.3,0.5,0.7,0.5,1.1C568.5,282.2,568.3,282.6,568,282.9
			z"/>
	</g>
</g>
<g>
	<path class="st10" d="M162.6,347.7c1.3,0.7,1.3,2,1.3,3.6c0,0.1,0,0.2,0,0.3c0.4,0.1,0.6,0.6,0.6,1.1c-0.1,0.7-0.5,1.2-1,1.2
		c0,0-0.1,0-0.1-0.1c-0.8,2-2.3,3.6-4,3.6c-1.8,0-3.3-1.6-4-3.6c-0.1,0.1-0.1,0.1-0.1,0.1c-0.5,0-0.9-0.5-0.9-1.2
		c-0.1-0.5,0.2-1,0.6-1.1c0-0.1,0-0.2,0-0.3C154.1,345,162.8,345.6,162.6,347.7z M152.8,359.8c4.2-2,8.9-2,13.1,0
		c1.8,0.8,1.9,2.2,1.9,3.9h-17C150.8,362.1,151,360.7,152.8,359.8z"/>
</g>
<path class="st15" d="M251.1,342.4c-6.7,0-12,5.4-12,12s5.4,12,12,12s12-5.4,12-12S257.8,342.4,251.1,342.4z M257.3,351.6l-7.1,7.1
	c-0.2,0.2-0.6,0.4-0.9,0.4s-0.7-0.1-0.9-0.4l-3.6-3.6c-0.5-0.5-0.5-1.3,0-1.8s1.3-0.5,1.8,0l2.7,2.7l6.2-6.2c0.5-0.5,1.3-0.5,1.8,0
	C257.8,350.3,257.8,351.1,257.3,351.6z"/>
<g>
	<path class="st22" d="M330.7,345c4.7-4.7,12.3-4.7,17,0s4.7,12.3,0,17s-12.3,4.7-17,0S326,349.7,330.7,345z M341.3,353.5l4-4
		c0.6-0.6,0.6-1.5,0-2c-0.6-0.6-1.5-0.6-2,0l-4,4l-4-4c-0.6-0.6-1.5-0.6-2,0c-0.6,0.6-0.6,1.5,0,2l4,4l-4,4c-0.6,0.6-0.6,1.5,0,2
		c0.6,0.6,1.5,0.6,2,0l4-4l4,4c0.6,0.6,1.5,0.6,2,0c0.6-0.6,0.6-1.5,0-2L341.3,353.5z"/>
</g>
<path d="M426,358.6c0.3,0.3,0.8,0.3,1.1,0l0,0l5.1-5.1c0.3-0.3,0.3-0.8,0-1.1l0,0l-5.1-5.1c-0.3-0.3-0.8-0.3-1.1,0
	c-0.3,0.3-0.3,0.8,0,1.1l0,0l4.6,4.6l-4.6,4.6C425.7,357.9,425.7,358.3,426,358.6L426,358.6z"/>
<g>
	<rect x="489.8" y="360.6" class="st23" width="11.5" height="0.7"/>
	<path class="st23" d="M501.5,348.9l-0.8-0.8c-0.6-0.6-1.7-0.6-2.3,0l-6.8,6.8c0,0-0.1,0.1-0.1,0.2l-1,3.6c0,0.1,0,0.3,0.1,0.4
		s0.2,0.1,0.3,0.1h0.1l3.6-1c0.1,0,0.1,0,0.2-0.1l6.8-6.8c0.3-0.3,0.5-0.7,0.5-1.1C501.9,349.6,501.8,349.2,501.5,348.9z
		 M494.2,357.5l-2.8,0.8l0.8-2.8l5.5-5.5l2,2L494.2,357.5z M501,350.7l-0.8,0.8l-2-2l0.8-0.8c0.3-0.3,0.9-0.3,1.3,0l0.8,0.8
		c0.2,0.2,0.3,0.4,0.3,0.6C501.2,350.3,501.1,350.5,501,350.7z"/>
</g>
<g>
	<g>
		<g>
			<path d="M564.3,364.2h-7.5c-0.8,0-1.5-0.7-1.6-1.5l-0.4-11.8c0-0.3,0.2-0.6,0.6-0.6c0.3,0,0.6,0.2,0.6,0.6l0.4,11.8
				c0,0.2,0.2,0.4,0.4,0.4h7.5c0.2,0,0.4-0.2,0.4-0.4l0.4-11.8c0-0.3,0.3-0.6,0.6-0.6l0,0c0.3,0,0.6,0.3,0.6,0.6l-0.4,11.8
				C565.8,363.5,565.1,364.2,564.3,364.2z"/>
		</g>
		<g>
			<path d="M560.5,361.7c-0.3,0-0.5-0.2-0.5-0.5v-8c0-0.3,0.2-0.5,0.5-0.5s0.5,0.2,0.5,0.5v8C561,361.5,560.8,361.7,560.5,361.7z"/>
		</g>
		<g>
			<path d="M558.1,361.7c-0.3,0-0.5-0.2-0.5-0.5l-0.2-8c0-0.3,0.2-0.5,0.5-0.5s0.5,0.2,0.5,0.5l0.2,8
				C558.6,361.5,558.4,361.7,558.1,361.7C558.2,361.7,558.1,361.7,558.1,361.7z"/>
		</g>
		<g>
			<path d="M562.9,361.7C562.8,361.7,562.8,361.7,562.9,361.7c-0.3,0-0.5-0.2-0.5-0.5l0.2-8c0-0.3,0.2-0.5,0.5-0.5s0.5,0.2,0.5,0.5
				l-0.2,8C563.3,361.5,563.1,361.7,562.9,361.7z"/>
		</g>
		<g>
			<path d="M566.4,351.1h-11.8c-0.3,0-0.6-0.3-0.6-0.6s0.3-0.6,0.6-0.6h11.8c0.3,0,0.6,0.3,0.6,0.6S566.7,351.1,566.4,351.1z"/>
		</g>
		<g>
			<path d="M562.3,350.4l-0.2-0.9c-0.1-0.2-0.3-0.4-0.5-0.4h-2.1c-0.2,0-0.4,0.2-0.5,0.4l-0.2,0.9l-1.1-0.3l0.2-0.9
				c0.2-0.7,0.9-1.2,1.6-1.2h2.1c0.7,0,1.4,0.5,1.6,1.2l0.2,0.9L562.3,350.4z"/>
		</g>
	</g>
</g>
<g>
	<g>
		<rect x="154.4" y="409.3" class="st2" width="10.5" height="1.7"/>
		<rect x="158.8" y="404.8" class="st2" width="1.7" height="10.5"/>
	</g>
</g>
<g>
	<path class="st10" d="M256.1,408.5h-5.6c-0.4-1-1.6-1.5-2.6-1.1c-0.5,0.2-0.9,0.6-1.1,1.1h-5.6v16.9H256v-16.9H256.1z M247.5,409.3
		l0.1-0.3c0.1-0.6,0.7-1,1.4-0.9c0.4,0.1,0.8,0.4,0.9,0.9l0.1,0.3h1.2v1.6h-4.9v-1.6H247.5z M255.2,424.6h-13.1v-15.3h3.3v2.4h6.6
		v-2.4h3.3v15.3H255.2z"/>
	<rect x="249.1" y="415.3" class="st10" width="4.5" height="0.8"/>
	<polygon class="st10" points="245.4,415.9 244.5,415.2 244,415.9 245.5,417.1 247.7,414.5 247.1,413.9 	"/>
	<rect x="249" y="420.2" class="st10" width="4.5" height="0.8"/>
	<polygon class="st10" points="246.6,418.9 245.6,420 244.5,418.9 243.9,419.5 245,420.6 243.9,421.6 244.5,422.2 245.6,421.2 
		246.6,422.2 247.2,421.6 246.2,420.6 247.2,419.5 	"/>
</g>
<g>
	<g>
		<path class="st10" d="M332.5,417.4c-0.2,0-0.4-0.2-0.4-0.4c0-0.2,0.2-0.4,0.4-0.4h7.9c0.2,0,0.4,0.2,0.4,0.4
			c0,0.2-0.2,0.4-0.4,0.4H332.5z M332.5,420.5c-0.2,0-0.4-0.2-0.4-0.4s0.2-0.4,0.4-0.4h7.9c0.2,0,0.4,0.2,0.4,0.4s-0.2,0.4-0.4,0.4
			H332.5z M332.5,414.2c-0.2,0-0.4-0.2-0.4-0.4c0-0.2,0.2-0.4,0.4-0.4h7.9c0.2,0,0.4,0.2,0.4,0.4c0,0.2-0.2,0.4-0.4,0.4H332.5z
			 M329.9,417c0-0.4,0.3-0.7,0.7-0.7c0.4,0,0.7,0.3,0.7,0.7c0,0.4-0.3,0.7-0.7,0.7C330.2,417.6,329.9,417.3,329.9,417z M329.9,420.1
			c0-0.4,0.3-0.7,0.7-0.7c0.4,0,0.7,0.3,0.7,0.7c0,0.4-0.3,0.7-0.7,0.7C330.2,420.8,329.9,420.5,329.9,420.1z M329.9,413.8
			c0-0.4,0.3-0.7,0.7-0.7c0.4,0,0.7,0.3,0.7,0.7c0,0.4-0.3,0.7-0.7,0.7C330.2,414.5,329.9,414.2,329.9,413.8z"/>
		<path class="st10" d="M327.9,409.3c-0.1,0-0.2,0.1-0.2,0.2v14.9c0,0.1,0.1,0.2,0.2,0.2h14.9c0.1,0,0.2-0.1,0.2-0.2v-14.9
			c0-0.1-0.1-0.2-0.2-0.2H327.9z M327.7,408.5H343c0.4,0,0.8,0.4,0.8,0.8v15.3c0,0.4-0.4,0.8-0.8,0.8h-15.3c-0.4,0-0.8-0.4-0.8-0.8
			v-15.3C326.9,408.9,327.3,408.5,327.7,408.5z"/>
	</g>
</g>
<g>
	<path class="st10" d="M432,412.4c1.1,0.6,1.1,1.8,1.1,3.2c0,0.1,0,0.2,0,0.3c0.4,0.1,0.6,0.5,0.5,1c-0.1,0.6-0.4,1.1-0.9,1.1
		c0,0-0.1,0-0.1-0.1c-0.7,1.8-2,3.2-3.6,3.2s-3-1.4-3.6-3.2c-0.1,0.1-0.1,0.1-0.1,0.1c-0.4,0-0.8-0.5-0.8-1.1
		c-0.1-0.5,0.2-0.9,0.5-1c0-0.1,0-0.2,0-0.3C424.5,410,432.1,410.5,432,412.4z M423.3,423.1c3.7-1.8,7.9-1.8,11.7,0
		c1.6,0.7,1.7,2,1.7,3.5h-15.1C421.6,425.1,421.7,423.9,423.3,423.1z"/>
</g>
<g>
	<g>
		<g>
			<path class="st2" d="M506.5,425.8h-7.9c-0.9,0-1.6-0.7-1.6-1.6l-0.5-12.3c0-0.3,0.3-0.6,0.6-0.6c0.4,0,0.6,0.3,0.6,0.6l0.5,12.3
				c0,0.2,0.2,0.4,0.4,0.4h7.9c0.2,0,0.4-0.2,0.4-0.4l0.5-12.3c0-0.3,0.3-0.6,0.6-0.6l0,0c0.3,0,0.6,0.3,0.6,0.6l-0.5,12.3
				C508.1,425.1,507.4,425.8,506.5,425.8z"/>
		</g>
		<g>
			<path class="st2" d="M502.5,423.2c-0.3,0-0.5-0.2-0.5-0.5v-8.4c0-0.3,0.2-0.5,0.5-0.5s0.5,0.2,0.5,0.5v8.4
				C503,423,502.8,423.2,502.5,423.2z"/>
		</g>
		<g>
			<path class="st2" d="M500.1,423.2c-0.3,0-0.5-0.2-0.5-0.5l-0.2-8.4c0-0.3,0.2-0.5,0.5-0.5s0.5,0.2,0.5,0.5l0.2,8.4
				C500.6,422.9,500.4,423.2,500.1,423.2L500.1,423.2z"/>
		</g>
		<g>
			<path class="st2" d="M505,423.2L505,423.2c-0.3,0-0.5-0.2-0.5-0.5l0.2-8.4c0-0.3,0.2-0.5,0.5-0.5s0.5,0.2,0.5,0.5l-0.2,8.4
				C505.5,423,505.3,423.2,505,423.2z"/>
		</g>
		<g>
			<path class="st2" d="M508.7,412.1h-12.3c-0.3,0-0.6-0.3-0.6-0.6s0.3-0.6,0.6-0.6h12.3c0.3,0,0.6,0.3,0.6,0.6
				S509,412.1,508.7,412.1z"/>
		</g>
		<g>
			<path class="st2" d="M504.4,411.3l-0.3-0.9c-0.1-0.2-0.3-0.4-0.5-0.4h-2.2c-0.2,0-0.4,0.2-0.5,0.4l-0.3,0.9l-1.2-0.3l0.3-0.9
				c0.2-0.7,0.9-1.3,1.7-1.3h2.2c0.8,0,1.5,0.5,1.7,1.3l0.3,0.9L504.4,411.3z"/>
		</g>
	</g>
</g>
<g>
	<path class="st2" d="M572.8,414.7h-1.6v-2.9c0-1.1-0.9-1.9-1.9-1.9h-8.1c-1.1,0-2,0.9-2,1.9l0,0v6.6c0,1.1,0.9,1.9,2,1.9l0,0h1v2.2
		c0,0.2,0.2,0.4,0.4,0.4c0.1,0,0.2,0,0.3-0.1l2.5-2.5h0.5v1c0,0.9,0.8,1.7,1.7,1.7h2l2.1,2.1c0.2,0.2,0.4,0.2,0.6,0
		c0.1-0.1,0.1-0.2,0.1-0.3V423h0.6c0.9,0,1.7-0.8,1.7-1.7v-5C574.5,415.4,573.8,414.7,572.8,414.7z M565.1,419.5
		c-0.1,0-0.2,0-0.3,0.1l-1.9,1.9v-1.7c0-0.2-0.2-0.4-0.4-0.4h-1.4c-0.6,0-1.2-0.5-1.2-1.1l0,0v-6.6c0-0.6,0.5-1.2,1.2-1.2l0,0h8.1
		c0.6,0,1.2,0.5,1.2,1.2v6.6c0,0.6-0.5,1.1-1.2,1.1h-4.1L565.1,419.5L565.1,419.5z M573.7,421.4c0,0.5-0.4,0.9-0.9,0.9l0,0h-1
		c-0.2,0-0.4,0.2-0.4,0.4v1.3l-1.6-1.6c-0.1-0.1-0.2-0.1-0.3-0.1h-2.1c-0.5,0-0.9-0.4-0.9-0.9l0,0v-1h2.7c1.1,0,1.9-0.9,1.9-1.9
		v-2.9h1.6c0.5,0,0.9,0.4,0.9,0.9L573.7,421.4L573.7,421.4z"/>
	<path class="st2" d="M565.2,411.9c-1,0-1.8,0.7-1.8,1.7l0,0c0,0.2,0.2,0.4,0.4,0.4s0.4-0.2,0.4-0.4c0-0.3,0.1-0.5,0.3-0.7
		s0.4-0.3,0.7-0.3c0.5,0,0.9,0.5,0.9,1c0,0.3-0.2,0.7-0.5,0.8c-0.5,0.2-0.8,0.7-0.8,1.3l0,0v0.2c0,0.2,0.2,0.4,0.4,0.4
		s0.4-0.2,0.4-0.4v-0.2c0-0.3,0.1-0.5,0.4-0.6c0.9-0.4,1.2-1.5,0.8-2.4C566.4,412.3,565.9,411.9,565.2,411.9L565.2,411.9z"/>
	<path class="st2" d="M565.2,417.3c-0.2,0-0.4,0.2-0.4,0.4v0.1c0,0.2,0.2,0.4,0.4,0.4s0.4-0.2,0.4-0.4v-0.1
		C565.6,417.4,565.4,417.3,565.2,417.3z"/>
</g>
<g>
	<g>
		<g>
			<path d="M25.2,492.9H12.8c-1.4,0-2.5-1.1-2.6-2.5L9.5,471c0-0.5,0.4-1,0.9-1c0.6,0,1,0.4,1,0.9l0.7,19.4c0,0.3,0.3,0.6,0.6,0.6
				h12.4c0.3,0,0.6-0.3,0.6-0.6l0.7-19.4c0-0.5,0.4-0.9,1-0.9l0,0c0.5,0,1,0.5,0.9,1l-0.7,19.4C27.8,491.8,26.6,492.9,25.2,492.9z"
				/>
		</g>
		<g>
			<path d="M19,488.9c-0.4,0-0.8-0.3-0.8-0.8v-13.2c0-0.4,0.3-0.8,0.8-0.8c0.4,0,0.8,0.3,0.8,0.8v13.2
				C19.8,488.5,19.5,488.9,19,488.9z"/>
		</g>
		<g>
			<path d="M15.2,488.9c-0.4,0-0.8-0.3-0.8-0.8L14,474.9c0-0.4,0.3-0.8,0.8-0.8c0.4,0,0.8,0.3,0.8,0.8l0.4,13.2
				C15.9,488.5,15.6,488.8,15.2,488.9L15.2,488.9z"/>
		</g>
		<g>
			<path d="M22.9,488.9L22.9,488.9c-0.5,0-0.8-0.4-0.8-0.8l0.4-13.2c0-0.4,0.4-0.8,0.8-0.8s0.8,0.4,0.8,0.8l-0.4,13.2
				C23.7,488.5,23.3,488.9,22.9,488.9z"/>
		</g>
		<g>
			<path d="M28.7,471.4H9.3c-0.5,0-1-0.4-1-1c0-0.5,0.4-1,1-1h19.4c0.5,0,1,0.4,1,1S29.3,471.4,28.7,471.4z"/>
		</g>
		<g>
			<path d="M22,470.1l-0.4-1.4c-0.1-0.3-0.5-0.6-0.8-0.6h-3.5c-0.3,0-0.7,0.3-0.8,0.6l-0.4,1.4l-1.9-0.5l0.4-1.4
				c0.3-1.1,1.5-2,2.7-2h3.5c1.2,0,2.3,0.9,2.7,2l0.4,1.4L22,470.1z"/>
		</g>
	</g>
</g>
<g class="st24">
	<path d="M121,480.1c-1.6-1.3-7.1-5.5-12.1-5.5s-10.5,4.2-12.1,5.5c-0.2,0.2-0.2,0.5,0,0.7c1.5,1.3,7,5.5,12.1,5.5
		c5,0,10.5-4.2,12.1-5.5C121.3,480.6,121.3,480.2,121,480.1z M99,480.8c-0.2-0.2-0.2-0.5,0-0.7c1.4-1,3.5-2.4,5.7-3.3
		c-0.8,1-1.3,2.3-1.3,3.6s0.5,2.7,1.3,3.6C102.4,483.2,100.4,481.8,99,480.8z M109,484.8c-2.4,0-4.4-2-4.4-4.4s2-4.4,4.4-4.4
		s4.4,2,4.4,4.4S111.4,484.8,109,484.8z M119,480.8c-1.4,1-3.5,2.4-5.7,3.3c0.8-1,1.3-2.3,1.3-3.6s-0.5-2.7-1.3-3.6
		c2.3,0.9,4.4,2.3,5.7,3.3C119.2,480.2,119.2,480.6,119,480.8z"/>
	<path d="M109,477.5c-0.5,0-0.9,0.1-1.3,0.3l1.3,2.6l-2.6-1.3c-0.2,0.4-0.3,0.9-0.3,1.3c0,1.6,1.3,2.9,2.9,2.9s2.9-1.3,2.9-2.9
		S110.6,477.5,109,477.5z"/>
</g>
<g class="st24">
	<rect x="181.2" y="488.2" class="st25" width="15.5" height="1"/>
	<path class="st25" d="M197,472.5l-1-1c-0.8-0.8-2.2-0.8-3.1,0l-9.2,9.2c-0.1,0.1-0.1,0.1-0.1,0.2l-1.4,4.8c0,0.2,0,0.4,0.1,0.5
		s0.2,0.1,0.3,0.1h0.1l4.8-1.4c0.1,0,0.2-0.1,0.2-0.1l9.2-9.2c0.4-0.4,0.6-1,0.6-1.5C197.7,473.4,197.4,472.9,197,472.5z M187.2,484
		l-3.8,1.1l1.1-3.8l7.4-7.4l2.7,2.7L187.2,484z M196.3,474.9l-1,1l-2.7-2.7l1-1c0.5-0.5,1.2-0.5,1.7,0l1,1c0.2,0.2,0.4,0.5,0.4,0.9
		C196.7,474.3,196.6,474.6,196.3,474.9z"/>
</g>
<g class="st24">
	<path class="st26" d="M263.3,482.9c-0.2,0.1-0.6,0.1-0.9,0c-0.4-0.1-0.8-0.2-1.2-0.4c0.7-0.1,1.2-0.1,1.7,0.1
		C263,482.7,263.1,482.8,263.3,482.9 M259.3,482.2L259.3,482.2c-0.3,0.1-0.5,0.1-0.6,0.2l-0.2,0.1c-0.5,0.1-1,0.2-1.5,0.4
		c0.2-0.4,0.4-0.9,0.5-1.3c0.1-0.3,0.3-0.7,0.4-1c0.1,0.1,0.1,0.2,0.2,0.3C258.5,481.4,258.9,481.8,259.3,482.2 M258.1,477.2
		c0,0.5-0.1,1.1-0.3,1.6c-0.2-0.6-0.3-1.3,0-1.9c0.1-0.1,0.1-0.2,0.2-0.3C258,476.7,258.1,476.9,258.1,477.2 M255.6,484.2
		c-0.1,0.2-0.2,0.4-0.4,0.6c-0.3,0.5-0.8,0.9-1.1,0.9c0,0-0.1,0-0.1-0.1v-0.1c0-0.2,0.2-0.5,0.6-0.7
		C254.9,484.6,255.2,484.4,255.6,484.2 M264.1,482.9c0-0.6-1-0.9-1-0.9c-0.4-0.1-0.8-0.2-1.2-0.2c-0.5,0-1,0.1-1.7,0.2
		c-0.6-0.4-1.1-0.9-1.5-1.5c-0.2-0.3-0.3-0.5-0.5-0.8c0.3-0.8,0.6-1.6,0.6-2.5c0-0.7-0.4-1.3-0.8-1.3c-0.3,0-0.6,0.2-0.8,0.7
		c-0.4,0.8-0.3,1.9,0.3,3.1c-0.2,0.5-0.4,1-0.6,1.5c-0.2,0.6-0.5,1.3-0.8,1.9c-0.8,0.3-1.4,0.7-2,1.1c-0.4,0.3-0.8,0.8-0.8,1.2
		c0,0.2,0.1,0.4,0.2,0.6c0.2,0.2,0.4,0.3,0.6,0.3c0.8,0,1.5-1.1,1.6-1.3c0.3-0.4,0.5-0.9,0.8-1.4c0.6-0.2,1.3-0.4,2-0.6l0.2-0.1
		c0.2,0,0.4-0.1,0.6-0.1c0.2-0.1,0.4-0.1,0.6-0.2c0.7,0.4,1.4,0.7,2.2,0.8c0.6,0.1,1.1,0,1.5-0.2C264.1,483.3,264.1,483,264.1,482.9
		 M265.6,487.7c0,1-0.9,1.1-1.1,1.1h-11.7c-1,0-1.1-0.9-1.1-1.1v-15.5c0-1,0.9-1.1,1.1-1.1h7.9l0,0v3.1c0,0.6,0.4,1.8,1.8,1.8h3.1
		l0,0V487.7z M264.8,475.3h-2.4c-1,0-1.1-0.9-1.1-1.1v-2.4L264.8,475.3z M266.3,487.7v-12l-4.9-4.9l0,0l0,0l-0.4-0.4h-8.2
		c-0.6,0-1.8,0.4-1.8,1.8v15.5c0,0.6,0.4,1.8,1.8,1.8h11.7C265.1,489.5,266.3,489.1,266.3,487.7"/>
</g>
<g class="st24">
	<g>
		<g>
			<path d="M343.3,490.1h-9.4c-1,0-1.9-0.8-1.9-1.9l-0.5-14.7c0-0.4,0.3-0.7,0.7-0.8c0.4,0,0.7,0.3,0.8,0.7l0.5,14.7
				c0,0.3,0.2,0.5,0.5,0.5h9.4c0.3,0,0.5-0.2,0.5-0.5l0.5-14.7c0-0.4,0.3-0.7,0.7-0.7l0,0c0.4,0,0.7,0.4,0.7,0.8l-0.5,14.7
				C345.2,489.3,344.3,490.1,343.3,490.1z"/>
		</g>
		<g>
			<path d="M338.6,487c-0.3,0-0.6-0.3-0.6-0.6v-10c0-0.3,0.3-0.6,0.6-0.6c0.3,0,0.6,0.3,0.6,0.6v10C339.2,486.8,338.9,487,338.6,487
				z"/>
		</g>
		<g>
			<path d="M335.7,487c-0.3,0-0.6-0.3-0.6-0.6l-0.3-10c0-0.3,0.2-0.6,0.6-0.6c0.3,0,0.6,0.2,0.6,0.6l0.3,10
				C336.3,486.7,336,487,335.7,487L335.7,487z"/>
		</g>
		<g>
			<path d="M341.5,487L341.5,487c-0.3,0-0.6-0.3-0.6-0.6l0.3-10c0-0.3,0.3-0.6,0.6-0.6c0.3,0,0.6,0.3,0.6,0.6l-0.3,10
				C342.1,486.8,341.8,487,341.5,487z"/>
		</g>
		<g>
			<path d="M345.9,473.8h-14.7c-0.4,0-0.7-0.3-0.7-0.7s0.3-0.7,0.7-0.7h14.7c0.4,0,0.7,0.3,0.7,0.7S346.3,473.8,345.9,473.8z"/>
		</g>
		<g>
			<path d="M340.8,472.8l-0.3-1.1c-0.1-0.2-0.4-0.5-0.6-0.5h-2.6c-0.2,0-0.5,0.2-0.6,0.5l-0.3,1.1l-1.4-0.4l0.3-1.1
				c0.2-0.9,1.1-1.5,2-1.5h2.6c0.9,0,1.8,0.7,2,1.5l0.3,1.1L340.8,472.8z"/>
		</g>
	</g>
</g>
<g class="st24">
	<rect x="409.7" y="489.2" class="st25" width="18.2" height="1.1"/>
	<path class="st25" d="M428.3,470.7l-1.2-1.2c-1-1-2.6-1-3.6,0l-10.9,10.9c-0.1,0.1-0.1,0.2-0.1,0.2l-1.6,5.6
		c-0.1,0.2,0,0.4,0.1,0.6c0.1,0.1,0.3,0.2,0.4,0.2s0.1,0,0.2,0l5.6-1.6c0.1,0,0.2-0.1,0.2-0.1l10.9-10.9c0.5-0.5,0.8-1.1,0.8-1.8
		C429,471.8,428.8,471.2,428.3,470.7z M416.7,484.3l-4.5,1.3l1.3-4.5l8.7-8.7l3.2,3.2L416.7,484.3z M427.5,473.5l-1.2,1.2l-3.2-3.2
		l1.2-1.2c0.6-0.6,1.5-0.6,2,0l1.2,1.2c0.3,0.3,0.4,0.6,0.4,1S427.8,473.2,427.5,473.5z"/>
</g>
<g class="st24">
	<g>
		<g>
			<path d="M515.2,491.5h-11c-1.2,0-2.2-1-2.3-2.2l-0.6-17.3c0-0.5,0.4-0.9,0.8-0.9c0.5,0,0.9,0.4,0.9,0.8l0.6,17.3
				c0,0.3,0.3,0.5,0.6,0.5h11c0.3,0,0.6-0.3,0.6-0.5l0.6-17.3c0-0.5,0.4-0.8,0.9-0.8l0,0c0.5,0,0.8,0.4,0.8,0.9l-0.6,17.3
				C517.4,490.5,516.4,491.5,515.2,491.5z"/>
		</g>
		<g>
			<path d="M509.6,487.8c-0.4,0-0.7-0.3-0.7-0.7v-11.7c0-0.4,0.3-0.7,0.7-0.7s0.7,0.3,0.7,0.7v11.7
				C510.3,487.5,510,487.8,509.6,487.8z"/>
		</g>
		<g>
			<path d="M506.2,487.8c-0.4,0-0.7-0.3-0.7-0.7l-0.3-11.7c0-0.4,0.3-0.7,0.7-0.7c0.4,0,0.7,0.3,0.7,0.7l0.3,11.7
				C506.9,487.5,506.6,487.8,506.2,487.8L506.2,487.8z"/>
		</g>
		<g>
			<path d="M513.1,487.8L513.1,487.8c-0.4,0-0.7-0.3-0.7-0.7l0.3-11.7c0-0.4,0.3-0.7,0.7-0.7s0.7,0.3,0.7,0.7l-0.3,11.7
				C513.8,487.5,513.5,487.8,513.1,487.8z"/>
		</g>
		<g>
			<path d="M518.3,472.3H501c-0.5,0-0.9-0.4-0.9-0.9s0.4-0.9,0.9-0.9h17.3c0.5,0,0.9,0.4,0.9,0.9S518.8,472.3,518.3,472.3z"/>
		</g>
		<g>
			<path d="M512.3,471.2l-0.4-1.3c-0.1-0.3-0.4-0.5-0.7-0.5h-3.1c-0.3,0-0.6,0.3-0.7,0.5l-0.4,1.3l-1.7-0.5l0.4-1.3
				c0.3-1,1.3-1.8,2.4-1.8h3.1c1.1,0,2.1,0.8,2.4,1.8l0.4,1.3L512.3,471.2z"/>
		</g>
	</g>
</g>
<path class="st22" d="M22.3,539.3l5.2-5.2c0.5-0.5,0.5-1.4,0-2s-1.4-0.5-2,0l-5.2,5.2l-5.2-5.2c-0.5-0.5-1.4-0.5-2,0
	c-0.5,0.5-0.5,1.4,0,2l5.2,5.2l-5.2,5.2c-0.5,0.5-0.5,1.4,0,2c0.5,0.5,1.4,0.5,2,0l5.2-5.2l5.2,5.2c0.5,0.5,1.4,0.5,2,0
	c0.5-0.5,0.5-1.4,0-2L22.3,539.3z"/>
<path class="st15" d="M78.9,535.1l-11,11.5c-0.6,0.6-1.6,0.6-2.2,0l-5.5-5.8c-0.6-0.6-0.6-1.7,0-2.3s1.6-0.6,2.2,0l4.4,4.6l9.9-10.3
	c0.6-0.6,1.6-0.6,2.2,0C79.5,533.4,79.5,534.4,78.9,535.1z"/>
<g id="Layer_2">
	<g id="Layer_1-2">
		<path class="st7" d="M85.7,336.9c-0.3-0.2-0.8-0.2-1.1,0.2c-0.2,0.3-0.2,0.8,0.2,1.1c0,0,0.1,0,0.1,0.1c2.3,1.5,3.8,4,3.8,6.8
			c0,0.4,0.3,0.8,0.8,0.8s0.8-0.3,0.8-0.8C90.2,341.7,88.5,338.6,85.7,336.9z"/>
		<path class="st7" d="M85,332.4c0-2.5-2-4.4-4.4-4.4c-2.5,0-4.4,2-4.4,4.4c0,1.3,0.6,2.5,1.6,3.4c-4,1.3-6.7,5-6.7,9.2
			c0,0.4,0.3,0.8,0.8,0.8c0.4,0,0.8-0.3,0.8-0.7l0,0c0-4.5,3.6-8.1,8.1-8.1h0.1c0.1,0,0.1,0,0.2,0C83.2,336.7,85,334.8,85,332.4z
			 M80.6,335.4c-1.6,0-2.9-1.3-2.9-2.9s1.3-2.9,2.9-2.9s2.9,1.3,2.9,2.9l0,0C83.5,334.1,82.2,335.4,80.6,335.4z"/>
	</g>
</g>
<g id="Layer_2_1_">
	<g id="Layer_1-2_1_">
		<path class="st9" d="M85.7,368.9c-0.3-0.2-0.8-0.2-1.1,0.2c-0.2,0.3-0.2,0.8,0.2,1.1c0,0,0.1,0,0.1,0.1c2.3,1.5,3.8,4,3.8,6.8
			c0,0.4,0.3,0.8,0.8,0.8s0.8-0.3,0.8-0.8C90.2,373.7,88.5,370.6,85.7,368.9z"/>
		<path class="st9" d="M85,364.4c0-2.5-2-4.4-4.4-4.4c-2.5,0-4.4,2-4.4,4.4c0,1.3,0.6,2.5,1.6,3.4c-4,1.3-6.7,5-6.7,9.2
			c0,0.4,0.3,0.8,0.8,0.8c0.4,0,0.8-0.3,0.8-0.7l0,0c0-4.5,3.6-8.1,8.1-8.1h0.1c0.1,0,0.1,0,0.2,0C83.2,368.7,85,366.8,85,364.4z
			 M80.6,367.4c-1.6,0-2.9-1.3-2.9-2.9s1.3-2.9,2.9-2.9s2.9,1.3,2.9,2.9l0,0C83.5,366.1,82.2,367.4,80.6,367.4z"/>
	</g>
</g>
<g>
	<g>
		<path class="st15" d="M503.5,240c2.7,0,5.2-1,7.2-2.6c0.9-0.8,1.7-1.7,2.4-2.8c1-1.7,1.6-3.6,1.6-5.7c0-6.1-4.9-11.1-11.1-11.1
			s-11.1,4.9-11.1,11C492.5,235.1,497.4,240,503.5,240z M498.4,228.4h4.6v-4.6h1.2v4.6h4.6v1.2h-4.7v4.6h-1.2v-4.6h-4.6L498.4,228.4
			L498.4,228.4z"/>
	</g>
	<rect x="495.8" y="222.9" class="st15" width="14.6" height="12.3"/>
</g>
<g>
	<g>
		<path class="st2" d="M501.5,230.6l2.7,0.8c0,0,0,0,0,0.1c-0.1,0.2-0.2,0.3-0.5,0.3c-0.9,0.1-2.3,0.1-2.3,0.1
			c-0.2,0-0.4,0.2-0.4,0.4s0.2,0.4,0.4,0.4c0.1,0,1.5,0.1,2.5-0.1c1-0.2,1.2-1,1.2-1.5c0-0.2-0.1-0.3-0.3-0.4l-3-0.9
			c-1.5-0.4-3.1,0.4-3.1,0.4l0,0l-3,1.8c-0.2,0.1-0.3,0.4-0.1,0.6c0.1,0.1,0.2,0.2,0.3,0.2c0.1,0,0.1,0,0.2-0.1l2.9-1.8
			C499.1,230.9,500.3,230.3,501.5,230.6z"/>
		<path class="st2" d="M511.6,229.9c-0.2-0.4-1-1.1-2.1-0.6c-1,0.5-3.2,1.5-3.3,1.5c-0.2,0.1-0.3,0.3-0.2,0.5
			c0.1,0.2,0.3,0.3,0.5,0.2c0,0,2.2-1.1,3.2-1.5c0.3-0.1,0.5-0.1,0.8,0l0,0l-5.5,4c-0.4,0.3-0.9,0.4-1.4,0.3l-4.9-0.8
			c-0.1,0-0.2,0-0.3,0.1l-1.2,1c-0.2,0.1-0.2,0.4-0.1,0.6c0.1,0.1,0.2,0.1,0.3,0.1c0.1,0,0.2,0,0.3-0.1l1.1-0.9l4.7,0.8
			c0.7,0.1,1.4-0.1,2-0.5l5.9-4.3C511.6,230.3,511.7,230.1,511.6,229.9z"/>
		<path class="st2" d="M504.1,229.4c0.6,0,1.2-0.2,1.7-0.7c0.9-0.9,0.9-2.4,0-3.3c-0.4-0.4-1-0.7-1.7-0.7c-0.6,0-1.2,0.2-1.7,0.7
			c-0.9,0.9-0.9,2.4,0,3.3C502.8,229.2,503.4,229.4,504.1,229.4z M503,226c0.3-0.3,0.7-0.5,1.1-0.5s0.8,0.2,1.1,0.5
			c0.6,0.6,0.6,1.6,0,2.2c-0.3,0.3-0.7,0.5-1.1,0.5s-0.8-0.2-1.1-0.5C502.4,227.6,502.4,226.6,503,226z"/>
		<path class="st2" d="M506.8,224.8c0.5,0,1-0.2,1.3-0.5c0.7-0.7,0.7-1.9,0-2.6c-0.3-0.3-0.8-0.5-1.3-0.5s-1,0.2-1.3,0.5
			c-0.7,0.7-0.7,1.9,0,2.6C505.9,224.6,506.4,224.8,506.8,224.8z M506.1,222.2c0.2-0.2,0.5-0.3,0.7-0.3c0.3,0,0.5,0.1,0.7,0.3
			c0.4,0.4,0.4,1.1,0,1.5c-0.2,0.2-0.5,0.3-0.7,0.3c-0.3,0-0.5-0.1-0.7-0.3C505.7,223.3,505.7,222.6,506.1,222.2z"/>
	</g>
</g>
<g>
	<g>
		<g>
			<path class="st2" d="M382.6,24.6c0-7.1-5.8-13-13-13c-7.1,0-13,5.8-13,13c0,7.1,5.8,13,13,13S382.6,31.7,382.6,24.6z M357.9,24.6
				c0-6.5,5.3-11.8,11.8-11.8s11.8,5.3,11.8,11.8s-5.3,11.8-11.8,11.8C363.2,36.4,357.9,31.1,357.9,24.6z"/>
		</g>
	</g>
	<path class="st2" d="M367.5,25.6l0.2-0.6c-0.2-0.3-0.5-1.3-0.2-2.1c0.2-1.2,1.5-1.8,2.7-1.8l0,0c1.5,0,2.7,0.9,2.7,2.3
		c0,1.1-0.7,2.6-1.9,2.6l0,0c-0.4,0-1-0.2-1.1-0.4c-0.2-0.2-0.2-0.5-0.1-0.8c0.2-0.6,0.5-1.4,0.5-2c0-0.5-0.3-0.8-0.8-0.8
		c-0.3,0-0.8,0.2-1,0.8c-0.2,0.5-0.2,1,0,1.5c0.1,0.2-0.3,1.6-0.5,2.1c-0.3,1.1-0.8,2.5-0.7,3.3l0.1,0.8l0.5-0.6
		c0.6-0.9,1.3-3,1.5-3.6C370,27,371,27,371.1,27c1.6,0,3.3-1.6,3.3-3.7c-0.1-1.9-1.4-3.5-3.9-3.5l0,0c-2.4,0-3.7,1.3-4,2.9
		C366,24.1,366.7,25.3,367.5,25.6z"/>
</g>
<g id="Global">
	<path class="st7" d="M141.5,528.7c0-1.7-1.4-3.1-3.1-3.1c-1,0-1.9,0.4-2.5,1.2c-5.1-2.7-11.5-0.7-14.2,4.4
		c-2.7,5.1-0.7,11.5,4.4,14.2s11.5,0.7,14.2-4.4c0.8-1.5,1.2-3.2,1.2-4.9c0-1.5-0.3-3-1-4.4C141.1,530.6,141.5,529.5,141.5,528.7z
		 M138.4,526.2c1.4,0,2.4,1.1,2.5,2.4c0,1.6-1.8,4.1-2.5,5c-0.7-0.9-2.5-3.4-2.5-5C135.9,527.3,137,526.2,138.4,526.2z M121.2,536
		c0-0.4,0-0.9,0.1-1.3l2.3,0.6c0.1,0,0.1,0,0.2,0l2-0.7h1.7v1.7c0,0.2,0.2,0.3,0.4,0.3h1.1l0.6,1.7l-0.7,2c-0.1,0.2,0,0.4,0.2,0.4
		c0,0,0.1,0,0.1,0h1.6l-0.5,1.6c0,0.1,0,0.1,0,0.2l0.5,1.6H130c-0.2,0-0.4,0.2-0.4,0.3v0.9C124.8,545,121.2,540.9,121.2,536z
		 M131,545.8c-0.2,0-0.5,0-0.7,0v-0.7h1.1c0.2,0,0.3-0.2,0.3-0.4c0,0,0-0.1,0-0.1l-0.7-2l0.7-2c0.1-0.2,0-0.4-0.2-0.4
		c0,0-0.1,0-0.1,0h-1.6l0.5-1.6c0-0.1,0-0.1,0-0.2l-0.7-2.1c0-0.1-0.2-0.2-0.3-0.2h-1.1v-1.7c0-0.2-0.2-0.3-0.4-0.3h-2.1
		c0,0-0.1,0-0.1,0l-2,0.7l-2.2-0.6c0.9-4.4,4.8-7.7,9.3-7.8l0.6,1.7l-0.7,2c0,0.1,0,0.1,0,0.2l0.7,2l-0.7,2c0,0,0,0.1,0,0.1v2.1
		c0,0.2,0.2,0.3,0.4,0.3c0,0,0.1,0,0.1,0l2-0.7l1.8,0.6v1.8c0,0.2,0.2,0.3,0.4,0.3h1.8v1.4c0,0.2,0.2,0.3,0.4,0.3h2.4
		C138,543.8,134.7,545.8,131,545.8z M140.8,536c0,1.3-0.3,2.6-0.8,3.8h-2.4v-1.4c0-0.2-0.2-0.3-0.4-0.3h-1.8v-1.7
		c0-0.2-0.1-0.3-0.2-0.3l-2.1-0.7c-0.1,0-0.1,0-0.2,0l-1.6,0.5v-1.6l0.7-2c0-0.1,0-0.1,0-0.2l-0.7-2l0.7-2c0-0.1,0-0.1,0-0.2
		l-0.5-1.6c1.4,0.1,2.8,0.4,4,1.1c-0.2,0.4-0.3,0.9-0.3,1.3c0,2.2,2.8,5.7,2.9,5.8c0.1,0.2,0.3,0.2,0.5,0.1c0,0,0,0,0.1-0.1
		c0.5-0.7,1-1.4,1.5-2.1C140.6,533.5,140.8,534.8,140.8,536z"/>
	<path class="st7" d="M138.4,530.4c1,0,1.8-0.8,1.8-1.7c0-1-0.8-1.7-1.8-1.7c-1,0-1.8,0.8-1.8,1.7
		C136.6,529.6,137.4,530.4,138.4,530.4z M138.4,527.6c0.6,0,1.1,0.5,1.1,1s-0.5,1-1.1,1s-1.1-0.5-1.1-1S137.8,527.6,138.4,527.6z"/>
	<path class="st7" d="M125.1,536c-1.4,0-2.4,1.1-2.5,2.4c0,1.5,2,3.5,2.2,3.7c0.1,0.1,0.4,0.1,0.5,0c0.2-0.2,2.2-2.2,2.2-3.7
		C127.5,537.1,126.4,536,125.1,536z M125.1,541.5c-0.6-0.7-1.8-2.1-1.8-3c0-1,0.8-1.7,1.8-1.7s1.8,0.8,1.8,1.7
		C126.8,539.4,125.7,540.8,125.1,541.5z"/>
	<path class="st7" d="M125.1,537.4c-0.6,0-1.1,0.5-1.1,1c0,0.6,0.5,1,1.1,1s1.1-0.5,1.1-1C126.1,537.9,125.7,537.4,125.1,537.4z
		 M125.1,538.8c-0.2,0-0.4-0.2-0.4-0.3c0-0.2,0.2-0.3,0.4-0.3c0.2,0,0.4,0.2,0.4,0.3C125.4,538.7,125.3,538.8,125.1,538.8z"/>
</g>
<g id="Global_1_">
	<path class="st9" d="M143.5,566.7c0-1.7-1.4-3.1-3.1-3.1c-1,0-1.9,0.4-2.5,1.2c-5.1-2.7-11.5-0.7-14.2,4.4
		c-2.7,5.1-0.7,11.5,4.4,14.2s11.5,0.7,14.2-4.4c0.8-1.5,1.2-3.2,1.2-4.9c0-1.5-0.3-3-1-4.4C143.1,568.6,143.5,567.5,143.5,566.7z
		 M140.4,564.2c1.4,0,2.4,1.1,2.5,2.4c0,1.6-1.8,4.1-2.5,5c-0.7-0.9-2.5-3.4-2.5-5C137.9,565.3,139,564.2,140.4,564.2z M123.2,574
		c0-0.4,0-0.9,0.1-1.3l2.3,0.6c0.1,0,0.1,0,0.2,0l2-0.7h1.7v1.7c0,0.2,0.2,0.3,0.4,0.3h1.1l0.6,1.7l-0.7,2c-0.1,0.2,0,0.4,0.2,0.4
		c0,0,0.1,0,0.1,0h1.6l-0.5,1.6c0,0.1,0,0.1,0,0.2l0.5,1.6H132c-0.2,0-0.4,0.2-0.4,0.3v0.9C126.8,583,123.2,578.9,123.2,574z
		 M133,583.8c-0.2,0-0.5,0-0.7,0v-0.7h1.1c0.2,0,0.3-0.2,0.3-0.4c0,0,0-0.1,0-0.1l-0.7-2l0.7-2c0.1-0.2,0-0.4-0.2-0.4
		c0,0-0.1,0-0.1,0h-1.6l0.5-1.6c0-0.1,0-0.1,0-0.2l-0.7-2.1c0-0.1-0.2-0.2-0.3-0.2h-1.1v-1.7c0-0.2-0.2-0.3-0.4-0.3h-2.1
		c0,0-0.1,0-0.1,0l-2,0.7l-2.2-0.6c0.9-4.4,4.8-7.7,9.3-7.8l0.6,1.7l-0.7,2c0,0.1,0,0.1,0,0.2l0.7,2l-0.7,2c0,0,0,0.1,0,0.1v2.1
		c0,0.2,0.2,0.3,0.4,0.3c0,0,0.1,0,0.1,0l2-0.7l1.8,0.6v1.8c0,0.2,0.2,0.3,0.4,0.3h1.8v1.4c0,0.2,0.2,0.3,0.4,0.3h2.4
		C140,581.8,136.7,583.8,133,583.8z M142.8,574c0,1.3-0.3,2.6-0.8,3.8h-2.4v-1.4c0-0.2-0.2-0.3-0.4-0.3h-1.8v-1.7
		c0-0.2-0.1-0.3-0.2-0.3l-2.1-0.7c-0.1,0-0.1,0-0.2,0l-1.6,0.5v-1.6l0.7-2c0-0.1,0-0.1,0-0.2l-0.7-2l0.7-2c0-0.1,0-0.1,0-0.2
		l-0.5-1.6c1.4,0.1,2.8,0.4,4,1.1c-0.2,0.4-0.3,0.9-0.3,1.3c0,2.2,2.8,5.7,2.9,5.8c0.1,0.2,0.3,0.2,0.5,0.1c0,0,0,0,0.1-0.1
		c0.5-0.7,1-1.4,1.5-2.1C142.6,571.5,142.8,572.8,142.8,574z"/>
	<path class="st9" d="M140.4,568.4c1,0,1.8-0.8,1.8-1.7c0-1-0.8-1.7-1.8-1.7c-1,0-1.8,0.8-1.8,1.7
		C138.6,567.6,139.4,568.4,140.4,568.4z M140.4,565.6c0.6,0,1.1,0.5,1.1,1s-0.5,1-1.1,1s-1.1-0.5-1.1-1S139.8,565.6,140.4,565.6z"/>
	<path class="st9" d="M127.1,574c-1.4,0-2.4,1.1-2.5,2.4c0,1.5,2,3.5,2.2,3.7c0.1,0.1,0.4,0.1,0.5,0c0.2-0.2,2.2-2.2,2.2-3.7
		C129.5,575.1,128.4,574,127.1,574z M127.1,579.5c-0.6-0.7-1.8-2.1-1.8-3c0-1,0.8-1.7,1.8-1.7c1,0,1.8,0.8,1.8,1.7
		C128.8,577.4,127.7,578.8,127.1,579.5z"/>
	<path class="st9" d="M127.1,575.4c-0.6,0-1.1,0.5-1.1,1c0,0.6,0.5,1,1.1,1s1.1-0.5,1.1-1C128.1,575.9,127.7,575.4,127.1,575.4z
		 M127.1,576.8c-0.2,0-0.4-0.2-0.4-0.3c0-0.2,0.2-0.3,0.4-0.3c0.2,0,0.4,0.2,0.4,0.3C127.4,576.7,127.3,576.8,127.1,576.8z"/>
</g>
</svg>
