<svg xmlns="http://www.w3.org/2000/svg" viewBox="0 0 25.18 30.22"><defs><style>.cls-1{fill:#4caf50;}</style></defs><title>storge_icn</title><g id="Layer_2" data-name="Layer 2"><g id="Layer_1-2" data-name="Layer 1"><path class="cls-1" d="M12.59,0C5.44,0,0,2.62,0,6V24.17c0,3.42,5.44,6,12.59,6s12.59-2.62,12.59-6V6C25.18,2.62,19.74,0,12.59,0ZM23.17,24.17c0,1.91-4.53,4-10.58,4S2,26.09,2,24.17V21.45c2.22,1.61,6,2.72,10.58,2.72s8.36-1,10.58-2.72Zm0-6c0,1.91-4.53,4-10.58,4S2,20,2,18.13V15.41c2.22,1.61,6,2.72,10.58,2.72s8.36-1,10.58-2.72Zm0-6c0,1.91-4.53,4-10.58,4S2,14,2,12.09V9.37c2.22,1.61,6,2.72,10.58,2.72s8.36-1,10.58-2.72Zm-10.58-2C6.55,10.07,2,8,2,6S6.55,2,12.59,2,23.17,4.13,23.17,6,18.63,10.07,12.59,10.07Z"/><path class="cls-1" d="M7.25,14.5H7A2.94,2.94,0,0,0,6,14.3,1.15,1.15,0,0,1,5.34,13a1.15,1.15,0,0,1,1.31-.71,1.9,1.9,0,0,0,.81.2,1,1,0,0,1-.2,2Z"/><path class="cls-1" d="M7.25,20.55H7a2.94,2.94,0,0,0-.91-.2,1.05,1.05,0,0,1,.6-2,1.9,1.9,0,0,0,.81.2,1,1,0,0,1-.2,2Z"/><path class="cls-1" d="M7.25,26.59H7a2.94,2.94,0,0,0-.91-.2,1.05,1.05,0,0,1,.6-2,1.9,1.9,0,0,0,.81.2,1,1,0,0,1-.2,2Z"/></g></g></svg>