<svg xmlns="http://www.w3.org/2000/svg" viewBox="0 0 63.52 63.52"><defs><style>.cls-1{fill:#f5f5f5;}.cls-2{fill:#302939;}</style></defs><title>uplod_img</title><g id="Layer_2" data-name="Layer 2"><g id="Layer_1-2" data-name="Layer 1"><circle class="cls-1" cx="31.76" cy="31.76" r="31.76"/><path class="cls-2" d="M21.56,44a.73.73,0,0,1-.73-.73V39.49a2.55,2.55,0,0,1,.16-1,1.83,1.83,0,0,1,.7-.83,18.79,18.79,0,0,1,9.93-3.25h.25a18.93,18.93,0,0,1,9.93,3.25,1.79,1.79,0,0,1,.69.82,2.67,2.67,0,0,1,.17,1v3.78A.73.73,0,0,1,42,44Zm10.16-8.16a17.78,17.78,0,0,0-9.19,3l-.14.13-.08.25c0,.07,0,.19,0,.28v3.07H41.22V39.49a2.11,2.11,0,0,0,0-.33l0-.23-.2-.12.09.07a17.69,17.69,0,0,0-9.26-3h-.07Z"/><path class="cls-2" d="M31.51,32.63a4.88,4.88,0,0,1-4.87-4.87V24.38a4.88,4.88,0,0,1,4.88-4.87h.42a4.87,4.87,0,0,1,4.87,4.87v3.37a4.88,4.88,0,0,1-4.87,4.87Zm0-11.66a3.42,3.42,0,0,0-3.42,3.42v3.37a3.43,3.43,0,0,0,3.42,3.42h.42a3.42,3.42,0,0,0,3.42-3.42V24.38A3.42,3.42,0,0,0,31.93,21Z"/></g></g></svg>